<?xml version="1.0" encoding="UTF-8" standalone="no"?>
<!-- Created with Inkscape (http://www.inkscape.org/) -->

<svg
   xmlns:dc="http://purl.org/dc/elements/1.1/"
   xmlns:cc="http://creativecommons.org/ns#"
   xmlns:rdf="http://www.w3.org/1999/02/22-rdf-syntax-ns#"
   xmlns:svg="http://www.w3.org/2000/svg"
   xmlns="http://www.w3.org/2000/svg"
   xmlns:sodipodi="http://sodipodi.sourceforge.net/DTD/sodipodi-0.dtd"
   xmlns:inkscape="http://www.inkscape.org/namespaces/inkscape"
   width="249.47728mm"
   height="202.19447mm"
   viewBox="0 0 883.97461 716.43711"
   id="svg5576"
   version="1.1"
   inkscape:version="0.91 r13725"
   sodipodi:docname="perro.svg"
   inkscape:export-filename="C:\Users\Sebastián\Dropbox\Personal\Material para Clases\2015\Programacion 2\img\svg\perro.png"
   inkscape:export-xdpi="61"
   inkscape:export-ydpi="61">
  <defs
     id="defs5578" />
  <sodipodi:namedview
     id="base"
     pagecolor="#ffffff"
     bordercolor="#666666"
     borderopacity="1.0"
     inkscape:pageopacity="0"
     inkscape:pageshadow="2"
     inkscape:zoom="0.7"
     inkscape:cx="562.01964"
     inkscape:cy="387.09024"
     inkscape:document-units="px"
     inkscape:current-layer="layer1"
     showgrid="false"
     showguides="false"
     fit-margin-top="10"
     fit-margin-left="10"
     fit-margin-right="10"
     fit-margin-bottom="10"
     inkscape:window-width="1366"
     inkscape:window-height="745"
     inkscape:window-x="-8"
     inkscape:window-y="-8"
     inkscape:window-maximized="1" />
  <metadata
     id="metadata5581">
    <rdf:RDF>
      <cc:Work
         rdf:about="">
        <dc:format>image/svg+xml</dc:format>
        <dc:type
           rdf:resource="http://purl.org/dc/dcmitype/StillImage" />
        <dc:title></dc:title>
      </cc:Work>
    </rdf:RDF>
  </metadata>
  <g
     inkscape:label="Capa 1"
     inkscape:groupmode="layer"
     id="layer1"
     transform="translate(144.40975,-36.337262)">
    <path
       style="opacity:1;fill:#000000;fill-opacity:1;stroke:#000000;stroke-width:5.26363373;stroke-linecap:round;stroke-linejoin:round;stroke-miterlimit:4;stroke-dasharray:none;stroke-opacity:1"
       d="m 107.65285,458.44935 c 0,0 5.74707,51.69667 -31.665493,75.23896 l 13.364041,2.36863 c -7.447288,0.22221 -37.358375,-5.73003 -46.331172,-4.39789 -18.686577,2.77442 -31.096944,24.76204 -31.116131,35.3738 4.19e-4,9.78556 5.158688,23.66327 17.396987,25.55748 3.436543,5.90527 11.835911,17.98253 27.712809,17.1907 13.819948,12.72153 36.670888,9.80332 52.572029,7.2955 15.90112,-2.50783 30.48763,-9.15976 44.46351,-16.56085 9.11333,-7.37939 17.68275,-15.72264 20.22497,-30.614 0.88007,-1.97042 1.93182,-3.83155 3.85789,-5.13612 15.74493,-11.14379 30.22469,-30.41704 40.43939,-53.82668 0.667,-1.4789 1.57833,-3.81255 1.57833,-3.81255 1.79614,-4.34137 3.42895,-8.77598 4.88625,-13.27073 16.84544,-52.80843 6.49941,-102.59892 -23.10852,-111.21018 -40.23617,-11.1295 -94.29237,32.41637 -94.27489,75.80393 z"
       id="path6277"
       inkscape:connector-curvature="0"
       sodipodi:nodetypes="cccsccczcccccccc" />
    <path
       sodipodi:nodetypes="cccsccczscccccc"
       inkscape:connector-curvature="0"
       id="path6263"
       d="m 103.31673,458.42907 c 0,0 5.49033,51.72244 -30.250881,75.27647 l 12.76702,2.36981 c -7.11459,0.22232 -35.68944,-5.73289 -44.26139,-4.40008 -17.85178,2.7758 -29.70773,24.77438 -29.72606,35.39143 4e-4,9.79044 3.413001,18.11923 15.104571,20.01438 3.28302,5.90821 8.759213,14.45471 25.947138,12.14725 7.646721,21.31417 36.92138,12.99843 51.964302,11.59279 15.04293,-1.40565 25.13149,-4.05115 39.95179,-15.05387 24.14114,-17.92258 17.37643,-31.82539 26.33946,-42.08065 10.16604,-23.60897 27.84601,-20.65797 38.12773,-42.74183 0.6372,-1.47964 1.50782,-3.81445 1.50782,-3.81445 1.7159,-4.34354 3.27577,-8.78036 4.66797,-13.27735 16.09289,-52.83476 6.20905,-102.65007 -22.07618,-111.26562 -38.43868,-11.13505 -90.07999,32.43253 -90.06329,75.84172 z"
       style="opacity:1;fill:#ffffff;fill-opacity:1;stroke:#000000;stroke-width:5.14599991;stroke-linecap:round;stroke-linejoin:round;stroke-miterlimit:4;stroke-dasharray:none;stroke-opacity:1" />
    <path
       style="opacity:1;fill:#ffffff;fill-opacity:1;stroke:#000000;stroke-width:5.14599991;stroke-linecap:round;stroke-linejoin:round;stroke-miterlimit:4;stroke-dasharray:none;stroke-opacity:1"
       d="m 374.67287,362.07784 c -22.91828,14.23165 -31.07052,59.13524 -19.31068,106.36574 0.0465,0.17319 0.0933,0.34627 0.1403,0.51929 l -0.17016,0.02 c 0.52183,28.79291 13.93047,53.82462 -4.62686,92.39731 -27.58216,-5.31293 -49.31793,37.6119 -19.7742,44.1293 3.8389,9.22399 4.41324,9.15371 9.15181,12.90796 4.73857,3.75426 13.0359,6.31107 26.59039,0.26758 14.27441,9.1519 32.14174,3.63565 51.75872,-8.11511 15.45799,-9.28079 32.68303,-23.91928 32.98954,-40.67223 0.30651,-16.75295 4.65516,-28.85243 5.86107,-43.43784 7.17425,-17.2941 9.13205,-40.94457 5.46781,-66.05147 l 0.34568,-4.1663 -1.01232,0.11918 c -0.76003,-4.60793 -1.70184,-9.2157 -2.81841,-13.78893 -13.3449,-53.59484 -47.42272,-91.25061 -76.11495,-84.10653 -2.95928,0.73743 -5.79551,1.94584 -8.47774,3.61205 z"
       id="path6253"
       inkscape:connector-curvature="0"
       sodipodi:nodetypes="cccccczcczccccccc" />
    <path
       sodipodi:nodetypes="cc"
       inkscape:connector-curvature="0"
       id="path6261"
       d="m 353.92857,574.3265 c -19.30789,2.32006 -33.34336,34.75527 -11.78571,45.53571"
       style="fill:none;fill-rule:evenodd;stroke:#000000;stroke-width:5.13600016;stroke-linecap:round;stroke-linejoin:miter;stroke-miterlimit:4;stroke-dasharray:none;stroke-opacity:1" />
    <path
       sodipodi:nodetypes="ccaccsscc"
       inkscape:connector-curvature="0"
       d="m 72.626133,260.7927 c 19.55838,-3.28288 25.784663,-1.78246 36.757987,-13.4701 13.12758,-17.70742 -1.41459,-37.03733 -15.901789,-45.4726 -13.244322,-7.71158 -27.759186,-6.90783 -46.360963,6.11291 -10.884775,9.27617 -23.040653,22.26667 -26.752559,26.11058 -12.5164425,13.3312 -13.4703504,31.66831 -2.13061,40.95706 11.339748,9.28876 33.464721,10.04848 45.981169,-3.28274 12.516448,-13.33121 16.612862,-29.67914 5.273115,-38.9679 11.498943,9.78892 6.830124,16.45571 3.13365,28.01279 z"
       style="opacity:1;fill:#ffffff;fill-opacity:1;stroke:#000000;stroke-width:4.63642406;stroke-linecap:round;stroke-linejoin:round;stroke-miterlimit:4;stroke-dasharray:none;stroke-opacity:1"
       id="path6236" />
    <path
       style="fill:#ffffff;fill-rule:evenodd;stroke:#000000;stroke-width:5.14599991;stroke-linecap:butt;stroke-linejoin:round;stroke-miterlimit:4;stroke-dasharray:none;stroke-opacity:1;fill-opacity:1"
       d="m 521.58534,327.90951 c 77.5641,-28.06295 102.96771,-150.2565 97.75643,-236.600563 -0.26357,-4.367008 0.16125,-26.749222 17.56557,-11.998483 33.79445,28.641926 20.92809,92.289886 9.97897,117.748406 12.52306,-4.35877 20.56993,-20.22838 29.64922,-46.5015 4.24785,-12.29219 15.07238,-26.25745 17.27647,4.70888 2.83321,39.80516 -3.40922,84.16248 -41.25345,107.15666 19.61172,4.62314 34.98307,-25.01415 44.89486,-24.10008 7.3226,0.6753 3.04414,20.38368 0.80134,26.78557 -17.77458,50.7362 -41.1725,65.55616 -60.03089,64.8109 15.99229,5.18879 26.95359,0.0577 34.95866,-7.1326 6.0015,15.59686 -11.1181,75.40625 -89.90608,62.87483 z"
       id="path6139"
       inkscape:connector-curvature="0"
       sodipodi:nodetypes="csscsscsscccc" />
    <path
       style="fill:none;fill-rule:evenodd;stroke:#000000;stroke-width:5.13600016;stroke-linecap:round;stroke-linejoin:miter;stroke-miterlimit:4;stroke-dasharray:none;stroke-opacity:1"
       d="m 383.92857,574.68364 c -28.5936,3.39149 -36.02193,42.0767 -8.39285,47.67856"
       id="path6259"
       inkscape:connector-curvature="0"
       sodipodi:nodetypes="cc" />
    <path
       sodipodi:nodetypes="sssssss"
       inkscape:connector-curvature="0"
       id="path6269"
       d="m 589.92908,446.27069 c 0,91.49426 -126.40842,134.35029 -263.64982,134.35029 -101.5942,0 -183.10731,-36.05689 -203.23032,-102.9136 -10.17448,-33.80371 -1.32545,-21.98785 -32.8408,-36.83408 -51.631604,-24.32259 40.24908,-141.50647 111.90424,-131.80232 122.51935,16.59262 199.33462,22.62212 312.21657,18.20837 55.45917,-2.16849 75.60013,72.29646 75.60013,118.99134 z"
       style="opacity:1;fill:#000000;fill-opacity:1;stroke:#000000;stroke-width:5.14599991;stroke-linecap:round;stroke-miterlimit:4;stroke-dasharray:none;stroke-opacity:1" />
    <path
       style="opacity:1;fill:#ffffff;fill-opacity:1;stroke:#000000;stroke-width:5.14599991;stroke-linecap:round;stroke-miterlimit:4;stroke-dasharray:none;stroke-opacity:1"
       d="M 586.89862,453.34176 C 479.82245,556.95785 472.61203,565.46869 327.28941,568.49915 225.71729,570.61726 153.27348,532.44226 133.15047,465.58555 122.97599,431.78184 121.72349,453.69922 90.20814,438.85299 38.576536,414.5304 211.26942,404.42269 202.11238,309.07098 c 122.51935,16.59262 206.40569,20.60181 319.28764,16.18806 45.35764,-1.15834 65.4986,81.38784 65.4986,128.08272 z"
       id="path6124"
       inkscape:connector-curvature="0"
       sodipodi:nodetypes="csssccc" />
    <path
       sodipodi:nodetypes="czccsscsccccc"
       inkscape:connector-curvature="0"
       id="path6271"
       d="m 115.98732,227.81607 c -26.843075,0.0115 -63.470705,15.62382 -74.033435,23.10242 -10.562729,7.47861 -44.663967,39.98352 -44.663967,39.98352 -2.975959,16.79221 -68.288758,34.63623 -89.364016,56.7141 -20.476942,17.06447 -12.519052,37.1286 -12.038612,59.55986 0.11629,5.42836 1.64025,10.56069 2.96547,15.95473 4.150866,16.89533 15.523365,33.21361 25.611363,28.50627 6.919628,6.23583 7.014615,6.21905 14.645648,10.91362 15.26207,9.38913 35.659654,12.91191 58.1541446,7.73046 C 123.69511,430.39493 117.36254,458.14229 176.30754,404.96157 c 30.1109,-29.01119 38.52888,-36.26403 39.11788,-65.62328 -1.3e-4,-59.90136 -33.11389,-111.52209 -99.4381,-111.52218 z"
       style="opacity:1;fill:#000000;fill-opacity:1;stroke:#000000;stroke-width:4.62142515;stroke-linecap:round;stroke-miterlimit:4;stroke-dasharray:none;stroke-opacity:1" />
    <path
       style="opacity:1;fill:#ffffff;fill-opacity:1;stroke:#000000;stroke-width:4.54790592;stroke-linecap:round;stroke-miterlimit:4;stroke-dasharray:none;stroke-opacity:1"
       d="m 115.1582,227.7793 c -26.258756,0.0114 -62.089073,15.46737 -72.421872,22.87109 -10.332799,7.40372 -43.69171946,39.58314 -43.69171946,39.58314 -2.91117814,16.62408 -66.80224354,34.2894 -87.41873254,56.1462 -20.031196,16.89361 -12.246536,36.75683 -11.776546,58.96347 0.11374,5.374 1.604542,10.45494 2.900905,15.79496 4.060513,16.72616 15.185454,32.88104 25.053857,28.22083 6.769,6.17339 6.861919,6.15678 14.32684,10.80434 14.929843,9.29511 32.863106,9.75216 54.8679351,4.62259 C 117.64743,435.9058 121.92206,444.99561 168.60952,406.6865 c 20.52541,-16.84201 39.20541,-39.94151 39.78159,-69.00678 -1.3e-4,-59.30154 -28.35245,-109.90029 -93.23291,-109.90038 z"
       id="path6127"
       inkscape:connector-curvature="0"
       sodipodi:nodetypes="czccsscscaccc" />
    <path
       sodipodi:nodetypes="cccsccczccccccccc"
       inkscape:connector-curvature="0"
       id="path6275"
       d="m 208.3353,553.72191 c 0,0 5.58349,52.36826 -30.7642,76.21641 l 12.98366,2.3994 c -7.23531,0.22509 -36.29504,-5.80448 -45.01245,-4.45502 -18.1547,2.81046 -30.21183,25.08373 -30.23048,35.83334 4.1e-4,9.91268 5.01186,23.97069 16.90182,25.8895 3.33873,5.98199 11.98972,15.65796 27.41472,14.85585 13.4266,12.88679 30.72013,10.95394 46.16867,8.41354 15.44853,-2.54041 29.61986,-9.27875 43.19796,-16.77598 1.67998,-0.92724 3.02572,-1.68689 5.02128,-3.04736 10.94455,-7.29901 17.6369,-16.58655 19.04432,-26.42945 0.85503,-1.99601 1.87684,-3.88133 3.74809,-5.20284 15.29678,-11.28857 29.36441,-30.8122 39.28836,-54.52595 0.64801,-1.49812 1.53341,-3.86208 1.53341,-3.86208 1.74502,-4.39778 3.33136,-8.89 4.74717,-13.44314 16.36598,-53.49448 6.31442,-103.93181 -22.45078,-112.65494 -39.09094,-11.27408 -91.60853,32.8375 -91.59155,76.78872 z"
       style="opacity:1;fill:#000000;fill-opacity:1;stroke:#000000;stroke-width:5.22177553;stroke-linecap:round;stroke-linejoin:round;stroke-miterlimit:4;stroke-dasharray:none;stroke-opacity:1" />
    <path
       style="opacity:1;fill:#ffffff;fill-opacity:1;stroke:#000000;stroke-width:5.14599991;stroke-linecap:round;stroke-linejoin:round;stroke-miterlimit:4;stroke-dasharray:none;stroke-opacity:1"
       d="m 204.7453,552.71478 c 0,0 5.49033,51.72244 -30.25088,75.27647 l 12.76702,2.36981 c -7.11459,0.22232 -35.68944,-5.73289 -44.26139,-4.40008 -17.85178,2.7758 -29.70773,24.77438 -29.72606,35.39143 4e-4,9.79044 4.92823,23.67507 16.6198,25.57022 3.28302,5.90821 11.78967,15.46486 26.95729,14.67263 13.20256,12.72787 30.20754,10.81886 45.39831,8.30979 15.19076,-2.50908 29.12564,-9.16432 42.47717,-16.5691 1.65196,-0.91579 2.97524,-1.66608 4.9375,-3.00977 10.76194,-7.20899 17.34262,-16.382 18.72656,-26.10351 0.84076,-1.9714 1.84552,-3.83346 3.68555,-5.13868 15.04154,-11.14935 28.87444,-30.4322 38.63281,-53.85351 0.6372,-1.47964 1.50782,-3.81445 1.50782,-3.81445 1.7159,-4.34354 3.27577,-8.78036 4.66797,-13.27735 16.09289,-52.83476 6.20905,-102.65007 -22.07618,-111.26562 -38.43868,-11.13505 -90.07999,32.43253 -90.06329,75.84172 z"
       id="path6133"
       inkscape:connector-curvature="0"
       sodipodi:nodetypes="cccsccczccccccccc" />
    <path
       style="opacity:1;fill:#000000;fill-opacity:1;stroke:#000000;stroke-width:5.14599991;stroke-linecap:round;stroke-miterlimit:4;stroke-dasharray:none;stroke-opacity:1"
       d="m -68.002417,385.90078 c -4.905435,15.41728 -12.080217,26.50761 -25.370972,22.27879 -13.290751,-4.22883 -15.542711,-24.19575 -10.637271,-39.61303 4.905439,-15.41727 16.625905,-19.43653 29.916656,-15.2077 13.290751,4.22882 10.997021,17.12467 6.091587,32.54194 z"
       id="path6141"
       inkscape:connector-curvature="0"
       sodipodi:nodetypes="sssss" />
    <circle
       cy="106.57648"
       cx="-43.714294"
       style="fill:#ffffff;fill-opacity:1;fill-rule:evenodd;stroke:#000000;stroke-width:3;stroke-linecap:round;stroke-linejoin:round;stroke-miterlimit:4;stroke-dasharray:none;stroke-dashoffset:0;stroke-opacity:1"
       id="path3888-4"
       r="0" />
    <path
       style="fill:none;fill-rule:evenodd;stroke:#000000;stroke-width:5.14599991;stroke-linecap:round;stroke-linejoin:miter;stroke-miterlimit:4;stroke-dasharray:none;stroke-opacity:1"
       d="m -81.306018,408.78643 c 0.793339,31.45637 32.3564,41.19338 32.3564,41.19338 44.351392,15.245 102.898382,-9.26055 146.092475,-31.90332"
       id="path6173"
       inkscape:connector-curvature="0"
       sodipodi:nodetypes="ccc" />
    <path
       id="path6179"
       style="opacity:1;fill:#ffffff;fill-opacity:1;stroke:#000000;stroke-width:5.14599991;stroke-linecap:round;stroke-linejoin:round;stroke-miterlimit:4;stroke-dasharray:none;stroke-opacity:1"
       d="m 173.99878,298.03079 c -13.28787,-16.66752 -19.44543,-19.77565 -19.44543,-37.62819 2.8208,-24.57385 29.18556,-30.97875 47.25656,-28.01573 16.52066,2.70882 27.61817,13.66868 32.76103,38.06761 1.75455,15.70778 1.72174,35.52164 1.80475,41.4659 0,20.36305 -13.11556,36.87057 -29.29442,36.87057 -16.17887,0 -34.59773,-14.99228 -34.59773,-35.35534 0,-20.36306 9.07495,-37.37565 25.25382,-37.37565 -16.68599,0.31927 -17.96872,9.37768 -23.73858,21.97083 z"
       inkscape:connector-curvature="0"
       sodipodi:nodetypes="ccaccsscc" />
    <path
       style="opacity:1;fill:#000000;fill-opacity:1;stroke:#000000;stroke-width:5.20220041;stroke-linecap:round;stroke-linejoin:round;stroke-miterlimit:4;stroke-dasharray:none;stroke-opacity:1"
       d="m 519.68232,418.10501 c -23.42637,14.22875 -31.75935,59.1232 -19.73879,106.34408 0.0475,0.17315 0.0954,0.3462 0.14341,0.51918 l -0.17394,0.02 c 19.10483,77.35847 19.9536,79.52795 -4.72943,92.37849 -19.90914,13.95699 -27.06212,29.92992 -14.55501,50.67234 5.8216,9.50501 31.01941,20.80913 38.91538,15.79283 5.06599,6.52665 39.04947,9.11249 43.32242,-2.72428 15.32657,9.03759 27.48214,1.03806 32.82295,-9.2664 6.08307,-11.73652 2.13007,-29.20919 2.44338,-45.95872 0.3133,-16.74954 -5.24164,-25.98942 -4.00899,-40.57186 7.3333,-17.29058 19.3345,-43.79337 15.58903,-68.89516 -0.55343,-5.59502 -2.18933,-11.77798 -3.56231,-17.83241 -13.64076,-53.58393 -48.47408,-91.23203 -77.80241,-84.0894 -3.02489,0.73728 -5.924,1.94544 -8.66569,3.61131 z"
       id="path6273"
       inkscape:connector-curvature="0"
       sodipodi:nodetypes="ccccccccszccccc" />
    <path
       sodipodi:nodetypes="czzcccszcccccc"
       inkscape:connector-curvature="0"
       id="path6190"
       d="m 515.00937,414.08693 c -23.08764,14.23068 -23.9013,60.10441 -15.66531,98.02473 8.23599,37.92033 25.99542,85.44356 3.66366,97.6926 -22.33176,12.24904 -38.81367,33.50541 -26.4874,54.25064 5.73741,9.5063 30.57087,20.81195 38.35266,15.79497 4.99274,6.52754 38.48483,9.11372 42.69599,-2.72465 15.10495,9.03881 27.08475,1.0382 32.34834,-9.26765 5.99511,-11.73811 2.09927,-29.21315 2.40805,-45.96496 0.30877,-16.75181 -4.59616,-26.7076 -3.38133,-41.29202 7.22726,-17.29292 18.48524,-43.08464 14.79392,-68.18983 -0.21122,-1.60681 -0.67157,-4.04684 -0.67157,-4.04684 -0.76564,-4.60762 -1.71441,-9.21508 -2.83923,-13.78799 -13.44351,-53.59119 -47.77315,-91.2444 -76.6774,-84.1008 -2.98115,0.73738 -5.83833,1.9457 -8.54038,3.6118 z"
       style="opacity:1;fill:#ffffff;fill-opacity:1;stroke:#000000;stroke-width:5.16480207;stroke-linecap:round;stroke-linejoin:round;stroke-miterlimit:4;stroke-dasharray:none;stroke-opacity:1" />
    <path
       style="fill:#000000;fill-opacity:1;fill-rule:evenodd;stroke:#000000;stroke-width:3;stroke-linecap:round;stroke-linejoin:round;stroke-miterlimit:4;stroke-dasharray:none;stroke-dashoffset:0;stroke-opacity:1"
       d="m 128.02129,317.90486 c -4.92473,15.41296 -20.78838,24.1145 -35.432434,19.43545 -14.64406,-4.67905 -22.523139,-20.96685 -17.598408,-36.3798 4.924731,-15.41296 20.788374,-24.1145 35.432432,-19.43544 14.64405,4.67905 22.52314,20.96684 17.59841,36.37979 z"
       id="path3834-0"
       inkscape:connector-curvature="0" />
    <path
       style="fill:#000000;fill-opacity:1;fill-rule:evenodd;stroke:#000000;stroke-width:2.4483757;stroke-linecap:round;stroke-linejoin:round;stroke-miterlimit:4;stroke-dasharray:none;stroke-dashoffset:0;stroke-opacity:1"
       d="M 30.995532,286.22586 C 22.708027,296.49648 3.6842854,298.90645 3.6842854,298.90645 -8.9035916,296.85378 -11.989389,286.94472 -7.7424949,274.65381 -3.4956003,262.36289 9.8626987,255.32883 22.094109,258.94278 c 12.231411,3.61396 17.067519,17.16292 8.901423,27.28308 z"
       id="path3834"
       inkscape:connector-curvature="0"
       sodipodi:nodetypes="sssss" />
    <ellipse
       ry="8.6108046"
       rx="8.8888168"
       cy="261.85657"
       cx="97.906433"
       style="fill:#ffffff;fill-opacity:1;fill-rule:evenodd;stroke:#000000;stroke-width:2.44963789;stroke-linecap:round;stroke-linejoin:round;stroke-miterlimit:4;stroke-dasharray:none;stroke-dashoffset:0;stroke-opacity:1"
       id="path3888"
       transform="matrix(0.95901499,0.28335534,-0.3265849,0.94516787,0,0)" />
    <ellipse
       ry="9.9764986"
       rx="9.6628275"
       cy="261.65866"
       cx="181.85107"
       style="fill:#ffffff;fill-opacity:1;fill-rule:evenodd;stroke:#000000;stroke-width:2.74915504;stroke-linecap:round;stroke-linejoin:round;stroke-miterlimit:4;stroke-dasharray:none;stroke-dashoffset:0;stroke-opacity:1"
       id="path3888-1"
       transform="matrix(0.95255708,0.30436001,-0.30436001,0.95255708,0,0)" />
    <path
       style="fill:none;fill-rule:evenodd;stroke:#000000;stroke-width:5.14599991;stroke-linecap:round;stroke-linejoin:miter;stroke-miterlimit:4;stroke-dasharray:none;stroke-opacity:1"
       d="m -67.506906,438.9904 c 1.528297,6.2869 -5.65558,15.41753 -15.014867,8.49963"
       id="path6238"
       inkscape:connector-curvature="0"
       sodipodi:nodetypes="cc" />
    <path
       style="opacity:1;fill:#000000;fill-opacity:1;stroke:#000000;stroke-width:5.14599991;stroke-linecap:round;stroke-linejoin:round;stroke-miterlimit:4;stroke-dasharray:none;stroke-opacity:1"
       d="m 146.24596,298.1005 c -2.30209,2.43004 -1.55657,-5.91676 -12.28923,-16.08441 -10.73265,-10.16764 -22.20646,-14.44415 -19.90435,-16.87418 2.30211,-2.43003 12.5823,2.58714 23.31495,12.75477 10.73265,10.16764 11.18074,17.77377 8.87863,20.20382 z"
       id="path6240"
       inkscape:connector-curvature="0"
       sodipodi:nodetypes="sssss" />
    <path
       sodipodi:nodetypes="sssss"
       inkscape:connector-curvature="0"
       id="path6243"
       d="m -13.171692,260.08321 c 0.991494,3.19713 4.0106759,-4.62011 18.1313734,-8.99926 14.1206876,-4.37913 26.3033036,-3.14591 25.3117966,-6.34305 -0.991514,-3.19714 -12.430593,-3.23851 -26.5512696,1.14061 -14.1206884,4.37915 -17.8833934,11.00456 -16.8919004,14.2017 z"
       style="opacity:1;fill:#000000;fill-opacity:1;stroke:#000000;stroke-width:5.14599991;stroke-linecap:round;stroke-linejoin:round;stroke-miterlimit:4;stroke-dasharray:none;stroke-opacity:1" />
    <path
       style="fill:none;fill-rule:evenodd;stroke:#000000;stroke-width:5.13600016;stroke-linecap:round;stroke-linejoin:miter;stroke-miterlimit:4;stroke-dasharray:none;stroke-opacity:1"
       d="m 182.33254,659.41286 c -21.161,-2.32985 -39.58812,30.05429 -25.75889,41.92133"
       id="path6245"
       inkscape:connector-curvature="0"
       sodipodi:nodetypes="cc" />
    <path
       style="fill:none;fill-rule:evenodd;stroke:#000000;stroke-width:5.13600016;stroke-linecap:round;stroke-linejoin:miter;stroke-miterlimit:4;stroke-dasharray:none;stroke-opacity:1"
       d="m 163.13964,644.76565 c -28.94914,-8.2055 -43.54348,26.74201 -33.84011,40.91119"
       id="path6247"
       inkscape:connector-curvature="0"
       sodipodi:nodetypes="cc" />
    <path
       style="fill:none;fill-rule:evenodd;stroke:#000000;stroke-width:5.13600016;stroke-linecap:round;stroke-linejoin:miter;stroke-miterlimit:4;stroke-dasharray:none;stroke-opacity:1"
       d="m 515.99977,633.46091 c -11.29507,14.22631 -4.90682,48.15059 1.76777,50.00254"
       id="path6249"
       inkscape:connector-curvature="0"
       sodipodi:nodetypes="cc" />
    <path
       style="fill:none;fill-rule:evenodd;stroke:#000000;stroke-width:5.13600016;stroke-linecap:round;stroke-linejoin:miter;stroke-miterlimit:4;stroke-dasharray:none;stroke-opacity:1"
       d="m 555.90079,635.73376 c 7.91614,18.21335 10.35785,33.08189 3.53554,41.0486"
       id="path6251"
       inkscape:connector-curvature="0"
       sodipodi:nodetypes="cc" />
    <path
       sodipodi:nodetypes="cc"
       inkscape:connector-curvature="0"
       id="path6265"
       d="m 82.33254,566.55572 c -21.161,-2.32985 -39.58812,30.05429 -25.75889,41.92133"
       style="fill:none;fill-rule:evenodd;stroke:#000000;stroke-width:5.13600016;stroke-linecap:round;stroke-linejoin:miter;stroke-miterlimit:4;stroke-dasharray:none;stroke-opacity:1" />
    <path
       sodipodi:nodetypes="cc"
       inkscape:connector-curvature="0"
       id="path6267"
       d="M 63.13964,551.90851 C 34.1905,543.70301 19.59616,578.65052 29.29953,592.8197"
       style="fill:none;fill-rule:evenodd;stroke:#000000;stroke-width:5.13600016;stroke-linecap:round;stroke-linejoin:miter;stroke-miterlimit:4;stroke-dasharray:none;stroke-opacity:1" />
    <path
       style="fill:#000000;fill-rule:evenodd;stroke:#000000;stroke-width:1px;stroke-linecap:butt;stroke-linejoin:miter;stroke-opacity:1"
       d="m 387.89858,622.5423 c 10.3365,-5.32083 26.97032,-15.7871 33.68571,-26.21812 6.81749,-10.58962 2.58819,-24.66298 -3.88621,-31.36058 l 33.84011,-2.0203 c -2.22772,36.85477 -40.39934,52.35691 -63.63961,59.599 z"
       id="path6279"
       inkscape:connector-curvature="0"
       sodipodi:nodetypes="csccc" />
  </g>
</svg>
