<?xml version="1.0" encoding="UTF-8" standalone="no"?>
<!-- Created with Inkscape (http://www.inkscape.org/) -->

<svg
   xmlns:dc="http://purl.org/dc/elements/1.1/"
   xmlns:cc="http://creativecommons.org/ns#"
   xmlns:rdf="http://www.w3.org/1999/02/22-rdf-syntax-ns#"
   xmlns:svg="http://www.w3.org/2000/svg"
   xmlns="http://www.w3.org/2000/svg"
   xmlns:sodipodi="http://sodipodi.sourceforge.net/DTD/sodipodi-0.dtd"
   xmlns:inkscape="http://www.inkscape.org/namespaces/inkscape"
   width="205.87273mm"
   height="132.0786mm"
   viewBox="0 0 729.47029 467.99503"
   id="svg4922"
   version="1.1"
   inkscape:version="0.91 r13725"
   sodipodi:docname="toro.svg"
   inkscape:export-filename="C:\Users\Sebastián\Dropbox\Personal\Material para Clases\2015\Programacion 2\img\svg\toro_c_fondo.png"
   inkscape:export-xdpi="61"
   inkscape:export-ydpi="61">
  <defs
     id="defs4924" />
  <sodipodi:namedview
     id="base"
     pagecolor="#ffffff"
     bordercolor="#666666"
     borderopacity="1.0"
     inkscape:pageopacity="1"
     inkscape:pageshadow="2"
     inkscape:zoom="0.49497475"
     inkscape:cx="227.32034"
     inkscape:cy="261.87871"
     inkscape:document-units="px"
     inkscape:current-layer="layer1"
     showgrid="false"
     showguides="false"
     fit-margin-left="10"
     fit-margin-top="10"
     fit-margin-right="10"
     fit-margin-bottom="10"
     inkscape:window-width="1366"
     inkscape:window-height="745"
     inkscape:window-x="-8"
     inkscape:window-y="-8"
     inkscape:window-maximized="1" />
  <metadata
     id="metadata4927">
    <rdf:RDF>
      <cc:Work
         rdf:about="">
        <dc:format>image/svg+xml</dc:format>
        <dc:type
           rdf:resource="http://purl.org/dc/dcmitype/StillImage" />
        <dc:title></dc:title>
      </cc:Work>
    </rdf:RDF>
  </metadata>
  <g
     inkscape:label="Capa 1"
     inkscape:groupmode="layer"
     id="layer1"
     transform="translate(1076.1637,-354.14091)">
    <path
       sodipodi:nodetypes="sssssss"
       inkscape:connector-curvature="0"
       id="path5546"
       d="m -602.57841,601.21337 c -16.61781,-7.42916 -51.97062,8.41751 -59.12036,25.15745 -7.15805,16.75936 -20.90787,39.13127 -24.66215,72.90944 -2.01077,18.09145 7.11106,28.83407 23.72887,36.26323 16.61781,7.42916 19.60367,-4.54535 37.69179,-6.58602 9.64928,-1.08862 29.29857,-34.20525 38.94785,-65.76658 5.32201,-17.40749 0.0318,-54.54836 -16.586,-61.97752 z"
       style="fill:#ffffff;fill-opacity:1;fill-rule:evenodd;stroke:#000000;stroke-width:5;stroke-linecap:round;stroke-linejoin:round;stroke-miterlimit:4;stroke-dasharray:none;stroke-dashoffset:0;stroke-opacity:1" />
    <path
       sodipodi:nodetypes="sscssss"
       inkscape:connector-curvature="0"
       id="path5548"
       d="m -669.8712,712.25251 c -2.88674,11.94309 2.08999,24.0926 11.7726,31.74973 3.99574,3.15989 13.3242,-2.44338 18.87537,-17.9893 -3.06839,13.54791 3.04003,26.07354 6.77051,25.79433 13.97976,-1.04634 26.01455,-10.12659 29.23357,-23.44443 4.07802,-16.87167 -7.53667,-34.15529 -25.94212,-38.60404 -18.40546,-4.44874 -36.63192,5.62204 -40.70993,22.49371 z"
       style="fill:#000000;fill-opacity:1;fill-rule:evenodd;stroke:#000000;stroke-width:3;stroke-linecap:round;stroke-linejoin:round;stroke-miterlimit:4;stroke-dashoffset:0;stroke-opacity:1" />
    <path
       style="fill:none;stroke:#000000;stroke-width:5;stroke-linecap:butt;stroke-linejoin:miter;stroke-miterlimit:4;stroke-dasharray:none;stroke-opacity:1"
       d="m -396.84818,445.09097 c -54.20148,133.2799 -128.16693,-42.15871 -184.98523,114.57489 l -9.83489,-11.81765 c 56.8183,-156.7336 130.78375,18.70501 184.98523,-114.57489 z"
       id="path3910-8"
       inkscape:connector-curvature="0"
       sodipodi:nodetypes="ccccc" />
    <path
       style="fill:#ffffff;fill-opacity:1;fill-rule:evenodd;stroke:#000000;stroke-width:6;stroke-linecap:round;stroke-linejoin:round;stroke-miterlimit:4;stroke-dasharray:none;stroke-dashoffset:0;stroke-opacity:1"
       d="m -943.32436,495.57875 c 6.62812,10.27718 -4.12385,29.00812 -24.01518,41.83673 -19.89132,12.8286 -41.38956,14.89694 -48.01766,4.61975 -6.6281,-10.27718 4.1238,-29.00813 24.01514,-41.83673 19.89133,-12.82861 41.38959,-14.89694 48.0177,-4.61975 z"
       id="path3854"
       inkscape:connector-curvature="0" />
    <path
       style="fill:#ffffff;fill-opacity:1;fill-rule:evenodd;stroke:#000000;stroke-width:5;stroke-linecap:round;stroke-linejoin:round;stroke-miterlimit:4;stroke-dasharray:none;stroke-dashoffset:0;stroke-opacity:1"
       d="m -797.88543,619.49904 c -16.61781,-7.42917 -45.66222,-1.91479 -51.97752,15.15743 -8.61436,23.28729 -25.17456,43.98828 -30.37643,84.33803 -2.32744,18.05345 5.68249,27.40549 22.30031,34.83465 16.6178,7.42915 28.82132,3.13694 41.97751,-9.44315 12.50643,-11.95879 26.44142,-49.39267 38.94785,-71.48089 8.96868,-15.84003 -4.25391,-45.97692 -20.87172,-53.40607 z"
       id="rect3794-4"
       inkscape:connector-curvature="0"
       sodipodi:nodetypes="sssssss" />
    <path
       style="fill:#ffffff;fill-opacity:1;fill-rule:evenodd;stroke:#000000;stroke-width:5.146;stroke-miterlimit:4;stroke-dasharray:none;stroke-opacity:1"
       d="m -502.27822,579.52126 c 0,83.58735 -87.26853,151.3483 -194.91972,151.3483 -107.6512,0 -194.91973,-67.76095 -194.91973,-151.3483 0,-58.77954 -3.98808,-114.01855 59.06247,-139.08579 26.61039,-10.57959 91.10384,15.29857 123.00012,13.45178 123.36547,-7.14286 207.77686,42.04666 207.77686,125.63401 z"
       id="path2985"
       inkscape:connector-curvature="0"
       sodipodi:nodetypes="ssssss" />
    <ellipse
       ry="54.548237"
       rx="64.649765"
       cy="509.21072"
       cx="-729.62494"
       style="fill:#000000;fill-opacity:1;fill-rule:evenodd;stroke:#000000;stroke-width:3;stroke-linecap:round;stroke-linejoin:round;stroke-miterlimit:4;stroke-dasharray:none;stroke-dashoffset:0;stroke-opacity:1"
       id="path3990" />
    <path
       style="fill:#000000;fill-opacity:1;stroke:#000000;stroke-width:1px;stroke-linecap:butt;stroke-linejoin:miter;stroke-opacity:1"
       d="m -877.6123,638.00517 c 157.03129,169.1905 334.53097,54.14381 372.24121,-27.7792 -32.50097,88.52579 -86.2594,99.59788 -135.36044,114.14724 -28.63625,5.5167 -185.93355,21.9367 -236.88077,-86.36804 z"
       id="path4062"
       inkscape:connector-curvature="0"
       sodipodi:nodetypes="cccc" />
    <ellipse
       ry="56.031742"
       rx="65.628197"
       cy="616.79193"
       cx="-588.20361"
       style="fill:#000000;fill-opacity:1;fill-rule:evenodd;stroke:#000000;stroke-width:3.06344223;stroke-linecap:round;stroke-linejoin:round;stroke-miterlimit:4;stroke-dasharray:none;stroke-dashoffset:0;stroke-opacity:1"
       id="path3990-2-6" />
    <path
       style="fill:#ffffff;fill-opacity:1;fill-rule:evenodd;stroke:#000000;stroke-width:4.98563957;stroke-miterlimit:4;stroke-dasharray:none;stroke-opacity:1"
       d="m -881.10419,470.1028 c -39.08797,0.25751 -63.89844,11.83443 -76.92559,29.43964 -8.5796,11.59468 -7.31394,22.11145 6.24477,30.53347 -23.52265,17.7573 -63.71649,43.78805 -64.09429,62.37954 -1.4203,69.89219 88.976,87.63576 152.98125,66.94237 53.02721,-17.14411 85.85908,-27.05714 90.85908,-83.01951 0.35714,-21.95468 -5.26426,-27.86771 -20.42115,-47.92752 1.17139,-3.38525 4.27402,-16.86746 2.51089,-20.34523 -12.98606,-25.61493 -32.12567,-35.35886 -78.54115,-37.72149 -4.35145,-0.2215 -8.57022,-0.30791 -12.61381,-0.28127 z"
       id="path2987"
       inkscape:connector-curvature="0"
       sodipodi:nodetypes="sscssccsss" />
    <path
       style="fill:#ffffff;fill-opacity:1;fill-rule:evenodd;stroke:#000000;stroke-width:4.22800016;stroke-linecap:round;stroke-linejoin:round;stroke-miterlimit:4;stroke-dasharray:none;stroke-dashoffset:0;stroke-opacity:1"
       d="m -880.85471,629.6255 c -4.70112,29.69401 -52.56524,53.93512 -84.58172,19.97302 -37.94127,25.88749 -77.49177,-13.74766 -72.79067,-43.44166 4.7011,-29.694 47.97766,-54.76632 78.90606,-28.12365 50.8116,-16.60117 83.16744,21.8983 78.46633,51.59229 z"
       id="path3757"
       inkscape:connector-curvature="0"
       sodipodi:nodetypes="scscs" />
    <path
       style="fill:#000000;fill-opacity:1;fill-rule:evenodd;stroke:#000000;stroke-width:2.26187301;stroke-linecap:round;stroke-linejoin:round;stroke-miterlimit:4;stroke-dasharray:none;stroke-dashoffset:0;stroke-opacity:1"
       d="m -979.52786,608.67555 c -0.73477,4.64107 -8.90803,7.20372 -18.2555,5.72384 -9.34744,-1.47988 -16.32944,-6.44189 -15.59474,-11.08297 0.7348,-4.64106 8.9081,-7.20372 18.25557,-5.72384 9.34747,1.47988 16.32944,6.4419 15.59467,11.08297 z"
       id="path3774"
       inkscape:connector-curvature="0" />
    <path
       style="fill:#000000;fill-opacity:1;fill-rule:evenodd;stroke:#000000;stroke-width:2.26187301;stroke-linecap:round;stroke-linejoin:round;stroke-miterlimit:4;stroke-dasharray:none;stroke-dashoffset:0;stroke-opacity:1"
       d="m -912.74512,617.09838 c -0.73477,4.64108 -8.90805,7.20373 -18.25551,5.72386 -9.34747,-1.47989 -16.32945,-6.4419 -15.59468,-11.08298 0.73477,-4.64107 8.90804,-7.20372 18.25552,-5.72384 9.34746,1.47988 16.32944,6.44189 15.59467,11.08296 z"
       id="path3774-1"
       inkscape:connector-curvature="0" />
    <path
       style="fill:#ffffff;fill-opacity:1;fill-rule:evenodd;stroke:#000000;stroke-width:5;stroke-linecap:round;stroke-linejoin:round;stroke-miterlimit:4;stroke-dasharray:none;stroke-dashoffset:0;stroke-opacity:1"
       d="m -582.51045,612.64194 c 16.61781,-7.42916 51.97062,8.41751 59.12036,25.15745 7.15805,16.75936 20.90787,39.13127 24.66215,72.90944 2.01077,18.09145 -7.11106,28.83407 -23.72887,36.26323 -16.61781,7.42916 -19.60367,-4.54535 -37.69179,-6.58602 -9.64928,-1.08862 -29.29857,-34.20525 -38.94785,-65.76658 -5.32201,-17.40749 -0.0318,-54.54836 16.586,-61.97752 z"
       id="rect3794-7"
       inkscape:connector-curvature="0"
       sodipodi:nodetypes="sssssss" />
    <path
       style="fill:#000000;fill-opacity:1;fill-rule:evenodd;stroke:#000000;stroke-width:2.39479637;stroke-linecap:round;stroke-linejoin:round;stroke-miterlimit:4;stroke-dasharray:none;stroke-dashoffset:0;stroke-opacity:1"
       d="m -909.58381,524.7049 c 12.12391,4.40465 -8.66213,15.07421 -20.47332,15.07421 -11.81118,0 -19.56056,-4.19878 -22.29877,-15.07421 -3.26764,-12.97821 3.1857,-16.98294 14.99688,-16.98294 11.81119,0 2.2186,7.69814 27.77521,16.98294 z"
       id="path3834"
       inkscape:connector-curvature="0"
       sodipodi:nodetypes="sssss" />
    <path
       style="fill:#ffffff;fill-opacity:1;fill-rule:evenodd;stroke:#000000;stroke-width:6;stroke-linecap:round;stroke-linejoin:round;stroke-miterlimit:4;stroke-dasharray:none;stroke-dashoffset:0;stroke-opacity:1"
       d="m -801.07152,486.29303 c -6.62811,10.27719 4.12385,29.00813 24.01518,41.83674 19.89133,12.8286 41.38958,14.89694 48.01769,4.61975 6.62811,-10.27718 -4.12385,-29.00813 -24.01517,-41.83673 -19.89133,-12.82861 -41.38959,-14.89694 -48.0177,-4.61976 z"
       id="path3854-9"
       inkscape:connector-curvature="0" />
    <ellipse
       ry="5.3798227"
       rx="5.9590087"
       cy="527.7124"
       cx="-934.26434"
       style="fill:#ffffff;fill-opacity:1;fill-rule:evenodd;stroke:#000000;stroke-width:1.5853641;stroke-linecap:round;stroke-linejoin:round;stroke-miterlimit:4;stroke-dasharray:none;stroke-dashoffset:0;stroke-opacity:1"
       id="path3888" />
    <path
       style="fill:#000000;fill-opacity:1;fill-rule:evenodd;stroke:#000000;stroke-width:3;stroke-linecap:round;stroke-linejoin:round;stroke-miterlimit:4;stroke-dashoffset:0;stroke-opacity:1"
       d="m -415.69574,425.45213 c -10.72387,9.31041 -11.24076,26.27588 -1.15448,37.89342 10.08629,11.61755 27.84571,14.42289 37.68015,4.17743 21.79568,-22.70657 -12.08967,-40.07387 21.93492,-59.71857 -23.82554,-3.47292 -47.73669,8.3373 -58.46059,17.64772 z"
       id="path3930"
       inkscape:connector-curvature="0"
       sodipodi:nodetypes="ssscs"
       inkscape:transform-center-x="-2.0163942"
       inkscape:transform-center-y="14.147018" />
    <path
       style="fill:#ffffff;fill-opacity:1;stroke:#000000;stroke-width:5;stroke-linecap:butt;stroke-linejoin:miter;stroke-miterlimit:4;stroke-dasharray:none;stroke-opacity:1"
       d="m -1010.3595,405.45635 c -12.5601,59.60373 35.97858,85.08479 56.65418,88.2168 18.85087,10.41379 36.79059,-8.95135 33.8161,-17.31882 -13.95029,-22.70119 -62.52534,-12.94894 -90.47028,-70.89798 z"
       id="path3934"
       inkscape:connector-curvature="0"
       sodipodi:nodetypes="cccc" />
    <path
       style="fill:#000000;fill-opacity:1;fill-rule:evenodd;stroke:#000000;stroke-width:3;stroke-linecap:round;stroke-linejoin:round;stroke-miterlimit:4;stroke-dashoffset:0;stroke-opacity:1"
       d="m -883.17944,730.81306 c -2.88674,11.94309 2.08999,24.0926 11.7726,31.74973 3.99574,3.15989 13.3242,-2.44338 18.87537,-17.9893 -3.06839,13.54791 3.04003,26.07354 6.77051,25.79433 13.97976,-1.04634 26.01455,-10.12659 29.23357,-23.44443 4.07802,-16.87167 -7.53667,-34.15529 -25.94212,-38.60404 -18.40546,-4.44874 -36.63192,5.62204 -40.70993,22.49371 z"
       id="path3954-7"
       inkscape:connector-curvature="0"
       sodipodi:nodetypes="sscssss" />
    <path
       style="fill:#000000;fill-opacity:1;fill-rule:evenodd;stroke:#000000;stroke-width:3;stroke-linecap:round;stroke-linejoin:round;stroke-miterlimit:4;stroke-dashoffset:0;stroke-opacity:1"
       d="m -495.21766,723.68108 c 2.88674,11.94309 -2.08999,24.0926 -11.7726,31.74973 -3.99574,3.15989 -13.3242,-2.44338 -18.87537,-17.9893 3.06839,13.54791 -3.04003,26.07354 -6.77051,25.79433 -13.97976,-1.04634 -26.01455,-10.12659 -29.23357,-23.44443 -4.07802,-16.87167 7.53667,-34.15529 25.94212,-38.60404 18.40546,-4.44874 36.63192,5.62204 40.70993,22.49371 z"
       id="path3954-71"
       inkscape:connector-curvature="0"
       sodipodi:nodetypes="sscssss" />
    <ellipse
       ry="36.7939"
       rx="48.915733"
       cy="576.12592"
       cx="-723.86865"
       style="fill:#000000;fill-opacity:1;fill-rule:evenodd;stroke:#000000;stroke-width:2.14318466;stroke-linecap:round;stroke-linejoin:round;stroke-miterlimit:4;stroke-dasharray:none;stroke-dashoffset:0;stroke-opacity:1"
       id="path3990-2" />
    <path
       style="fill:#ffffff;fill-opacity:1;fill-rule:evenodd;stroke:#000000;stroke-width:5;stroke-linecap:round;stroke-linejoin:round;stroke-miterlimit:4;stroke-dasharray:none;stroke-dashoffset:0;stroke-opacity:1"
       d="m -749.36764,633.07046 c 16.61781,-7.42916 42.41152,1.85294 54.83466,15.15743 13.41786,14.36978 20.64399,32.53666 30.37643,84.33803 3.36114,17.88985 -8.53963,27.40549 -25.15745,34.83465 -16.61781,7.42916 -32.69571,8.13242 -43.40608,-6.58601 -14.59209,-20.05278 -37.06246,-62.47553 -37.51928,-80.05231 -0.45683,-17.57678 4.25391,-40.26263 20.87172,-47.69179 z"
       id="rect3794"
       inkscape:connector-curvature="0"
       sodipodi:nodetypes="ssssszs" />
    <path
       style="fill:#000000;fill-opacity:1;fill-rule:evenodd;stroke:#000000;stroke-width:3;stroke-linecap:round;stroke-linejoin:round;stroke-miterlimit:4;stroke-dashoffset:0;stroke-opacity:1"
       d="m -662.87011,745.64189 c 2.88674,11.94309 -2.08999,24.0926 -11.7726,31.74973 -3.99574,3.15989 -13.3242,-2.44338 -18.87537,-17.9893 3.06839,13.54791 -3.04003,26.07354 -6.77051,25.79433 -13.97976,-1.04634 -26.01455,-10.12659 -29.23357,-23.44443 -4.07802,-16.87167 7.53667,-34.15529 25.94212,-38.60404 18.40546,-4.44874 36.63192,5.62204 40.70993,22.49371 z"
       id="path3954"
       inkscape:connector-curvature="0"
       sodipodi:nodetypes="sscssss" />
    <path
       style="fill:#000000;fill-opacity:1;stroke:#000000;stroke-width:1px;stroke-linecap:butt;stroke-linejoin:miter;stroke-opacity:1"
       d="m -764.9803,652.65238 c -2.78762,23.68493 -7.93469,63.34677 55.55839,114.14723 -8.82311,7.39339 -19.39106,8.47853 -45.45686,-46.46701 -15.16278,-20.3484 -16.44621,-43.29917 -10.10153,-67.68022 z"
       id="path4046"
       inkscape:connector-curvature="0"
       sodipodi:nodetypes="cccc" />
    <path
       style="fill:#000000;fill-opacity:1;stroke:#000000;stroke-width:1px;stroke-linecap:butt;stroke-linejoin:miter;stroke-opacity:1"
       d="m -831.14529,724.87829 c 18.29339,-5.72827 22.74986,-15.54411 24.24366,-18.68783 l 10.10153,4.54569 -19.69798,33.33503 z"
       id="path4048"
       inkscape:connector-curvature="0"
       sodipodi:nodetypes="ccccc" />
    <path
       style="fill:#000000;fill-opacity:1;stroke:#000000;stroke-width:1px;stroke-linecap:butt;stroke-linejoin:miter;stroke-opacity:1"
       d="m -792.59976,531.06769 c 51.6205,99.33088 -89.1671,127.10442 -119.55823,134.83922 35.67407,-1.42557 100.57214,-18.91057 126.97464,-47.59972 8.13849,-7.45118 24.52302,-66.69139 -7.41641,-87.2395 z"
       id="path4050"
       inkscape:connector-curvature="0"
       sodipodi:nodetypes="cccc" />
    <path
       style="fill:#000000;fill-opacity:1;stroke:#000000;stroke-width:1px;stroke-linecap:butt;stroke-linejoin:miter;stroke-opacity:1"
       d="m -801.59833,490.52289 c 7.46723,35.70555 88.27431,56.54099 65.19291,19.21829 19.08124,22.11603 -2.31901,33.01749 -26.55457,25.7335 -23.23266,-10.57381 -36.47627,-31.26253 -38.63834,-44.95179 z"
       id="path4052"
       inkscape:connector-curvature="0"
       sodipodi:nodetypes="cccc" />
    <path
       style="fill:#000000;fill-opacity:1;stroke:#000000;stroke-width:1px;stroke-linecap:butt;stroke-linejoin:miter;stroke-opacity:1"
       d="m -964.73796,649.62192 c 28.9116,20.62402 59.98194,8.48143 68.85484,0.69265 8.8729,-7.78877 14.23189,-16.54908 13.97767,-35.29037 0.0902,9.30541 5.81726,23.80267 -25.75889,46.21447 -16.73444,6.56045 -34.35034,9.10531 -57.07362,-11.61675 z"
       id="path4054"
       inkscape:connector-curvature="0"
       sodipodi:nodetypes="czccc" />
    <path
       style="fill:#000000;fill-opacity:1;stroke:#000000;stroke-width:1px;stroke-linecap:butt;stroke-linejoin:miter;stroke-opacity:1"
       d="m -1035.1961,598.35667 c -5.4941,27.88463 17.3692,68.3073 68.9429,49.49748 -6.75143,16.86698 -40.5444,15.07177 -63.3871,-10.10152 -7.1622,-14.93482 -11.7273,-27.12789 -5.5558,-39.39596 z"
       id="path4056"
       inkscape:connector-curvature="0"
       sodipodi:nodetypes="cccc" />
    <g
       id="g5570">
      <path
         sodipodi:nodetypes="cccc"
         inkscape:connector-curvature="0"
         id="path3934-8"
         d="m -780.87849,398.38775 c 22.66153,43.94637 -11.73497,87.61017 -26.34965,92.25741 -18.85087,10.41379 -36.79059,-8.95135 -33.8161,-17.31882 11.42491,-16.64027 55.45427,-21.53523 60.16575,-74.93859 z"
         style="fill:#ffffff;fill-opacity:1;stroke:#000000;stroke-width:5;stroke-linecap:butt;stroke-linejoin:miter;stroke-miterlimit:4;stroke-dasharray:none;stroke-opacity:1" />
      <path
         sodipodi:nodetypes="cccc"
         inkscape:connector-curvature="0"
         id="path4058"
         d="m -779.08172,403.99261 c 9.11246,41.62155 -16.23904,74.4224 -42.00363,87.19708 l 15.67313,-2.20414 c 15.43009,-11.0073 40.33319,-39.45503 26.3305,-84.99294 z"
         style="fill:#000000;fill-opacity:1;stroke:#000000;stroke-width:1px;stroke-linecap:butt;stroke-linejoin:miter;stroke-opacity:1" />
    </g>
    <path
       style="fill:#000000;fill-opacity:1;stroke:#000000;stroke-width:1px;stroke-linecap:butt;stroke-linejoin:miter;stroke-opacity:1"
       d="m -1010.7106,404.94675 c -4.6541,22.03593 2.605,75.9991 57.26267,88.50309 l 16.0049,1.16334 c -51.5356,-14.58344 -73.31697,-64.00015 -73.26757,-89.66643 z"
       id="path4060"
       inkscape:connector-curvature="0"
       sodipodi:nodetypes="cccc" />
    <path
       sodipodi:nodetypes="sssss"
       inkscape:connector-curvature="0"
       id="path5542"
       d="m -855.8548,526.9648 c -14.23183,4.94487 10.16817,16.92302 24.0329,16.92302 13.86473,0 22.96145,-4.71375 26.17574,-16.92302 3.83577,-14.56995 -3.73958,-19.06585 -17.60431,-19.06585 -13.86473,0 -2.60433,8.6423 -32.60433,19.06585 z"
       style="fill:#000000;fill-opacity:1;fill-rule:evenodd;stroke:#000000;stroke-width:2.74915504;stroke-linecap:round;stroke-linejoin:round;stroke-miterlimit:4;stroke-dasharray:none;stroke-dashoffset:0;stroke-opacity:1" />
    <ellipse
       id="ellipse5544"
       style="fill:#ffffff;fill-opacity:1;fill-rule:evenodd;stroke:#000000;stroke-width:1.5853641;stroke-linecap:round;stroke-linejoin:round;stroke-miterlimit:4;stroke-dasharray:none;stroke-dashoffset:0;stroke-opacity:1"
       cx="844.13068"
       cy="531.28387"
       rx="5.9590087"
       ry="5.3798227"
       transform="scale(-1,1)" />
  </g>
</svg>
