<?xml version="1.0" encoding="UTF-8" standalone="no"?>
<!-- Created with Inkscape (http://www.inkscape.org/) -->

<svg
   xmlns:dc="http://purl.org/dc/elements/1.1/"
   xmlns:cc="http://creativecommons.org/ns#"
   xmlns:rdf="http://www.w3.org/1999/02/22-rdf-syntax-ns#"
   xmlns:svg="http://www.w3.org/2000/svg"
   xmlns="http://www.w3.org/2000/svg"
   xmlns:sodipodi="http://sodipodi.sourceforge.net/DTD/sodipodi-0.dtd"
   xmlns:inkscape="http://www.inkscape.org/namespaces/inkscape"
   width="210mm"
   height="297mm"
   id="svg2"
   version="1.1"
   inkscape:version="0.48.4 r9939"
   sodipodi:docname="Documento nuevo 1">
  <defs
     id="defs4" />
  <sodipodi:namedview
     id="base"
     pagecolor="#ffffff"
     bordercolor="#666666"
     borderopacity="1.0"
     inkscape:pageopacity="0.0"
     inkscape:pageshadow="2"
     inkscape:zoom="1.4"
     inkscape:cx="539.04913"
     inkscape:cy="738.70226"
     inkscape:document-units="px"
     inkscape:current-layer="layer1"
     showgrid="true"
     inkscape:snap-grids="false"
     inkscape:window-width="1366"
     inkscape:window-height="745"
     inkscape:window-x="-8"
     inkscape:window-y="-8"
     inkscape:window-maximized="1">
    <inkscape:grid
       type="xygrid"
       id="grid3034" />
  </sodipodi:namedview>
  <metadata
     id="metadata7">
    <rdf:RDF>
      <cc:Work
         rdf:about="">
        <dc:format>image/svg+xml</dc:format>
        <dc:type
           rdf:resource="http://purl.org/dc/dcmitype/StillImage" />
        <dc:title></dc:title>
      </cc:Work>
    </rdf:RDF>
  </metadata>
  <g
     inkscape:label="Capa 1"
     inkscape:groupmode="layer"
     id="layer1">
    <path
       style="fill:#008000;stroke:none"
       d="m 291.43982,432.84363 c 12.77291,-22.66016 13.77459,-57.09155 17.71653,-88.58268 1.94205,22.73038 3.36222,47.28734 0,88.58268 3.81789,-14.50328 7.77293,-10.90166 11.37725,-53.59604 3.46618,4.63524 4.97833,28.37651 6.33929,53.59604 3.37113,-25.11755 2.52029,-48.44779 9.88785,-79.74385 -1.90857,29.67824 1.25316,50.73541 7.82868,79.74385 1.35595,-12.5102 1.74377,-25.7949 6.46654,-35.61165 0.7864,28.51228 7.48933,23.801 11.25,35.61165 1.20951,-20.8597 -2.19083,-41.54795 10.39292,-69.09838 -6.49986,46.27957 4.68533,46.57799 7.32361,69.09838 3.91328,-10.15437 7.19235,-23.79688 7.10994,-55.92753 1.97879,28.50188 6.79256,39.04888 10.6066,55.92753 11.1702,-17.87004 6.34922,-47.37445 8.12009,-86.0573 2.22445,43.13985 8.20205,48.48199 9.59645,86.0573 z"
       id="path3036"
       inkscape:connector-curvature="0"
       sodipodi:nodetypes="cccccccccccccccc" />
    <path
       style="fill:none;stroke:#000000;stroke-width:5;stroke-linecap:butt;stroke-linejoin:miter;stroke-miterlimit:4;stroke-opacity:1;stroke-dasharray:none"
       d="M 1041.6805,139.37761 C 987.47899,272.65751 913.51354,97.218904 856.69523,253.9525 l -9.83489,-11.81765 C 903.67865,85.401254 977.6441,260.83986 1031.8456,127.55996 z"
       id="path3910-8"
       inkscape:connector-curvature="0"
       sodipodi:nodetypes="ccccc" />
    <path
       style="fill:#ffffff;fill-opacity:1;fill-rule:evenodd;stroke:#000000;stroke-width:5;stroke-linecap:round;stroke-linejoin:round;stroke-miterlimit:4;stroke-opacity:1;stroke-dasharray:none;stroke-dashoffset:0"
       d="m 612.64322,293.78568 c -16.61781,-7.42917 -45.66222,-1.91479 -51.97752,15.15743 -8.61436,23.28729 -25.17456,43.98828 -30.37643,84.33803 -2.32744,18.05345 5.68249,27.40549 22.30031,34.83465 16.6178,7.42915 28.82132,3.13694 41.97751,-9.44315 12.50643,-11.95879 26.44142,-49.39267 38.94784,-71.48089 8.96868,-15.84003 -4.25391,-45.97692 -20.87171,-53.40607 z"
       id="rect3794-4"
       inkscape:connector-curvature="0"
       sodipodi:nodetypes="sssssss" />
    <path
       style="fill:#ffffff;fill-opacity:1;fill-rule:evenodd;stroke:#000000;stroke-width:5;stroke-linecap:round;stroke-linejoin:round;stroke-miterlimit:4;stroke-opacity:1;stroke-dasharray:none;stroke-dashoffset:0"
       d="m 854.31104,385.23651 c 0,20.18697 -21.48154,36.55176 -47.98034,36.55176 -26.4988,0 -47.98033,-16.36479 -47.98033,-36.55176 0,-20.18698 21.48153,-36.55176 47.98033,-36.55176 26.4988,0 47.98034,16.36478 47.98034,36.55176 z"
       id="path3814"
       inkscape:connector-curvature="0" />
    <path
       style="fill:#ffffff;fill-opacity:1;fill-rule:evenodd;stroke:#000000;stroke-width:5;stroke-miterlimit:4;stroke-opacity:1;stroke-dasharray:none"
       d="m 908.32324,262.37932 c 0,78.8937 -87.30114,142.84969 -194.99255,142.84969 -107.69139,0 -194.99252,-63.95599 -194.99252,-142.84969 0,-78.89369 87.30113,-142.84968 194.99252,-142.84968 107.69141,0 194.99255,63.95599 194.99255,142.84968 z"
       id="path2985"
       inkscape:connector-curvature="0" />
    <path
       style="fill:#000000;fill-opacity:1;stroke:#000000;stroke-width:1px;stroke-linecap:butt;stroke-linejoin:miter;stroke-opacity:1"
       d="m 532.91635,312.29181 c 157.03128,169.1905 334.53097,54.14381 372.24121,-27.7792 -32.50097,88.52579 -86.25941,99.59788 -135.36045,114.14724 -28.63625,5.5167 -185.93354,21.9367 -236.88076,-86.36804 z"
       id="path4062"
       inkscape:connector-curvature="0"
       sodipodi:nodetypes="cccc" />
    <path
       sodipodi:type="arc"
       style="fill:#000000;fill-opacity:1;fill-rule:evenodd;stroke:#000000;stroke-width:3;stroke-linecap:round;stroke-linejoin:round;stroke-miterlimit:4;stroke-opacity:1;stroke-dasharray:none;stroke-dashoffset:0"
       id="path3990-2-6"
       sodipodi:cx="479.82245"
       sodipodi:cy="332.12341"
       sodipodi:rx="64.649765"
       sodipodi:ry="54.548237"
       d="m 544.47221,332.12341 a 64.649765,54.548237 0 1 1 -129.29953,0 64.649765,54.548237 0 1 1 129.29953,0 z"
       transform="matrix(1.0151343,0,0,1.0271962,363.2408,-30.077317)" />
    <path
       style="fill:#ffffff;fill-opacity:1;fill-rule:evenodd;stroke:#000000;stroke-width:5;stroke-linecap:round;stroke-linejoin:round;stroke-miterlimit:4;stroke-opacity:1;stroke-dasharray:none;stroke-dashoffset:0"
       d="m 856.01819,306.92858 c 16.61782,-7.42916 51.97063,8.41751 59.12037,25.15745 7.15805,16.75936 20.90787,39.13127 24.66215,72.90944 2.01077,18.09145 -7.11106,28.83407 -23.72887,36.26323 -16.61781,7.42916 -19.60367,-4.54535 -37.69179,-6.58602 -9.64928,-1.08862 -29.29858,-34.20525 -38.94786,-65.76658 -5.32201,-17.40749 -0.0318,-54.54836 16.586,-61.97752 z"
       id="rect3794-7"
       inkscape:connector-curvature="0"
       sodipodi:nodetypes="sssssss" />
    <path
       style="fill:#000000;fill-opacity:1;fill-rule:evenodd;stroke:#000000;stroke-width:3;stroke-linecap:round;stroke-linejoin:round;stroke-miterlimit:4;stroke-opacity:1;stroke-dashoffset:0"
       d="m 1054.9021,143.80792 c 0,14.2016 -12.472,25.71428 -27.8571,25.71428 -15.3851,0 -29.1463,-11.57131 -27.85713,-25.71428 2.85713,-31.34448 38.18633,-17.14286 30.71423,-55.714286 18.2423,15.714276 25,41.512666 25,55.714286 z"
       id="path3930"
       inkscape:connector-curvature="0"
       sodipodi:nodetypes="ssscs" />
    <path
       style="fill:#000000;fill-opacity:1;fill-rule:evenodd;stroke:#000000;stroke-width:3;stroke-linecap:round;stroke-linejoin:round;stroke-miterlimit:4;stroke-opacity:1;stroke-dashoffset:0"
       d="m 527.34921,405.0997 c -2.88674,11.94309 2.08999,24.0926 11.7726,31.74973 3.99574,3.15989 13.3242,-2.44338 18.87537,-17.9893 -3.06839,13.54791 3.04003,26.07354 6.77051,25.79433 13.97976,-1.04634 26.01455,-10.12659 29.23357,-23.44443 4.07802,-16.87167 -7.53667,-34.15529 -25.94212,-38.60404 -18.40546,-4.44874 -36.63192,5.62204 -40.70993,22.49371 z"
       id="path3954-7"
       inkscape:connector-curvature="0"
       sodipodi:nodetypes="sscssss" />
    <path
       style="fill:#000000;fill-opacity:1;fill-rule:evenodd;stroke:#000000;stroke-width:3;stroke-linecap:round;stroke-linejoin:round;stroke-miterlimit:4;stroke-opacity:1;stroke-dashoffset:0"
       d="m 943.31099,417.96772 c 2.88674,11.94309 -2.08999,24.0926 -11.7726,31.74973 -3.99574,3.15989 -13.3242,-2.44338 -18.87537,-17.9893 3.06839,13.54791 -3.04003,26.07354 -6.77051,25.79433 -13.97976,-1.04634 -26.01455,-10.12659 -29.23357,-23.44443 -4.07802,-16.87167 7.53667,-34.15529 25.94212,-38.60404 18.40546,-4.44874 36.63192,5.62204 40.70993,22.49371 z"
       id="path3954-71"
       inkscape:connector-curvature="0"
       sodipodi:nodetypes="sscssss" />
    <path
       sodipodi:type="arc"
       style="fill:#000000;fill-opacity:1;fill-rule:evenodd;stroke:#000000;stroke-width:3;stroke-linecap:round;stroke-linejoin:round;stroke-miterlimit:4;stroke-opacity:1;stroke-dasharray:none;stroke-dashoffset:0"
       id="path3990"
       sodipodi:cx="479.82245"
       sodipodi:cy="332.12341"
       sodipodi:rx="64.649765"
       sodipodi:ry="54.548237"
       d="m 544.47221,332.12341 a 64.649765,54.548237 0 1 1 -129.29953,0 64.649765,54.548237 0 1 1 129.29953,0 z"
       transform="translate(300.80206,-128.62606)" />
    <path
       sodipodi:type="arc"
       style="fill:#000000;fill-opacity:1;fill-rule:evenodd;stroke:#000000;stroke-width:3;stroke-linecap:round;stroke-linejoin:round;stroke-miterlimit:4;stroke-opacity:1;stroke-dasharray:none;stroke-dashoffset:0"
       id="path3990-2"
       sodipodi:cx="479.82245"
       sodipodi:cy="332.12341"
       sodipodi:rx="64.649765"
       sodipodi:ry="54.548237"
       d="m 544.47221,332.12341 a 64.649765,54.548237 0 1 1 -129.29953,0 64.649765,54.548237 0 1 1 129.29953,0 z"
       transform="matrix(0.7566266,0,0,0.6745204,392.0197,88.814914)" />
    <path
       style="fill:#ffffff;fill-opacity:1;fill-rule:evenodd;stroke:#000000;stroke-width:5;stroke-linecap:round;stroke-linejoin:round;stroke-miterlimit:4;stroke-opacity:1;stroke-dasharray:none;stroke-dashoffset:0"
       d="m 653.161,295.3571 c 16.61781,-7.42916 42.41152,1.85294 54.83466,15.15743 13.41786,14.36978 20.64399,32.53666 30.37643,84.33803 3.36114,17.88985 -8.53963,27.40549 -25.15745,34.83465 -16.61781,7.42916 -32.69571,8.13242 -43.40608,-6.58601 -14.59209,-20.05278 -37.06246,-62.47553 -37.51928,-80.05231 -0.45683,-17.57678 4.25391,-40.26263 20.87172,-47.69179 z"
       id="rect3794"
       inkscape:connector-curvature="0"
       sodipodi:nodetypes="ssssszs" />
    <path
       style="fill:#000000;fill-opacity:1;fill-rule:evenodd;stroke:#000000;stroke-width:3;stroke-linecap:round;stroke-linejoin:round;stroke-miterlimit:4;stroke-opacity:1;stroke-dashoffset:0"
       d="m 739.65853,407.92853 c 2.88674,11.94309 -2.08999,24.0926 -11.7726,31.74973 -3.99574,3.15989 -13.3242,-2.44338 -18.87537,-17.9893 3.06839,13.54791 -3.04003,26.07354 -6.77051,25.79433 -13.97976,-1.04634 -26.01455,-10.12659 -29.23357,-23.44443 -4.07802,-16.87167 7.53667,-34.15529 25.94212,-38.60404 18.40546,-4.44874 36.63192,5.62204 40.70993,22.49371 z"
       id="path3954"
       inkscape:connector-curvature="0"
       sodipodi:nodetypes="sscssss" />
    <path
       style="fill:#000000;fill-opacity:1;stroke:#000000;stroke-width:1px;stroke-linecap:butt;stroke-linejoin:miter;stroke-opacity:1"
       d="m 637.54834,314.93902 c -2.78762,23.68493 -7.93469,63.34677 55.55839,114.14723 -8.82311,7.39339 -19.39106,8.47853 -45.45686,-46.46701 -15.16278,-20.3484 -16.44621,-43.29917 -10.10153,-67.68022 z"
       id="path4046"
       inkscape:connector-curvature="0"
       sodipodi:nodetypes="cccc" />
    <path
       style="fill:#000000;fill-opacity:1;stroke:#000000;stroke-width:1px;stroke-linecap:butt;stroke-linejoin:miter;stroke-opacity:1"
       d="m 579.38336,399.16493 c 18.29339,-5.72827 22.74986,-15.54411 24.24366,-18.68783 l 10.10153,4.54569 -19.69798,33.33503 z"
       id="path4048"
       inkscape:connector-curvature="0"
       sodipodi:nodetypes="ccccc" />
    <path
       style="fill:#ffffff;fill-opacity:1;fill-rule:evenodd;stroke:#000000;stroke-width:3;stroke-linecap:butt;stroke-linejoin:round;stroke-miterlimit:4;stroke-opacity:1;stroke-dashoffset:0"
       d="m -460.5034,204.75688 c -63.32073,0 -114.65625,27.81465 -114.65625,62.125 0,34.31035 51.33552,62.125 114.65625,62.125 26.47767,25.82205 55.12895,39.57265 81.79916,45.73829 -37.25986,-16.20223 -45.90277,-42.57229 -49.86496,-48.11182 48.81441,-7.12932 84.75,-31.2659 84.75,-59.96875 0,-34.31035 -53.36348,-61.90772 -116.6842,-61.90772 z"
       id="path4081"
       inkscape:connector-curvature="0"
       sodipodi:nodetypes="sscccss" />
    <text
       xml:space="preserve"
       style="font-size:19.8599453px;font-style:normal;font-variant:normal;font-weight:normal;font-stretch:normal;line-height:125%;letter-spacing:0px;word-spacing:0px;fill:#000000;fill-opacity:1;stroke:none;font-family:Arial;-inkscape-font-specification:Arial"
       x="169.87248"
       y="472.64523"
       id="text4595"
       sodipodi:linespacing="125%"
       transform="matrix(0.85212851,-0.44577053,0.48200039,0.921385,0,0)"
       inkscape:transform-center-x="22.784155"
       inkscape:transform-center-y="10.714286"><tspan
         sodipodi:role="line"
         id="tspan4597"
         x="169.87248"
         y="472.64523"
         style="font-style:normal;font-variant:normal;font-weight:bold;font-stretch:normal;font-family:Arial Rounded MT Bold;-inkscape-font-specification:Arial Rounded MT Bold">ÑAM</tspan></text>
    <path
       style="fill:#ffffff;fill-opacity:1;fill-rule:evenodd;stroke:#000000;stroke-width:6;stroke-linecap:round;stroke-linejoin:round;stroke-miterlimit:4;stroke-opacity:1;stroke-dasharray:none;stroke-dashoffset:0"
       d="m 459.82616,237.33185 c 9.73412,7.40264 6.01026,28.67671 -8.31746,47.51695 -14.32772,18.84022 -33.83369,28.11222 -43.56781,20.70955 -9.73411,-7.40265 -6.01027,-28.67671 8.31744,-47.51694 14.32773,-18.84024 33.83371,-28.11223 43.56783,-20.70956 z"
       id="path3854"
       inkscape:connector-curvature="0" />
    <path
       style="fill:#008000;stroke:none"
       d="m 495.13498,435.08209 c 12.77291,-22.66016 13.77459,-57.09155 17.71653,-88.58268 1.94205,22.73038 3.36222,47.28734 0,88.58268 3.81789,-14.50328 7.77293,-10.90166 11.37725,-53.59604 3.46618,4.63524 4.97833,28.37651 6.33929,53.59604 3.37113,-25.11755 2.52029,-48.44779 9.88785,-79.74385 -1.90857,29.67824 1.25316,50.73541 7.82868,79.74385 1.35595,-12.5102 1.74377,-25.7949 6.46654,-35.61165 0.7864,28.51228 7.48933,23.801 11.25,35.61165 1.20951,-20.8597 -2.19083,-41.54795 10.39292,-69.09838 -6.49986,46.27957 4.68533,46.57799 7.32361,69.09838 3.91328,-10.15437 7.19235,-23.79688 7.10994,-55.92753 1.97879,28.50188 6.79256,39.04888 10.6066,55.92753 11.1702,-17.87004 6.34922,-47.37445 8.12009,-86.0573 2.22445,43.13985 8.20205,48.48199 9.59645,86.0573 z"
       id="path3036-1-7"
       inkscape:connector-curvature="0"
       sodipodi:nodetypes="cccccccccccccccc" />
    <path
       style="fill:#ffffff;fill-opacity:1;fill-rule:evenodd;stroke:#000000;stroke-width:5.15722752;stroke-miterlimit:4;stroke-opacity:1;stroke-dasharray:none"
       d="m 509.65821,192.25819 c -36.62757,13.57267 -55.71084,33.67711 -61.52406,55.83655 -3.82854,14.59405 1.19873,24.74971 17.01031,28.60964 -15.6178,25.88731 -43.87802,65.78138 -37.44772,84.62525 24.1738,70.84098 113.94073,60.97135 175.7273,24.87851 48.42311,-28.28652 63.21009,-66.0774 47.48316,-124.11513 -7.67713,-22.22241 -15.11624,-26.26013 -36.67661,-41.29094 -0.13503,-3.80676 -2.14076,-18.43544 -5.06639,-21.33581 -21.5484,-21.3623 -43.08546,-24.65207 -87.55318,-11.22122 -4.16885,1.25915 -8.16375,2.60908 -11.95281,4.01315 z"
       id="path2987"
       inkscape:connector-curvature="0"
       sodipodi:nodetypes="sscssccsss" />
    <path
       style="fill:#ffffff;fill-opacity:1;fill-rule:evenodd;stroke:#000000;stroke-width:4.22781372;stroke-linecap:round;stroke-linejoin:round;stroke-miterlimit:4;stroke-opacity:1;stroke-dasharray:none;stroke-dashoffset:0"
       d="m 564.24391,342.05969 c 5.70134,29.51829 -31.03432,68.62196 -72.70938,47.60604 -26.8458,37.26932 -77.53742,13.48799 -83.23876,-16.03029 -5.70135,-29.51828 26.43815,-67.83975 64.59551,-53.33412 42.11066,-32.92582 85.65128,-7.75989 91.35263,21.75837 z"
       id="path3757"
       inkscape:connector-curvature="0"
       sodipodi:nodetypes="scscs" />
    <path
       style="fill:#000000;fill-opacity:1;fill-rule:evenodd;stroke:#000000;stroke-width:2.26187301;stroke-linecap:round;stroke-linejoin:round;stroke-miterlimit:4;stroke-opacity:1;stroke-dasharray:none;stroke-dashoffset:0"
       d="m 464.33862,355.99615 c 0.8911,4.61361 -5.91929,9.8086 -15.21145,11.60334 -9.29216,1.79475 -17.54732,-0.49039 -18.43843,-5.10401 -0.89109,-4.61359 5.91931,-9.8086 15.21147,-11.60334 9.29216,-1.79475 17.54731,0.4904 18.43841,5.10401 z"
       id="path3774"
       inkscape:connector-curvature="0" />
    <path
       style="fill:#000000;fill-opacity:1;fill-rule:evenodd;stroke:#000000;stroke-width:2.26187301;stroke-linecap:round;stroke-linejoin:round;stroke-miterlimit:4;stroke-opacity:1;stroke-dasharray:none;stroke-dashoffset:0"
       d="m 529.99331,341.15228 c 0.8911,4.61361 -5.91931,9.80861 -15.21145,11.60336 -9.29216,1.79473 -17.54732,-0.49041 -18.43843,-5.10402 -0.89109,-4.61361 5.91931,-9.8086 15.21147,-11.60335 9.29215,-1.79474 17.54731,0.4904 18.43841,5.10401 z"
       id="path3774-1"
       inkscape:connector-curvature="0" />
    <path
       style="fill:#000000;fill-opacity:1;fill-rule:evenodd;stroke:#000000;stroke-width:2.74915504;stroke-linecap:round;stroke-linejoin:round;stroke-miterlimit:4;stroke-opacity:1;stroke-dasharray:none;stroke-dashoffset:0"
       d="m 508.07667,248.66502 c 5.13526,14.16424 -1.26836,29.47756 -14.30288,34.20324 -13.03452,4.72568 -27.76404,-2.92579 -32.8993,-17.09004 -5.13526,-14.16424 1.26835,-29.47754 14.30287,-34.20322 13.03451,-4.72568 27.76404,2.92577 32.89931,17.09002 z"
       id="path3834"
       inkscape:connector-curvature="0" />
    <path
       style="fill:#000000;fill-opacity:1;fill-rule:evenodd;stroke:#000000;stroke-width:3;stroke-linecap:round;stroke-linejoin:round;stroke-miterlimit:4;stroke-opacity:1;stroke-dasharray:none;stroke-dashoffset:0"
       d="m 600.6418,225.10268 c 5.51503,15.21173 -1.73053,31.79106 -16.18339,37.03096 -14.45287,5.2399 -30.64006,-2.84386 -36.15509,-18.05559 -5.51502,-15.21172 1.73053,-31.79104 16.1834,-37.03094 14.45286,-5.2399 30.64005,2.84384 36.15508,18.05557 z"
       id="path3834-0"
       inkscape:connector-curvature="0" />
    <path
       style="fill:#ffffff;fill-opacity:1;fill-rule:evenodd;stroke:#000000;stroke-width:6;stroke-linecap:round;stroke-linejoin:round;stroke-miterlimit:4;stroke-opacity:1;stroke-dasharray:none;stroke-dashoffset:0"
       d="m 590.39603,180.11643 c -2.72833,11.92093 13.7641,25.86556 36.83687,31.14621 23.07277,5.28063 43.9887,-0.10238 46.71702,-12.02332 2.72833,-11.92092 -13.7641,-25.86556 -36.83686,-31.1462 -23.07278,-5.28064 -43.9887,0.10238 -46.71703,12.02331 z"
       id="path3854-9"
       inkscape:connector-curvature="0" />
    <path
       sodipodi:type="arc"
       style="fill:#ffffff;fill-opacity:1;fill-rule:evenodd;stroke:#000000;stroke-width:3;stroke-linecap:round;stroke-linejoin:round;stroke-miterlimit:4;stroke-opacity:1;stroke-dasharray:none;stroke-dashoffset:0"
       id="path3888"
       sodipodi:cx="86.428574"
       sodipodi:cy="263.07648"
       sodipodi:rx="10.714286"
       sodipodi:ry="10.714286"
       d="m 97.142859,263.07648 a 10.714286,10.714286 0 1 1 -21.428571,0 10.714286,10.714286 0 1 1 21.428571,0 z"
       transform="matrix(0.84786088,-0.30739295,0.31737144,0.87538385,315.42402,50.575674)" />
    <path
       sodipodi:type="arc"
       style="fill:#ffffff;fill-opacity:1;fill-rule:evenodd;stroke:#000000;stroke-width:3;stroke-linecap:round;stroke-linejoin:round;stroke-miterlimit:4;stroke-opacity:1;stroke-dasharray:none;stroke-dashoffset:0"
       id="path3888-4"
       sodipodi:cx="86.428574"
       sodipodi:cy="263.07648"
       sodipodi:rx="10.714286"
       sodipodi:ry="10.714286"
       d="m 97.142859,263.07648 a 10.714286,10.714286 0 1 1 -21.428571,0 10.714286,10.714286 0 1 1 21.428571,0 z"
       transform="matrix(0.94012065,-0.34084184,0.34084184,0.94012065,392.52018,15.27025)" />
    <path
       style="fill:#ffffff;fill-opacity:1;stroke:#000000;stroke-width:5;stroke-linecap:butt;stroke-linejoin:miter;stroke-miterlimit:4;stroke-opacity:1;stroke-dasharray:none"
       d="m 426.0489,195.62045 c -0.13032,23.15386 8.95857,36.21778 23.3684,43.45817 21.27154,3.36505 31.5366,-20.95512 25.88823,-27.80772 -17.93157,-2.6031 -31.25058,-3.51826 -49.25663,-15.65045 z"
       id="path3934"
       inkscape:connector-curvature="0"
       sodipodi:nodetypes="cccc" />
    <path
       style="fill:#ffffff;fill-opacity:1;stroke:#000000;stroke-width:5;stroke-linecap:butt;stroke-linejoin:miter;stroke-miterlimit:4;stroke-opacity:1;stroke-dasharray:none"
       d="m 576.17947,137.96958 c 14.93854,17.69064 16.33363,33.54395 9.91198,48.33681 -14.17263,16.21538 -37.63859,4.12442 -37.69419,-4.75584 12.09701,-13.48999 21.7349,-22.7282 27.78221,-43.58097 z"
       id="path3934-8"
       inkscape:connector-curvature="0"
       sodipodi:nodetypes="cccc" />
    <path
       style="fill:#000000;fill-opacity:1;stroke:#000000;stroke-width:1px;stroke-linecap:butt;stroke-linejoin:miter;stroke-opacity:1"
       d="m 613.62158,219.32248 c 80.3653,107.10332 -1.53448,157.56662 -39.95677,178.51681 44.44802,-17.63105 75.80016,-44.1214 81.24678,-85.64758 5.11148,-9.77894 -4.25944,-84.43782 -41.29001,-92.86923 z"
       id="path4050"
       inkscape:connector-curvature="0"
       sodipodi:nodetypes="cccc" />
    <path
       style="fill:#000000;fill-opacity:1;stroke:#000000;stroke-width:1px;stroke-linecap:butt;stroke-linejoin:miter;stroke-opacity:1"
       d="m 591.34248,184.27257 c 19.19004,31.02238 102.26003,23.06777 67.83959,-4.15296 25.47673,14.28805 9.07359,31.83084 -16.19345,33.2435 -25.44549,-2.02199 -44.94766,-16.95791 -51.64614,-29.09054 z"
       id="path4052"
       inkscape:connector-curvature="0"
       sodipodi:nodetypes="cccc" />
    <path
       style="fill:#000000;fill-opacity:1;stroke:#000000;stroke-width:1px;stroke-linecap:butt;stroke-linejoin:miter;stroke-opacity:1"
       d="m 492.19915,389.44966 c 34.20992,9.53479 59.28109,-12.47079 64.96794,-22.81743 5.68686,-10.34664 7.73908,-20.40896 1.11226,-37.94138 3.25647,8.71746 13.58187,20.39461 -8.46464,52.22688 -13.49631,11.87141 -29.18999,20.26812 -57.61556,8.53193 z"
       id="path4054"
       inkscape:connector-curvature="0"
       sodipodi:nodetypes="czccc" />
    <path
       style="fill:#000000;fill-opacity:1;stroke:#000000;stroke-width:1px;stroke-linecap:butt;stroke-linejoin:miter;stroke-opacity:1"
       d="m 408.48665,365.26922 c 4.33913,28.08754 39.87356,58.41971 81.94787,23.15774 -0.59819,18.15817 -33.24198,27.86577 -63.29691,11.98556 -11.82377,-11.59935 -20.27148,-21.50631 -18.65096,-35.1433 z"
       id="path4056"
       inkscape:connector-curvature="0"
       sodipodi:nodetypes="cccc" />
    <path
       style="fill:#000000;fill-opacity:1;stroke:#000000;stroke-width:1px;stroke-linecap:butt;stroke-linejoin:miter;stroke-opacity:1"
       d="m 575.20852,138.91099 c 11.84902,22.24756 11.99133,37.74514 4.55821,51.34214 l 7.46624,-6.12592 c 3.89297,-15.26878 -0.70732,-29.89218 -12.02445,-45.21622 z"
       id="path4058"
       inkscape:connector-curvature="0"
       sodipodi:nodetypes="cccc" />
    <path
       style="fill:#000000;fill-opacity:1;stroke:#000000;stroke-width:1px;stroke-linecap:butt;stroke-linejoin:miter;stroke-opacity:1"
       d="m 426.96964,194.74457 c 1.32493,20.27289 5.94473,38.391 22.61352,44.03638 l 12.16085,-1.55975 c -14.57863,-1.63087 -33.23677,-17.34477 -34.77437,-42.47663 z"
       id="path4060"
       inkscape:connector-curvature="0"
       sodipodi:nodetypes="cccc" />
    <rect
       style="fill:none;stroke:#000000;stroke-width:1;stroke-linecap:butt;stroke-linejoin:round;stroke-miterlimit:4;stroke-opacity:1;stroke-dasharray:none;stroke-dashoffset:0"
       id="rect4601"
       width="512.1347"
       height="297.995"
       x="289.81216"
       y="131.66806"
       inkscape:export-filename="C:\Users\Sebastián\Dropbox\Personal\Proyectos\Electrón IPM\web\originales\vaca-come.png"
       inkscape:export-xdpi="720"
       inkscape:export-ydpi="720" />
    <path
       style="fill:#008000;stroke:none"
       d="m 407.99212,433.79638 c 12.77291,-22.66016 13.77459,-57.09155 17.71653,-88.58268 1.94205,22.73038 3.36222,47.28734 0,88.58268 3.81789,-14.50328 7.77293,-10.90166 11.37725,-53.59604 3.46618,4.63524 4.97833,28.37651 6.33929,53.59604 3.37113,-25.11755 2.52029,-48.44779 9.88785,-79.74385 -1.90857,29.67824 1.25316,50.73541 7.82868,79.74385 1.35595,-12.5102 1.74377,-25.7949 6.46654,-35.61165 0.7864,28.51228 7.48933,23.801 11.25,35.61165 1.20951,-20.8597 -2.19083,-41.54795 10.39292,-69.09838 -6.49986,46.27957 4.68533,46.57799 7.32361,69.09838 3.91328,-10.15437 7.19235,-23.79688 7.10994,-55.92753 1.97879,28.50188 6.79256,39.04888 10.6066,55.92753 11.1702,-17.87004 6.34922,-47.37445 8.12009,-86.0573 2.22445,43.13985 8.20205,48.48199 9.59645,86.0573 z"
       id="path3036-1"
       inkscape:connector-curvature="0"
       sodipodi:nodetypes="cccccccccccccccc" />
    <path
       style="fill:#000000;fill-opacity:1;stroke:#000000;stroke-width:1.2360034px;stroke-linecap:butt;stroke-linejoin:miter;stroke-opacity:1"
       d="m 577.01593,304.30759 c -5.88913,32.74215 -7.0949,44.02256 24.07207,57.78859 -40.55786,-9.5879 -37.86905,-31.67088 -24.07207,-57.78859 z"
       id="path4272"
       inkscape:connector-curvature="0"
       sodipodi:nodetypes="ccc" />
    <path
       style="fill:#008000;stroke:none"
       d="m 565.84927,431.65352 c 12.77291,-22.66016 13.77459,-57.09155 17.71653,-88.58268 1.94205,22.73038 3.36222,47.28734 0,88.58268 3.81789,-14.50328 7.77293,-10.90166 11.37725,-53.59604 3.46618,4.63524 4.97833,28.37651 6.33929,53.59604 3.37113,-25.11755 2.52029,-48.44779 9.88785,-79.74385 -1.90857,29.67824 1.25316,50.73541 7.82868,79.74385 1.35595,-12.5102 1.74377,-25.7949 6.46654,-35.61165 0.7864,28.51228 7.48933,23.801 11.25,35.61165 1.20951,-20.8597 -2.19083,-41.54795 10.39292,-69.09838 -6.49986,46.27957 4.68533,46.57799 7.32361,69.09838 3.91328,-10.15437 7.19235,-23.79688 7.10994,-55.92753 1.97879,28.50188 6.79256,39.04888 10.6066,55.92753 11.1702,-17.87004 6.34922,-47.37445 8.12009,-86.0573 2.22445,43.13985 8.20205,48.48199 9.59645,86.0573 z"
       id="path3036-1-7-4"
       inkscape:connector-curvature="0"
       sodipodi:nodetypes="cccccccccccccccc" />
    <text
       xml:space="preserve"
       style="font-size:19.8599453px;font-style:normal;font-variant:normal;font-weight:normal;font-stretch:normal;line-height:125%;letter-spacing:0px;word-spacing:0px;fill:#000000;fill-opacity:1;stroke:none;font-family:Arial;-inkscape-font-specification:Arial"
       x="-49.154358"
       y="475.65842"
       id="text4595-0"
       sodipodi:linespacing="125%"
       transform="matrix(0.6455049,-0.71285188,0.77078869,0.69796812,0,0)"><tspan
         sodipodi:role="line"
         id="tspan4597-9"
         x="-49.154358"
         y="475.65842"
         style="font-style:normal;font-variant:normal;font-weight:bold;font-stretch:normal;font-family:Arial Rounded MT Bold;-inkscape-font-specification:Arial Rounded MT Bold">ÑAM</tspan></text>
    <text
       xml:space="preserve"
       style="font-size:19.8599453px;font-style:normal;font-variant:normal;font-weight:normal;font-stretch:normal;line-height:125%;letter-spacing:0px;word-spacing:0px;fill:#000000;fill-opacity:1;stroke:none;font-family:Arial;-inkscape-font-specification:Arial"
       x="445.95026"
       y="138.31142"
       id="text4595-4"
       sodipodi:linespacing="125%"
       transform="matrix(0.89302803,0.35684072,-0.38584284,0.96560862,0,0)"
       inkscape:transform-center-x="22.384073"
       inkscape:transform-center-y="-11.432082"><tspan
         sodipodi:role="line"
         id="tspan4597-8"
         x="445.95026"
         y="138.31142"
         style="font-style:normal;font-variant:normal;font-weight:bold;font-stretch:normal;font-family:Arial Rounded MT Bold;-inkscape-font-specification:Arial Rounded MT Bold">ÑAM</tspan></text>
  </g>
</svg>
