<?xml version="1.0" encoding="UTF-8" standalone="no"?>
<!-- Created with Inkscape (http://www.inkscape.org/) -->

<svg
   xmlns:dc="http://purl.org/dc/elements/1.1/"
   xmlns:cc="http://creativecommons.org/ns#"
   xmlns:rdf="http://www.w3.org/1999/02/22-rdf-syntax-ns#"
   xmlns:svg="http://www.w3.org/2000/svg"
   xmlns="http://www.w3.org/2000/svg"
   xmlns:sodipodi="http://sodipodi.sourceforge.net/DTD/sodipodi-0.dtd"
   xmlns:inkscape="http://www.inkscape.org/namespaces/inkscape"
   width="210mm"
   height="297mm"
   id="svg3910"
   version="1.1"
   inkscape:version="0.48.4 r9939"
   sodipodi:docname="Documento nuevo 4">
  <defs
     id="defs3912" />
  <sodipodi:namedview
     id="base"
     pagecolor="#ffffff"
     bordercolor="#666666"
     borderopacity="1.0"
     inkscape:pageopacity="0.0"
     inkscape:pageshadow="2"
     inkscape:zoom="1.2203821"
     inkscape:cx="222.64822"
     inkscape:cy="452.60187"
     inkscape:document-units="px"
     inkscape:current-layer="layer1"
     showgrid="false"
     showguides="true"
     inkscape:guide-bbox="true"
     inkscape:window-width="1366"
     inkscape:window-height="745"
     inkscape:window-x="-8"
     inkscape:window-y="-8"
     inkscape:window-maximized="1">
    <sodipodi:guide
       orientation="1,0"
       position="44.248438,578.50736"
       id="guide3995" />
    <sodipodi:guide
       orientation="0,1"
       position="232.33509,595.99"
       id="guide3997" />
    <sodipodi:guide
       orientation="1,0"
       position="556.38314,595.99"
       id="guide3999" />
    <sodipodi:guide
       orientation="0,1"
       position="279.81226,297.995"
       id="guide4001" />
  </sodipodi:namedview>
  <metadata
     id="metadata3915">
    <rdf:RDF>
      <cc:Work
         rdf:about="">
        <dc:format>image/svg+xml</dc:format>
        <dc:type
           rdf:resource="http://purl.org/dc/dcmitype/StillImage" />
        <dc:title></dc:title>
      </cc:Work>
    </rdf:RDF>
  </metadata>
  <g
     inkscape:label="Capa 1"
     inkscape:groupmode="layer"
     id="layer1">
    <path
       style="fill:none;stroke:#000000;stroke-width:5;stroke-linecap:butt;stroke-linejoin:miter;stroke-miterlimit:4;stroke-opacity:1;stroke-dasharray:none"
       d="M 916.11676,486.93889 C 861.91528,620.21879 787.94983,444.78018 731.13153,601.51378 l -9.83489,-11.81765 c 56.8183,-156.7336 130.78375,18.70501 184.98523,-114.57489 z"
       id="path3910-8"
       inkscape:connector-curvature="0"
       sodipodi:nodetypes="ccccc" />
    <path
       style="fill:#ffffff;fill-opacity:1;fill-rule:evenodd;stroke:#000000;stroke-width:5;stroke-linecap:round;stroke-linejoin:round;stroke-miterlimit:4;stroke-opacity:1;stroke-dasharray:none;stroke-dashoffset:0"
       d="m 515.07951,661.34696 c -16.61781,-7.42917 -45.66222,-1.91479 -51.97752,15.15743 -8.61436,23.28729 -25.17456,43.98828 -30.37643,84.33803 -2.32744,18.05345 5.68249,27.40549 22.30031,34.83465 16.6178,7.42915 28.82132,3.13694 41.97751,-9.44315 12.50643,-11.95879 26.44142,-49.39267 38.94785,-71.48089 8.96868,-15.84003 -4.25391,-45.97692 -20.87172,-53.40607 z"
       id="rect3794-4"
       inkscape:connector-curvature="0"
       sodipodi:nodetypes="sssssss" />
    <path
       style="fill:#ffffff;fill-opacity:1;fill-rule:evenodd;stroke:#000000;stroke-width:5;stroke-linecap:round;stroke-linejoin:round;stroke-miterlimit:4;stroke-opacity:1;stroke-dasharray:none;stroke-dashoffset:0"
       d="m 738.03304,753.51208 c 0,20.18697 -21.48153,36.55176 -47.98033,36.55176 -26.4988,0 -47.98033,-16.36479 -47.98033,-36.55176 0,-20.18698 21.48153,-36.55176 47.98033,-36.55176 26.4988,0 47.98033,16.36478 47.98033,36.55176 z"
       id="path3814"
       inkscape:connector-curvature="0" />
    <path
       style="fill:#ffffff;fill-opacity:1;fill-rule:evenodd;stroke:#000000;stroke-width:5;stroke-miterlimit:4;stroke-opacity:1;stroke-dasharray:none"
       d="m 810.75953,629.9406 c 0,78.8937 -87.30113,142.84969 -194.99254,142.84969 -107.6914,0 -194.99253,-63.95599 -194.99253,-142.84969 0,-78.89369 87.30113,-142.84968 194.99253,-142.84968 107.69141,0 194.99254,63.95599 194.99254,142.84968 z"
       id="path2985"
       inkscape:connector-curvature="0" />
    <path
       style="fill:#000000;fill-opacity:1;stroke:#000000;stroke-width:1px;stroke-linecap:butt;stroke-linejoin:miter;stroke-opacity:1"
       d="m 435.35264,679.85309 c 157.03129,169.1905 334.53097,54.14381 372.24121,-27.7792 -32.50097,88.52579 -86.2594,99.59788 -135.36044,114.14724 -28.63625,5.5167 -185.93355,21.9367 -236.88077,-86.36804 z"
       id="path4062"
       inkscape:connector-curvature="0"
       sodipodi:nodetypes="cccc" />
    <path
       sodipodi:type="arc"
       style="fill:#000000;fill-opacity:1;fill-rule:evenodd;stroke:#000000;stroke-width:3;stroke-linecap:round;stroke-linejoin:round;stroke-miterlimit:4;stroke-opacity:1;stroke-dasharray:none;stroke-dashoffset:0"
       id="path3990-2-6"
       sodipodi:cx="479.82245"
       sodipodi:cy="332.12341"
       sodipodi:rx="64.649765"
       sodipodi:ry="54.548237"
       d="m 544.47221,332.12341 a 64.649765,54.548237 0 1 1 -129.29953,0 64.649765,54.548237 0 1 1 129.29953,0 z"
       transform="matrix(1.0151343,0,0,1.0271962,237.67709,317.48396)" />
    <path
       style="fill:#ffffff;fill-opacity:1;fill-rule:evenodd;stroke:#000000;stroke-width:5;stroke-linecap:round;stroke-linejoin:round;stroke-miterlimit:4;stroke-opacity:1;stroke-dasharray:none;stroke-dashoffset:0"
       d="m 730.45449,654.48986 c 16.61781,-7.42916 51.97062,8.41751 59.12036,25.15745 7.15805,16.75936 20.90787,39.13127 24.66215,72.90944 2.01077,18.09145 -7.11106,28.83407 -23.72887,36.26323 -16.61781,7.42916 -19.60367,-4.54535 -37.69179,-6.58602 -9.64928,-1.08862 -29.29857,-34.20525 -38.94785,-65.76658 -5.32201,-17.40749 -0.0318,-54.54836 16.586,-61.97752 z"
       id="rect3794-7"
       inkscape:connector-curvature="0"
       sodipodi:nodetypes="sssssss" />
    <path
       style="fill:#000000;fill-opacity:1;fill-rule:evenodd;stroke:#000000;stroke-width:3;stroke-linecap:round;stroke-linejoin:round;stroke-miterlimit:4;stroke-opacity:1;stroke-dashoffset:0"
       d="m 929.33844,491.3692 c 0,14.2016 -12.47206,25.71428 -27.85714,25.71428 -15.38507,0 -29.14631,-11.57131 -27.85714,-25.71428 2.85714,-31.34448 38.18636,-17.14286 30.71428,-55.71429 18.24223,15.71428 25,41.51267 25,55.71429 z"
       id="path3930"
       inkscape:connector-curvature="0"
       sodipodi:nodetypes="ssscs" />
    <path
       style="fill:#000000;fill-opacity:1;fill-rule:evenodd;stroke:#000000;stroke-width:3;stroke-linecap:round;stroke-linejoin:round;stroke-miterlimit:4;stroke-opacity:1;stroke-dashoffset:0"
       d="m 429.7855,772.66098 c -2.88674,11.94309 2.08999,24.0926 11.7726,31.74973 3.99574,3.15989 13.3242,-2.44338 18.87537,-17.9893 -3.06839,13.54791 3.04003,26.07354 6.77051,25.79433 13.97976,-1.04634 26.01455,-10.12659 29.23357,-23.44443 4.07802,-16.87167 -7.53667,-34.15529 -25.94212,-38.60404 -18.40546,-4.44874 -36.63192,5.62204 -40.70993,22.49371 z"
       id="path3954-7"
       inkscape:connector-curvature="0"
       sodipodi:nodetypes="sscssss" />
    <path
       style="fill:#000000;fill-opacity:1;fill-rule:evenodd;stroke:#000000;stroke-width:3;stroke-linecap:round;stroke-linejoin:round;stroke-miterlimit:4;stroke-opacity:1;stroke-dashoffset:0"
       d="m 817.74728,765.529 c 2.88674,11.94309 -2.08999,24.0926 -11.7726,31.74973 -3.99574,3.15989 -13.3242,-2.44338 -18.87537,-17.9893 3.06839,13.54791 -3.04003,26.07354 -6.77051,25.79433 -13.97976,-1.04634 -26.01455,-10.12659 -29.23357,-23.44443 -4.07802,-16.87167 7.53667,-34.15529 25.94212,-38.60404 18.40546,-4.44874 36.63192,5.62204 40.70993,22.49371 z"
       id="path3954-71"
       inkscape:connector-curvature="0"
       sodipodi:nodetypes="sscssss" />
    <path
       sodipodi:type="arc"
       style="fill:#000000;fill-opacity:1;fill-rule:evenodd;stroke:#000000;stroke-width:3;stroke-linecap:round;stroke-linejoin:round;stroke-miterlimit:4;stroke-opacity:1;stroke-dasharray:none;stroke-dashoffset:0"
       id="path3990"
       sodipodi:cx="479.82245"
       sodipodi:cy="332.12341"
       sodipodi:rx="64.649765"
       sodipodi:ry="54.548237"
       d="m 544.47221,332.12341 a 64.649765,54.548237 0 1 1 -129.29953,0 64.649765,54.548237 0 1 1 129.29953,0 z"
       transform="translate(175.23835,218.93522)" />
    <path
       sodipodi:type="arc"
       style="fill:#000000;fill-opacity:1;fill-rule:evenodd;stroke:#000000;stroke-width:3;stroke-linecap:round;stroke-linejoin:round;stroke-miterlimit:4;stroke-opacity:1;stroke-dasharray:none;stroke-dashoffset:0"
       id="path3990-2"
       sodipodi:cx="479.82245"
       sodipodi:cy="332.12341"
       sodipodi:rx="64.649765"
       sodipodi:ry="54.548237"
       d="m 544.47221,332.12341 a 64.649765,54.548237 0 1 1 -129.29953,0 64.649765,54.548237 0 1 1 129.29953,0 z"
       transform="matrix(0.7566266,0,0,0.6745204,266.45599,436.37619)" />
    <path
       style="fill:#ffffff;fill-opacity:1;fill-rule:evenodd;stroke:#000000;stroke-width:5;stroke-linecap:round;stroke-linejoin:round;stroke-miterlimit:4;stroke-opacity:1;stroke-dasharray:none;stroke-dashoffset:0"
       d="m 563.5973,674.91838 c 16.61781,-7.42916 42.41152,1.85294 54.83466,15.15743 13.41786,14.36978 20.64399,32.53666 30.37643,84.33803 3.36114,17.88985 -8.53963,27.40549 -25.15745,34.83465 -16.61781,7.42916 -32.69571,8.13242 -43.40608,-6.58601 -14.59209,-20.05278 -37.06246,-62.47553 -37.51928,-80.05231 -0.45683,-17.57678 4.25391,-40.26263 20.87172,-47.69179 z"
       id="rect3794"
       inkscape:connector-curvature="0"
       sodipodi:nodetypes="ssssszs" />
    <path
       style="fill:#000000;fill-opacity:1;fill-rule:evenodd;stroke:#000000;stroke-width:3;stroke-linecap:round;stroke-linejoin:round;stroke-miterlimit:4;stroke-opacity:1;stroke-dashoffset:0"
       d="m 650.09483,787.48981 c 2.88674,11.94309 -2.08999,24.0926 -11.7726,31.74973 -3.99574,3.15989 -13.3242,-2.44338 -18.87537,-17.9893 3.06839,13.54791 -3.04003,26.07354 -6.77051,25.79433 -13.97976,-1.04634 -26.01455,-10.12659 -29.23357,-23.44443 -4.07802,-16.87167 7.53667,-34.15529 25.94212,-38.60404 18.40546,-4.44874 36.63192,5.62204 40.70993,22.49371 z"
       id="path3954"
       inkscape:connector-curvature="0"
       sodipodi:nodetypes="sscssss" />
    <path
       style="fill:#000000;fill-opacity:1;stroke:#000000;stroke-width:1px;stroke-linecap:butt;stroke-linejoin:miter;stroke-opacity:1"
       d="m 547.98464,694.5003 c -2.78762,23.68493 -7.93469,63.34677 55.55839,114.14723 -8.82311,7.39339 -19.39106,8.47853 -45.45686,-46.46701 -15.16278,-20.3484 -16.44621,-43.29917 -10.10153,-67.68022 z"
       id="path4046"
       inkscape:connector-curvature="0"
       sodipodi:nodetypes="cccc" />
    <path
       style="fill:#000000;fill-opacity:1;stroke:#000000;stroke-width:1px;stroke-linecap:butt;stroke-linejoin:miter;stroke-opacity:1"
       d="m 481.81965,766.72621 c 18.29339,-5.72827 22.74986,-15.54411 24.24366,-18.68783 l 10.10153,4.54569 -19.69798,33.33503 z"
       id="path4048"
       inkscape:connector-curvature="0"
       sodipodi:nodetypes="ccccc" />
    <path
       style="fill:#ffffff;fill-opacity:1;fill-rule:evenodd;stroke:#000000;stroke-width:6;stroke-linecap:round;stroke-linejoin:round;stroke-miterlimit:4;stroke-opacity:1;stroke-dasharray:none;stroke-dashoffset:0"
       d="m 369.64057,537.42667 c 6.62812,10.27718 -4.12385,29.00812 -24.01518,41.83673 -19.89132,12.8286 -41.38957,14.89694 -48.01768,4.61975 -6.62811,-10.27718 4.12384,-29.00813 24.01516,-41.83673 19.89133,-12.82861 41.38959,-14.89694 48.0177,-4.61975 z"
       id="path3854"
       inkscape:connector-curvature="0" />
    <path
       style="fill:#ffffff;fill-opacity:1;fill-rule:evenodd;stroke:#000000;stroke-width:5.15722752;stroke-miterlimit:4;stroke-opacity:1;stroke-dasharray:none"
       d="m 431.8517,512.03684 c -39.06047,0.27574 -63.85348,12.67196 -76.87147,31.52312 -8.57356,12.41524 -7.30879,23.67629 6.24038,32.69434 -23.5061,19.014 -63.67168,46.88697 -64.04921,66.7942 -1.41928,74.83851 82.48484,84.5521 152.87362,71.67993 55.16479,-10.08812 85.79868,-28.972 90.79515,-88.89486 0.3569,-23.50844 -5.26054,-29.83994 -20.40677,-51.31939 1.17056,-3.62484 4.271,-18.0612 2.50912,-21.78508 -12.97693,-27.42773 -32.10307,-37.86124 -78.48589,-40.39108 -4.34839,-0.23717 -8.56419,-0.3297 -12.60493,-0.30118 z"
       id="path2987"
       inkscape:connector-curvature="0"
       sodipodi:nodetypes="sscssccsss" />
    <path
       sodipodi:type="arc"
       style="fill:#ffffff;fill-opacity:1;fill-rule:evenodd;stroke:#000000;stroke-width:1.70276213;stroke-linecap:butt;stroke-linejoin:miter;stroke-miterlimit:4;stroke-opacity:1;stroke-dasharray:none;stroke-dashoffset:0"
       id="path3063"
       sodipodi:cx="85.357887"
       sodipodi:cy="281.5592"
       sodipodi:rx="11.364216"
       sodipodi:ry="6.0609155"
       d="m 96.722103,281.5592 a 11.364216,6.0609155 0 1 1 -22.728432,0 11.364216,6.0609155 0 1 1 22.728432,0 z"
       transform="matrix(2.0635207,0.32938885,-0.33496815,1.7394224,278.84672,182.29198)" />
    <path
       style="fill:#ffffff;fill-opacity:1;fill-rule:evenodd;stroke:#000000;stroke-width:4.22781372;stroke-linecap:round;stroke-linejoin:round;stroke-miterlimit:4;stroke-opacity:1;stroke-dasharray:none;stroke-dashoffset:0"
       d="m 432.11022,671.47342 c -4.70112,29.69401 -52.56524,53.93512 -84.58172,19.97302 -37.94123,25.88749 -77.4918,-13.74766 -72.79068,-43.44166 4.70111,-29.694 47.97767,-54.76632 78.90607,-28.12365 50.8116,-16.60117 83.16744,21.8983 78.46633,51.59229 z"
       id="path3757"
       inkscape:connector-curvature="0"
       sodipodi:nodetypes="scscs" />
    <path
       style="fill:#000000;fill-opacity:1;fill-rule:evenodd;stroke:#000000;stroke-width:2.26187301;stroke-linecap:round;stroke-linejoin:round;stroke-miterlimit:4;stroke-opacity:1;stroke-dasharray:none;stroke-dashoffset:0"
       d="m 333.43707,650.52347 c -0.73477,4.64107 -8.90803,7.20372 -18.2555,5.72384 -9.34748,-1.47988 -16.32946,-6.44189 -15.59469,-11.08297 0.73477,-4.64106 8.90804,-7.20372 18.25552,-5.72384 9.34747,1.47988 16.32944,6.4419 15.59467,11.08297 z"
       id="path3774"
       inkscape:connector-curvature="0" />
    <path
       style="fill:#000000;fill-opacity:1;fill-rule:evenodd;stroke:#000000;stroke-width:2.26187301;stroke-linecap:round;stroke-linejoin:round;stroke-miterlimit:4;stroke-opacity:1;stroke-dasharray:none;stroke-dashoffset:0"
       d="m 400.21981,658.9463 c -0.73477,4.64108 -8.90805,7.20373 -18.25551,5.72386 -9.34747,-1.47989 -16.32945,-6.4419 -15.59468,-11.08298 0.73477,-4.64107 8.90804,-7.20372 18.25552,-5.72384 9.34746,1.47988 16.32944,6.44189 15.59467,11.08296 z"
       id="path3774-1"
       inkscape:connector-curvature="0" />
    <path
       style="fill:#000000;fill-opacity:1;fill-rule:evenodd;stroke:#000000;stroke-width:2.74915504;stroke-linecap:round;stroke-linejoin:round;stroke-miterlimit:4;stroke-opacity:1;stroke-dasharray:none;stroke-dashoffset:0"
       d="m 411.13905,564.52701 c 0,15.06641 -11.2396,27.28016 -25.10433,27.28016 -13.86473,0 -25.10431,-12.21375 -25.10431,-27.28016 0,-15.06641 11.23958,-27.28014 25.10431,-27.28014 13.86473,0 25.10433,12.21373 25.10433,27.28014 z"
       id="path3834"
       inkscape:connector-curvature="0" />
    <path
       style="fill:#000000;fill-opacity:1;fill-rule:evenodd;stroke:#000000;stroke-width:3;stroke-linecap:round;stroke-linejoin:round;stroke-miterlimit:4;stroke-opacity:1;stroke-dasharray:none;stroke-dashoffset:0"
       d="m 506.19247,573.92564 c 0,16.18061 -12.46263,29.29759 -27.83604,29.29759 -15.37342,0 -27.83604,-13.11698 -27.83604,-29.29759 0,-16.18061 12.46262,-29.29758 27.83604,-29.29758 15.37341,0 27.83604,13.11697 27.83604,29.29758 z"
       id="path3834-0"
       inkscape:connector-curvature="0" />
    <path
       style="fill:#ffffff;fill-opacity:1;fill-rule:evenodd;stroke:#000000;stroke-width:6;stroke-linecap:round;stroke-linejoin:round;stroke-miterlimit:4;stroke-opacity:1;stroke-dasharray:none;stroke-dashoffset:0"
       d="m 511.89341,528.14095 c -6.62811,10.27719 4.12385,29.00813 24.01518,41.83674 19.89133,12.8286 41.38958,14.89694 48.01769,4.61975 6.62811,-10.27718 -4.12385,-29.00813 -24.01517,-41.83673 -19.89133,-12.82861 -41.38959,-14.89694 -48.0177,-4.61976 z"
       id="path3854-9"
       inkscape:connector-curvature="0" />
    <path
       sodipodi:type="arc"
       style="fill:#ffffff;fill-opacity:1;fill-rule:evenodd;stroke:#000000;stroke-width:3;stroke-linecap:round;stroke-linejoin:round;stroke-miterlimit:4;stroke-opacity:1;stroke-dasharray:none;stroke-dashoffset:0"
       id="path3888"
       sodipodi:cx="86.428574"
       sodipodi:cy="263.07648"
       sodipodi:rx="10.714286"
       sodipodi:ry="10.714286"
       d="m 97.142859,263.07648 a 10.714286,10.714286 0 1 1 -21.428571,0 10.714286,10.714286 0 1 1 21.428571,0 z"
       transform="matrix(0.9018639,0,0,0.9311399,297.53945,312.63504)" />
    <path
       sodipodi:type="arc"
       style="fill:#ffffff;fill-opacity:1;fill-rule:evenodd;stroke:#000000;stroke-width:3;stroke-linecap:round;stroke-linejoin:round;stroke-miterlimit:4;stroke-opacity:1;stroke-dasharray:none;stroke-dashoffset:0"
       id="path3888-4"
       sodipodi:cx="86.428574"
       sodipodi:cy="263.07648"
       sodipodi:rx="10.714286"
       sodipodi:ry="10.714286"
       d="m 97.142859,263.07648 a 10.714286,10.714286 0 1 1 -21.428571,0 10.714286,10.714286 0 1 1 21.428571,0 z"
       transform="translate(382.05271,305.72128)" />
    <path
       style="fill:#ffffff;fill-opacity:1;stroke:#000000;stroke-width:5;stroke-linecap:butt;stroke-linejoin:miter;stroke-miterlimit:4;stroke-opacity:1;stroke-dasharray:none"
       d="m 352.10286,486.70022 c -8.01432,21.72301 -3.9224,37.10254 7.15675,48.82085 18.85087,10.41379 36.79059,-8.95135 33.8161,-17.31882 -15.9706,-8.55905 -28.18015,-13.95909 -40.97285,-31.50203 z"
       id="path3934"
       inkscape:connector-curvature="0"
       sodipodi:nodetypes="cccc" />
    <path
       style="fill:#ffffff;fill-opacity:1;stroke:#000000;stroke-width:5;stroke-linecap:butt;stroke-linejoin:miter;stroke-miterlimit:4;stroke-opacity:1;stroke-dasharray:none"
       d="m 512.89354,483.67223 c 8.01432,21.72301 3.9224,37.10254 -7.15675,48.82085 -18.85087,10.41379 -36.79059,-8.95135 -33.8161,-17.31882 15.9706,-8.55905 28.18015,-13.95909 40.97285,-31.50203 z"
       id="path3934-8"
       inkscape:connector-curvature="0"
       sodipodi:nodetypes="cccc" />
    <path
       style="fill:#000000;fill-opacity:1;stroke:#000000;stroke-width:1px;stroke-linecap:butt;stroke-linejoin:miter;stroke-opacity:1"
       d="m 520.36517,572.91561 c 51.6205,99.33088 -62.14552,140.23641 -100.61787,146.96105 47.7959,-1.42557 81.37924,-16.89026 107.78174,-45.57941 8.13849,-7.45118 24.77556,-80.83353 -7.16387,-101.38164 z"
       id="path4050"
       inkscape:connector-curvature="0"
       sodipodi:nodetypes="cccc" />
    <path
       style="fill:#000000;fill-opacity:1;stroke:#000000;stroke-width:1px;stroke-linecap:butt;stroke-linejoin:miter;stroke-opacity:1"
       d="m 511.3666,532.37081 c 7.46723,35.70555 88.27431,56.54099 65.19291,19.21829 19.08124,22.11603 -2.31901,33.01749 -26.55457,25.7335 -23.23266,-10.57381 -36.47627,-31.26253 -38.63834,-44.95179 z"
       id="path4052"
       inkscape:connector-curvature="0"
       sodipodi:nodetypes="cccc" />
    <path
       style="fill:#000000;fill-opacity:1;stroke:#000000;stroke-width:1px;stroke-linecap:butt;stroke-linejoin:miter;stroke-opacity:1"
       d="m 348.22697,691.46984 c 28.9116,20.62402 59.98194,8.48143 68.85484,0.69265 8.8729,-7.78877 14.23189,-16.54908 13.97767,-35.29037 0.0902,9.30541 5.81726,23.80267 -25.75889,46.21447 -16.73444,6.56045 -34.35034,9.10531 -57.07362,-11.61675 z"
       id="path4054"
       inkscape:connector-curvature="0"
       sodipodi:nodetypes="czccc" />
    <path
       style="fill:#000000;fill-opacity:1;stroke:#000000;stroke-width:1px;stroke-linecap:butt;stroke-linejoin:miter;stroke-opacity:1"
       d="m 277.76883,640.20459 c -5.49411,27.88463 17.57407,68.51215 69.14775,49.70233 -6.75143,16.86698 -40.74929,14.86692 -63.59191,-10.30637 -7.16222,-14.93482 -11.72738,-27.12789 -5.55584,-39.39596 z"
       id="path4056"
       inkscape:connector-curvature="0"
       sodipodi:nodetypes="cccc" />
    <path
       style="fill:#000000;fill-opacity:1;stroke:#000000;stroke-width:1px;stroke-linecap:butt;stroke-linejoin:miter;stroke-opacity:1"
       d="m 511.65985,484.22633 c 3.55662,24.95403 -1.59182,39.57213 -13.21428,49.82143 l 9.10714,-3.21429 c 8.8641,-13.02761 9.52354,-28.34335 4.10714,-46.60714 z"
       id="path4058"
       inkscape:connector-curvature="0"
       sodipodi:nodetypes="cccc" />
    <path
       style="fill:#000000;fill-opacity:1;stroke:#000000;stroke-width:1px;stroke-linecap:butt;stroke-linejoin:miter;stroke-opacity:1"
       d="m 353.267,486.19062 c -5.66425,19.51055 -7.49649,38.11838 6.25,49.10714 l 11.96429,2.67857 c -13.1498,-6.50222 -25.33475,-27.63466 -18.21429,-51.78571 z"
       id="path4060"
       inkscape:connector-curvature="0"
       sodipodi:nodetypes="cccc" />
    <path
       style="fill:#ffffff;fill-opacity:1;fill-rule:evenodd;stroke:#000000;stroke-width:3;stroke-linecap:butt;stroke-linejoin:round;stroke-miterlimit:4;stroke-opacity:1;stroke-dashoffset:0"
       d="m 171.07575,516.60387 c -63.32073,0 -114.656247,27.81465 -114.656247,62.125 0,34.31035 51.335517,62.125 114.656247,62.125 26.47767,25.82205 55.12895,39.57265 81.79916,45.73829 -37.25986,-16.20223 -45.90277,-42.57229 -49.86496,-48.11182 48.81441,-7.12932 84.75,-31.2659 84.75,-59.96875 0,-34.31035 -53.36348,-61.90772 -116.6842,-61.90772 z"
       id="path4081"
       inkscape:connector-curvature="0"
       sodipodi:nodetypes="sscccss" />
    <text
       xml:space="preserve"
       style="font-size:37.74781418px;font-style:normal;font-variant:normal;font-weight:normal;font-stretch:normal;line-height:125%;letter-spacing:0px;word-spacing:0px;fill:#000000;fill-opacity:1;stroke:none;font-family:Arial;-inkscape-font-specification:Arial"
       x="68.500122"
       y="597.54486"
       id="text4595"
       sodipodi:linespacing="125%"
       transform="scale(1.0097685,0.99032601)"><tspan
         sodipodi:role="line"
         id="tspan4597"
         x="68.500122"
         y="597.54486"
         style="font-style:normal;font-variant:normal;font-weight:bold;font-stretch:normal;font-family:Arial Rounded MT Bold;-inkscape-font-specification:Arial Rounded MT Bold">¡MMHUUU!</tspan></text>
    <path
       style="fill:#000000;stroke:#000000;stroke-width:1px;stroke-linecap:butt;stroke-linejoin:miter;stroke-opacity:1;fill-opacity:1"
       d="m 340.46715,703.08632 c 6.1504,-7.53068 11.03424,-6.71965 15.15919,-5.73591 l -7.78445,-5.94076 -10.6524,4.71163 z"
       id="path4599"
       inkscape:connector-curvature="0"
       sodipodi:nodetypes="ccccc" />
    <rect
       style="fill:none;fill-opacity:1;fill-rule:evenodd;stroke:#000000;stroke-width:1;stroke-linecap:butt;stroke-linejoin:round;stroke-miterlimit:4;stroke-opacity:1;stroke-dasharray:none;stroke-dashoffset:0"
       id="rect4601"
       width="512.1347"
       height="297.995"
       x="44.24844"
       y="456.37219"
       inkscape:export-filename="C:\Users\Sebastián\Dropbox\Personal\Proyectos\Electrón IPM\web\originales\vaca-muge.png"
       inkscape:export-xdpi="720"
       inkscape:export-ydpi="720" />
  </g>
</svg>
