<?xml version="1.0" encoding="UTF-8" standalone="no"?>
<!-- Created with Inkscape (http://www.inkscape.org/) -->

<svg
   xmlns:dc="http://purl.org/dc/elements/1.1/"
   xmlns:cc="http://creativecommons.org/ns#"
   xmlns:rdf="http://www.w3.org/1999/02/22-rdf-syntax-ns#"
   xmlns:svg="http://www.w3.org/2000/svg"
   xmlns="http://www.w3.org/2000/svg"
   xmlns:sodipodi="http://sodipodi.sourceforge.net/DTD/sodipodi-0.dtd"
   xmlns:inkscape="http://www.inkscape.org/namespaces/inkscape"
   width="210mm"
   height="297mm"
   id="svg3026"
   version="1.1"
   inkscape:version="0.92.4 (5da689c313, 2019-01-14)"
   sodipodi:docname="vaca-habla.svg">
  <defs
     id="defs3028" />
  <sodipodi:namedview
     id="base"
     pagecolor="#ffffff"
     bordercolor="#666666"
     borderopacity="1.0"
     inkscape:pageopacity="0.0"
     inkscape:pageshadow="2"
     inkscape:zoom="1.4"
     inkscape:cx="190.19149"
     inkscape:cy="809.15875"
     inkscape:document-units="px"
     inkscape:current-layer="layer1"
     showgrid="false"
     inkscape:window-width="1920"
     inkscape:window-height="1051"
     inkscape:window-x="-9"
     inkscape:window-y="-9"
     inkscape:window-maximized="1"
     showguides="true"
     inkscape:guide-bbox="true">
    <sodipodi:guide
       orientation="1,0"
       position="609.33333,704.38095"
       id="guide4704"
       inkscape:locked="false" />
    <sodipodi:guide
       orientation="1,0"
       position="642.47619,704.38095"
       id="guide4706"
       inkscape:locked="false" />
    <sodipodi:guide
       orientation="0,1"
       position="609.33333,685.04762"
       id="guide4708"
       inkscape:locked="false" />
    <sodipodi:guide
       orientation="0,1"
       position="625.62114,731.35044"
       id="guide4710"
       inkscape:locked="false" />
    <sodipodi:guide
       orientation="0,1"
       position="625.62114,740.50916"
       id="guide4718"
       inkscape:locked="false" />
    <sodipodi:guide
       orientation="1,0"
       position="617.67461,731.35044"
       id="guide4720"
       inkscape:locked="false" />
    <sodipodi:guide
       orientation="1,0"
       position="625.95238,732.80953"
       id="guide4722"
       inkscape:locked="false" />
    <sodipodi:guide
       orientation="1,0"
       position="634.14286,731.35044"
       id="guide4724"
       inkscape:locked="false" />
    <sodipodi:guide
       orientation="0,1"
       position="617.67461,742"
       id="guide4726"
       inkscape:locked="false" />
    <sodipodi:guide
       orientation="0,1"
       position="616.2381,679.33333"
       id="guide4764"
       inkscape:locked="false" />
  </sodipodi:namedview>
  <metadata
     id="metadata3031">
    <rdf:RDF>
      <cc:Work
         rdf:about="">
        <dc:format>image/svg+xml</dc:format>
        <dc:type
           rdf:resource="http://purl.org/dc/dcmitype/StillImage" />
        <dc:title />
      </cc:Work>
    </rdf:RDF>
  </metadata>
  <g
     inkscape:label="Capa 1"
     inkscape:groupmode="layer"
     id="layer1">
    <rect
       style="fill:#ffff1d;fill-opacity:0.87980771;stroke:none;stroke-width:0.97105485;stroke-linecap:butt;stroke-linejoin:round;stroke-miterlimit:4;stroke-opacity:1;stroke-dasharray:none;stroke-dashoffset:0"
       id="rect4601"
       width="482.86923"
       height="298.02393"
       x="-685.76501"
       y="308.79642"
       inkscape:export-filename="C:\Users\luiss\Documents\MEGA\Personal\Material para Clases\2015\Programacion 2\img\png\vaca-logo_logica.png"
       inkscape:export-xdpi="278.31323"
       inkscape:export-ydpi="278.31323"
       transform="scale(-1,1)" />
    <path
       style="fill:none;stroke:#000000;stroke-width:5;stroke-linecap:butt;stroke-linejoin:miter;stroke-miterlimit:4;stroke-opacity:1;stroke-dasharray:none"
       d="m -148.82332,339.37762 c 54.2015,133.2799 128.1669,-42.15871 184.9852,114.57489 l 9.8349,-11.81765 c -56.8183,-156.7336 -130.7838,18.70501 -184.9852,-114.57489 z"
       id="path3910-8"
       inkscape:connector-curvature="0"
       sodipodi:nodetypes="ccccc" />
    <path
       style="fill:#ffffff;fill-opacity:1;fill-rule:evenodd;stroke:#000000;stroke-width:5;stroke-linecap:round;stroke-linejoin:round;stroke-miterlimit:4;stroke-opacity:1;stroke-dasharray:none;stroke-dashoffset:0"
       d="m 252.21391,513.78569 c 16.61781,-7.42917 45.66222,-1.91479 51.97752,15.15743 8.61436,23.28729 25.17456,43.98828 30.37643,84.33803 2.32744,18.05345 -5.68249,27.40549 -22.30031,34.83465 -16.6178,7.42915 -28.82132,3.13694 -41.97751,-9.44315 -12.50643,-11.95879 -26.44142,-49.39267 -38.94785,-71.48089 -8.96868,-15.84003 4.25391,-45.97692 20.87172,-53.40607 z"
       id="rect3794-4"
       inkscape:connector-curvature="0"
       sodipodi:nodetypes="sssssss" />
    <path
       style="fill:#ffffff;fill-opacity:1;fill-rule:evenodd;stroke:#000000;stroke-width:5;stroke-linecap:round;stroke-linejoin:round;stroke-miterlimit:4;stroke-opacity:1;stroke-dasharray:none;stroke-dashoffset:0"
       d="m 29.26038,605.95081 c 0,20.18697 21.4815,36.55176 47.9803,36.55176 26.49883,0 47.98036,-16.36479 47.98036,-36.55176 0,-20.18698 -21.48153,-36.55176 -47.98036,-36.55176 -26.4988,0 -47.9803,16.36478 -47.9803,36.55176 z"
       id="path3814"
       inkscape:connector-curvature="0" />
    <path
       style="fill:#ffffff;fill-opacity:1;fill-rule:evenodd;stroke:#000000;stroke-width:5;stroke-miterlimit:4;stroke-opacity:1;stroke-dasharray:none"
       d="m -43.46612,482.37933 c 0,78.8937 87.3011,142.84969 194.99255,142.84969 107.6914,0 194.99253,-63.95599 194.99253,-142.84969 0,-78.89369 -87.30113,-142.84968 -194.99253,-142.84968 -107.69145,0 -194.99255,63.95599 -194.99255,142.84968 z"
       id="path2985"
       inkscape:connector-curvature="0" />
    <path
       style="fill:#000000;fill-opacity:1;stroke:#000000;stroke-width:1px;stroke-linecap:butt;stroke-linejoin:miter;stroke-opacity:1"
       d="m 331.94078,532.29182 c -157.03129,169.19054 -334.531,54.14381 -372.2412,-27.7792 32.501,88.52579 86.2594,99.59788 135.3604,114.14724 28.63628,5.5167 185.93358,21.9367 236.8808,-86.36804 z"
       id="path4062"
       inkscape:connector-curvature="0"
       sodipodi:nodetypes="cccc" />
    <path
       sodipodi:type="arc"
       style="fill:#000000;fill-opacity:1;fill-rule:evenodd;stroke:#000000;stroke-width:3;stroke-linecap:round;stroke-linejoin:round;stroke-miterlimit:4;stroke-opacity:1;stroke-dasharray:none;stroke-dashoffset:0"
       id="path3990-2-6"
       sodipodi:cx="479.82245"
       sodipodi:cy="332.12341"
       sodipodi:rx="64.649765"
       sodipodi:ry="54.548237"
       d="m 544.47221,332.12341 a 64.649765,54.548237 0 1 1 -129.29953,0 64.649765,54.548237 0 1 1 129.29953,0 z"
       transform="matrix(-1.0151343,0,0,1.0271962,529.61633,169.92269)" />
    <path
       style="fill:#ffffff;fill-opacity:1;fill-rule:evenodd;stroke:#000000;stroke-width:5;stroke-linecap:round;stroke-linejoin:round;stroke-miterlimit:4;stroke-opacity:1;stroke-dasharray:none;stroke-dashoffset:0"
       d="m 36.83888,506.92859 c -16.6178,-7.42916 -51.9706,8.41751 -59.1203,25.15745 -7.1581,16.75936 -20.9079,39.13127 -24.6622,72.90944 -2.0107,18.09145 7.1111,28.83407 23.7289,36.26323 16.6178,7.42916 19.6037,-4.54535 37.6918,-6.58602 9.6493,-1.08862 29.2986,-34.20525 38.9478,-65.76658 5.3221,-17.40749 0.032,-54.54836 -16.586,-61.97752 z"
       id="rect3794-7"
       inkscape:connector-curvature="0"
       sodipodi:nodetypes="sssssss" />
    <path
       style="fill:#000000;fill-opacity:1;fill-rule:evenodd;stroke:#000000;stroke-width:3;stroke-linecap:round;stroke-linejoin:round;stroke-miterlimit:4;stroke-opacity:1;stroke-dashoffset:0"
       d="m -162.04502,343.80793 c 0,14.2016 12.4721,25.71428 27.8571,25.71428 15.3851,0 29.1463,-11.57131 27.8572,-25.71428 -2.8572,-31.34448 -38.1864,-17.14286 -30.7143,-55.71429 -18.2422,15.71428 -25,41.51267 -25,55.71429 z"
       id="path3930"
       inkscape:connector-curvature="0"
       sodipodi:nodetypes="ssscs" />
    <path
       style="fill:#000000;fill-opacity:1;fill-rule:evenodd;stroke:#000000;stroke-width:3;stroke-linecap:round;stroke-linejoin:round;stroke-miterlimit:4;stroke-opacity:1;stroke-dashoffset:0"
       d="m 337.50792,625.09971 c 2.88674,11.94309 -2.08999,24.0926 -11.7726,31.74973 -3.99574,3.15989 -13.3242,-2.44338 -18.87537,-17.9893 3.06839,13.54791 -3.04003,26.07354 -6.77051,25.79433 -13.97976,-1.04634 -26.01455,-10.12659 -29.23357,-23.44443 -4.07802,-16.87167 7.53667,-34.15529 25.94212,-38.60404 18.40546,-4.44874 36.63192,5.62204 40.70993,22.49371 z"
       id="path3954-7"
       inkscape:connector-curvature="0"
       sodipodi:nodetypes="sscssss" />
    <path
       style="fill:#000000;fill-opacity:1;fill-rule:evenodd;stroke:#000000;stroke-width:3;stroke-linecap:round;stroke-linejoin:round;stroke-miterlimit:4;stroke-opacity:1;stroke-dashoffset:0"
       d="m -50.45382,617.96773 c -2.8868,11.94309 2.0899,24.0926 11.7726,31.74973 3.9957,3.15989 13.3242,-2.44338 18.8753,-17.9893 -3.0684,13.54791 3.0401,26.07354 6.7705,25.79433 13.9798,-1.04634 26.0146,-10.12659 29.2336,-23.44443 4.078,-16.87167 -7.5367,-34.15529 -25.9421,-38.60404 -18.4055,-4.44874 -36.6319,5.62204 -40.7099,22.49371 z"
       id="path3954-71"
       inkscape:connector-curvature="0"
       sodipodi:nodetypes="sscssss" />
    <path
       sodipodi:type="arc"
       style="fill:#000000;fill-opacity:1;fill-rule:evenodd;stroke:#000000;stroke-width:3;stroke-linecap:round;stroke-linejoin:round;stroke-miterlimit:4;stroke-opacity:1;stroke-dasharray:none;stroke-dashoffset:0"
       id="path3990"
       sodipodi:cx="479.82245"
       sodipodi:cy="332.12341"
       sodipodi:rx="64.649765"
       sodipodi:ry="54.548237"
       d="m 544.47221,332.12341 a 64.649765,54.548237 0 1 1 -129.29953,0 64.649765,54.548237 0 1 1 129.29953,0 z"
       transform="matrix(-1,0,0,1,592.05507,71.373947)" />
    <path
       sodipodi:type="arc"
       style="fill:#000000;fill-opacity:1;fill-rule:evenodd;stroke:#000000;stroke-width:3;stroke-linecap:round;stroke-linejoin:round;stroke-miterlimit:4;stroke-opacity:1;stroke-dasharray:none;stroke-dashoffset:0"
       id="path3990-2"
       sodipodi:cx="479.82245"
       sodipodi:cy="332.12341"
       sodipodi:rx="64.649765"
       sodipodi:ry="54.548237"
       d="m 544.47221,332.12341 a 64.649765,54.548237 0 1 1 -129.29953,0 64.649765,54.548237 0 1 1 129.29953,0 z"
       transform="matrix(-0.7566266,0,0,0.6745204,500.83743,288.81492)" />
    <path
       style="fill:#ffffff;fill-opacity:1;fill-rule:evenodd;stroke:#000000;stroke-width:5;stroke-linecap:round;stroke-linejoin:round;stroke-miterlimit:4;stroke-opacity:1;stroke-dasharray:none;stroke-dashoffset:0"
       d="m 203.69612,527.35711 c -16.61781,-7.42916 -42.41152,1.85294 -54.83466,15.15743 -13.41786,14.36978 -20.64399,32.53666 -30.37643,84.33803 -3.36114,17.88985 8.53963,27.40549 25.15745,34.83465 16.61781,7.42916 32.69571,8.13242 43.40608,-6.58601 14.59209,-20.05278 37.06246,-62.47553 37.51928,-80.05231 0.45683,-17.57678 -4.25391,-40.26263 -20.87172,-47.69179 z"
       id="rect3794"
       inkscape:connector-curvature="0"
       sodipodi:nodetypes="ssssszs" />
    <path
       style="fill:#000000;fill-opacity:1;fill-rule:evenodd;stroke:#000000;stroke-width:3;stroke-linecap:round;stroke-linejoin:round;stroke-miterlimit:4;stroke-opacity:1;stroke-dashoffset:0"
       d="m 117.19859,639.92854 c -2.88674,11.94309 2.08999,24.0926 11.7726,31.74973 3.99574,3.15989 13.3242,-2.44338 18.87537,-17.9893 -3.06839,13.54791 3.04003,26.07349 6.77051,25.79429 13.97976,-1.0463 26.01455,-10.12655 29.23357,-23.44439 4.07802,-16.87167 -7.53667,-34.15529 -25.94212,-38.60404 -18.40546,-4.44874 -36.63192,5.62204 -40.70993,22.49371 z"
       id="path3954"
       inkscape:connector-curvature="0"
       sodipodi:nodetypes="sscssss" />
    <path
       style="fill:#000000;fill-opacity:1;stroke:#000000;stroke-width:1px;stroke-linecap:butt;stroke-linejoin:miter;stroke-opacity:1"
       d="m 219.30878,546.93903 c 2.78762,23.68493 7.93469,63.34677 -55.55839,114.14723 8.82311,7.39339 19.39106,8.47853 45.45686,-46.46701 15.16278,-20.3484 16.44621,-43.29917 10.10153,-67.68022 z"
       id="path4046"
       inkscape:connector-curvature="0"
       sodipodi:nodetypes="cccc" />
    <path
       style="fill:#000000;fill-opacity:1;stroke:#000000;stroke-width:1px;stroke-linecap:butt;stroke-linejoin:miter;stroke-opacity:1"
       d="m 285.47377,619.16494 c -18.29339,-5.72827 -22.74986,-15.54411 -24.24366,-18.68783 l -10.10153,4.54569 19.69798,33.33503 z"
       id="path4048"
       inkscape:connector-curvature="0"
       sodipodi:nodetypes="ccccc" />
    <path
       style="fill:#ffffff;fill-opacity:1;fill-rule:evenodd;stroke:#000000;stroke-width:6;stroke-linecap:round;stroke-linejoin:round;stroke-miterlimit:4;stroke-opacity:1;stroke-dasharray:none;stroke-dashoffset:0"
       d="m 397.65285,389.8654 c -6.62812,10.27718 4.12385,29.00812 24.01518,41.83673 19.89132,12.8286 41.38957,14.89694 48.01768,4.61975 6.62811,-10.27718 -4.12384,-29.00813 -24.01516,-41.83673 -19.89133,-12.82861 -41.38959,-14.89694 -48.0177,-4.61975 z"
       id="path3854"
       inkscape:connector-curvature="0" />
    <path
       style="fill:#ffffff;fill-opacity:1;fill-rule:evenodd;stroke:#000000;stroke-width:5.15722752;stroke-miterlimit:4;stroke-opacity:1;stroke-dasharray:none"
       d="m 335.44172,364.47557 c 39.06047,0.27574 63.85348,12.67196 76.87147,31.52312 8.57356,12.41524 7.30879,23.67629 -6.24038,32.69434 23.5061,19.014 63.67168,46.88697 64.04921,66.7942 1.41928,74.83851 -82.48484,84.5521 -152.87362,71.67993 -55.16479,-10.08812 -85.79868,-28.972 -90.79515,-88.89486 -0.3569,-23.50844 5.26054,-29.83994 20.40677,-51.31939 -1.17056,-3.62484 -4.271,-18.0612 -2.50912,-21.78508 12.97693,-27.42773 32.10307,-37.86124 78.48589,-40.39108 4.34839,-0.23717 8.56419,-0.3297 12.60493,-0.30118 z"
       id="path2987"
       inkscape:connector-curvature="0"
       sodipodi:nodetypes="sscssccsss" />
    <path
       sodipodi:type="arc"
       style="fill:#ffffff;fill-opacity:1;fill-rule:evenodd;stroke:#000000;stroke-width:1.70276213;stroke-linecap:butt;stroke-linejoin:miter;stroke-miterlimit:4;stroke-opacity:1;stroke-dasharray:none;stroke-dashoffset:0"
       id="path3063"
       sodipodi:cx="85.357887"
       sodipodi:cy="281.5592"
       sodipodi:rx="11.364216"
       sodipodi:ry="6.0609155"
       d="m 96.722103,281.5592 a 11.364216,6.0609155 0 1 1 -22.728432,0 11.364216,6.0609155 0 1 1 22.728432,0 z"
       transform="matrix(-2.0635207,0.32938885,0.33496815,1.7394224,488.4467,34.730707)" />
    <path
       style="fill:#ffffff;fill-opacity:1;fill-rule:evenodd;stroke:#000000;stroke-width:4.22781372;stroke-linecap:round;stroke-linejoin:round;stroke-miterlimit:4;stroke-opacity:1;stroke-dasharray:none;stroke-dashoffset:0"
       d="m 335.1832,523.91215 c 4.70112,29.69401 52.56524,53.93512 84.58172,19.97302 37.94123,25.88749 77.4918,-13.74766 72.79068,-43.44166 -4.70111,-29.694 -47.97767,-54.76632 -78.90607,-28.12365 -50.8116,-16.60117 -83.16744,21.8983 -78.46633,51.59229 z"
       id="path3757"
       inkscape:connector-curvature="0"
       sodipodi:nodetypes="scscs" />
    <path
       style="fill:#000000;fill-opacity:1;fill-rule:evenodd;stroke:#000000;stroke-width:2.26187301;stroke-linecap:round;stroke-linejoin:round;stroke-miterlimit:4;stroke-opacity:1;stroke-dasharray:none;stroke-dashoffset:0"
       d="m 433.85635,502.9622 c 0.73477,4.64107 8.90803,7.20372 18.2555,5.72384 9.34748,-1.47988 16.32946,-6.44189 15.59469,-11.08297 -0.73477,-4.64106 -8.90804,-7.20372 -18.25552,-5.72384 -9.34747,1.47988 -16.32944,6.4419 -15.59467,11.08297 z"
       id="path3774"
       inkscape:connector-curvature="0" />
    <path
       style="fill:#000000;fill-opacity:1;fill-rule:evenodd;stroke:#000000;stroke-width:2.26187301;stroke-linecap:round;stroke-linejoin:round;stroke-miterlimit:4;stroke-opacity:1;stroke-dasharray:none;stroke-dashoffset:0"
       d="m 367.07361,511.38503 c 0.73477,4.64108 8.90805,7.20373 18.25551,5.72386 9.34747,-1.47989 16.32945,-6.4419 15.59468,-11.08298 -0.73477,-4.64107 -8.90804,-7.20372 -18.25552,-5.72384 -9.34746,1.47988 -16.32944,6.44189 -15.59467,11.08296 z"
       id="path3774-1"
       inkscape:connector-curvature="0" />
    <path
       style="fill:#000000;fill-opacity:1;fill-rule:evenodd;stroke:#000000;stroke-width:2.59949279;stroke-linecap:round;stroke-linejoin:round;stroke-miterlimit:4;stroke-opacity:1;stroke-dasharray:none;stroke-dashoffset:0"
       d="m 353.08969,420.96574 c 0,13.99196 10.82084,25.33469 24.16901,25.33469 13.34817,0 24.16899,-11.34273 24.16899,-25.33469 0,-13.99195 -10.82082,-25.33467 -24.16899,-25.33467 -13.34817,0 -24.16901,11.34272 -24.16901,25.33467 z"
       id="path3834"
       inkscape:connector-curvature="0" />
    <path
       style="fill:#000000;fill-opacity:1;fill-rule:evenodd;stroke:#000000;stroke-width:3;stroke-linecap:round;stroke-linejoin:round;stroke-miterlimit:4;stroke-opacity:1;stroke-dasharray:none;stroke-dashoffset:0"
       d="m 261.10095,426.36437 c 0,16.18061 12.46263,29.29759 27.83604,29.29759 15.37342,0 27.83604,-13.11698 27.83604,-29.29759 0,-16.18061 -12.46262,-29.29758 -27.83604,-29.29758 -15.37341,0 -27.83604,13.11697 -27.83604,29.29758 z"
       id="path3834-0"
       inkscape:connector-curvature="0" />
    <path
       style="fill:#ffffff;fill-opacity:1;fill-rule:evenodd;stroke:#000000;stroke-width:6;stroke-linecap:round;stroke-linejoin:round;stroke-miterlimit:4;stroke-opacity:1;stroke-dasharray:none;stroke-dashoffset:0"
       d="m 255.40001,380.57968 c 6.62811,10.27719 -4.12385,29.00813 -24.01518,41.83674 -19.89133,12.8286 -41.38958,14.89694 -48.01769,4.61975 -6.62811,-10.27718 4.12385,-29.00813 24.01517,-41.83673 19.89133,-12.82861 41.38959,-14.89694 48.0177,-4.61976 z"
       id="path3854-9"
       inkscape:connector-curvature="0" />
    <path
       sodipodi:type="arc"
       style="fill:#ffffff;fill-opacity:1;fill-rule:evenodd;stroke:#000000;stroke-width:3;stroke-linecap:round;stroke-linejoin:round;stroke-miterlimit:4;stroke-opacity:1;stroke-dasharray:none;stroke-dashoffset:0"
       id="path3888"
       sodipodi:cx="86.428574"
       sodipodi:cy="263.07648"
       sodipodi:rx="10.714286"
       sodipodi:ry="10.714286"
       d="m 97.142859,263.07648 a 10.714286,10.714286 0 1 1 -21.428571,0 10.714286,10.714286 0 1 1 21.428571,0 z"
       transform="matrix(-0.9018639,0,0,0.9311399,465.75397,169.07377)" />
    <path
       sodipodi:type="arc"
       style="fill:#ffffff;fill-opacity:1;fill-rule:evenodd;stroke:#000000;stroke-width:3;stroke-linecap:round;stroke-linejoin:round;stroke-miterlimit:4;stroke-opacity:1;stroke-dasharray:none;stroke-dashoffset:0"
       id="path3888-4"
       sodipodi:cx="86.428574"
       sodipodi:cy="263.07648"
       sodipodi:rx="10.714286"
       sodipodi:ry="10.714286"
       d="m 97.142859,263.07648 a 10.714286,10.714286 0 1 1 -21.428571,0 10.714286,10.714286 0 1 1 21.428571,0 z"
       transform="matrix(-1,0,0,1,385.24071,158.16001)" />
    <path
       style="fill:#ffffff;fill-opacity:1;stroke:#000000;stroke-width:5;stroke-linecap:butt;stroke-linejoin:miter;stroke-miterlimit:4;stroke-opacity:1;stroke-dasharray:none"
       d="m 415.19056,339.13895 c 8.01432,21.72301 3.9224,37.10254 -7.15675,48.82085 -18.85087,10.41379 -36.79059,-8.95135 -33.8161,-17.31882 15.9706,-8.55905 28.18015,-13.95909 40.97285,-31.50203 z"
       id="path3934"
       inkscape:connector-curvature="0"
       sodipodi:nodetypes="cccc" />
    <path
       style="fill:#ffffff;fill-opacity:1;stroke:#000000;stroke-width:5;stroke-linecap:butt;stroke-linejoin:miter;stroke-miterlimit:4;stroke-opacity:1;stroke-dasharray:none"
       d="m 254.39988,336.11096 c -8.01432,21.72301 -3.9224,37.10254 7.15675,48.82085 18.85087,10.41379 36.79059,-8.95135 33.8161,-17.31882 -15.9706,-8.55905 -28.18015,-13.95909 -40.97285,-31.50203 z"
       id="path3934-8"
       inkscape:connector-curvature="0"
       sodipodi:nodetypes="cccc" />
    <path
       style="fill:#000000;fill-opacity:1;stroke:#000000;stroke-width:1px;stroke-linecap:butt;stroke-linejoin:miter;stroke-opacity:1"
       d="m 246.92825,425.35434 c -51.6205,99.33088 62.14552,140.23641 100.61787,146.96105 -47.7959,-1.42557 -81.37924,-16.89026 -107.78174,-45.57941 -8.13849,-7.45118 -24.77556,-80.83353 7.16387,-101.38164 z"
       id="path4050"
       inkscape:connector-curvature="0"
       sodipodi:nodetypes="cccc" />
    <path
       style="fill:#000000;fill-opacity:1;stroke:#000000;stroke-width:1px;stroke-linecap:butt;stroke-linejoin:miter;stroke-opacity:1"
       d="m 255.92682,384.80954 c -7.46723,35.70555 -88.27431,56.54099 -65.19291,19.21829 -19.08124,22.11603 2.31901,33.01749 26.55457,25.7335 23.23266,-10.57381 36.47627,-31.26253 38.63834,-44.95179 z"
       id="path4052"
       inkscape:connector-curvature="0"
       sodipodi:nodetypes="cccc" />
    <path
       style="fill:#000000;fill-opacity:1;stroke:#000000;stroke-width:1px;stroke-linecap:butt;stroke-linejoin:miter;stroke-opacity:1"
       d="m 419.06645,543.90857 c -28.9116,20.62402 -59.98194,8.48143 -68.85484,0.69265 -8.8729,-7.78877 -14.23189,-16.54908 -13.97767,-35.29037 -0.0902,9.30541 -5.81726,23.80267 25.75889,46.21447 16.73444,6.56045 34.35034,9.10531 57.07362,-11.61675 z"
       id="path4054"
       inkscape:connector-curvature="0"
       sodipodi:nodetypes="czccc" />
    <path
       style="fill:#000000;fill-opacity:1;stroke:#000000;stroke-width:1px;stroke-linecap:butt;stroke-linejoin:miter;stroke-opacity:1"
       d="m 489.52459,492.64332 c 5.49411,27.88463 -17.57407,68.51215 -69.14775,49.70233 6.75143,16.86698 40.74929,14.86692 63.59191,-10.30637 7.16222,-14.93482 11.72738,-27.12789 5.55584,-39.39596 z"
       id="path4056"
       inkscape:connector-curvature="0"
       sodipodi:nodetypes="cccc" />
    <path
       style="fill:#000000;fill-opacity:1;stroke:#000000;stroke-width:1px;stroke-linecap:butt;stroke-linejoin:miter;stroke-opacity:1"
       d="m 255.63357,336.66506 c -3.55662,24.95403 1.59182,39.57213 13.21428,49.82143 l -9.10714,-3.21429 c -8.8641,-13.02761 -9.52354,-28.34335 -4.10714,-46.60714 z"
       id="path4058"
       inkscape:connector-curvature="0"
       sodipodi:nodetypes="cccc" />
    <path
       style="fill:#000000;fill-opacity:1;stroke:#000000;stroke-width:1px;stroke-linecap:butt;stroke-linejoin:miter;stroke-opacity:1"
       d="m 414.02642,338.62935 c 5.66425,19.51055 7.49649,38.11838 -6.25,49.10714 l -11.96429,2.67857 c 13.1498,-6.50222 25.33475,-27.63466 18.21429,-51.78571 z"
       id="path4060"
       inkscape:connector-curvature="0"
       sodipodi:nodetypes="cccc" />
    <path
       style="fill:#ffffff;fill-opacity:1;fill-rule:evenodd;stroke:#000000;stroke-width:5;stroke-linecap:butt;stroke-linejoin:round;stroke-miterlimit:4;stroke-dasharray:none;stroke-dashoffset:0;stroke-opacity:1"
       d="m 707.75154,672.45303 c 55.23951,0 86.65625,38.92632 86.65625,62.125 0,23.19867 -23.33552,62.125 -86.65625,62.125 -26.47767,25.82205 -55.12895,39.57265 -81.79916,45.73829 37.25986,-16.20223 45.90277,-42.57229 49.86496,-48.11182 -43.76365,-21.27146 -50.75,-44.58398 -50.75,-63.96875 0,-19.38477 30.47516,-57.90772 82.6842,-57.90772 z"
       id="path4081"
       inkscape:connector-curvature="0"
       sodipodi:nodetypes="ssccczs" />
    <path
       style="fill:#000000;fill-opacity:1;stroke:#000000;stroke-width:1px;stroke-linecap:butt;stroke-linejoin:miter;stroke-opacity:1"
       d="m 426.82627,555.52505 c -6.1504,-7.53068 -11.03424,-6.71965 -15.15919,-5.73591 l 7.78445,-5.94076 10.6524,4.71163 z"
       id="path4599"
       inkscape:connector-curvature="0"
       sodipodi:nodetypes="ccccc" />
    <g
       style="font-size:70.83132935px;font-style:normal;font-variant:normal;font-weight:normal;font-stretch:normal;line-height:125%;letter-spacing:0px;word-spacing:0px;fill:#000000;fill-opacity:1;stroke:#000000;stroke-width:5;stroke-miterlimit:4;font-family:Arial;-inkscape-font-specification:Arial"
       id="text3251"
       transform="translate(245.93625,28.939085)">
      <path
         d="m 578.40656,401.31531 -7.68838,-44.67509 c -0.12193,-0.73401 -0.18289,-1.53683 -0.18287,-2.40846 -2e-5,-7.09688 4.54583,-10.64536 13.63753,-10.64545 9.09166,9e-5 13.6375,3.52782 13.63754,10.5832 -4e-5,0.85607 -0.061,1.25423 -0.18287,1.1945 l -7.70394,45.9513 z m 5.76628,6.48221 c 8.07485,2e-5 12.11228,3.99595 12.11232,11.98781 -4e-5,7.99187 -4.03747,11.9878 -12.11232,11.9878 -8.07489,0 -12.11232,-3.99593 -12.11231,-11.9878 -10e-6,-7.99186 4.03742,-11.98779 12.11231,-11.98781 z"
         style="font-size:127.4963913px;font-weight:bold;fill:#ff0000;stroke:#000000;font-family:Britannic Bold;-inkscape-font-specification:Britannic Bold"
         id="path4024"
         inkscape:connector-curvature="0" />
    </g>
    <rect
       style="fill:none;stroke:#000000;stroke-width:15;stroke-linecap:butt;stroke-linejoin:round;stroke-miterlimit:4;stroke-dasharray:none;stroke-dashoffset:0;stroke-opacity:1"
       id="rect4601-1"
       width="482.86923"
       height="298.02393"
       x="-609.33331"
       y="-28.915354"
       inkscape:export-filename="C:\Users\Sebastián\Dropbox\Personal\Material para Clases\2015\Programacion 2\img\png\vaca-codigo.png"
       inkscape:export-xdpi="269.95001"
       inkscape:export-ydpi="269.95001"
       transform="scale(-1,1)" />
    <g
       style="font-size:40px;font-style:normal;font-variant:normal;font-weight:normal;font-stretch:normal;line-height:125%;letter-spacing:0px;word-spacing:0px;fill:#ff0000;fill-opacity:1;stroke:#000000;stroke-width:2.95613742;stroke-miterlimit:4;stroke-opacity:1;stroke-dasharray:none;font-family:Impact;-inkscape-font-specification:Impact"
       id="text4044"
       transform="matrix(1.3485369,0,0,1.4725666,58.267171,-16.483363)">
      <path
         d="m 572.3158,387.63036 c 0.11864,-2.47997 0.22338,-4.12865 0.31421,-4.94605 0.0908,-0.81736 0.22228,-1.55235 0.39441,-2.20496 0.17211,-0.65256 0.38817,-1.23264 0.64819,-1.74023 0.26,-0.50754 0.62731,-1.07151 1.10193,-1.69189 0.4746,-0.62034 1.06419,-1.30625 1.7688,-2.05774 0.70457,-0.75144 1.66624,-1.74753 2.88501,-2.98829 l 1.13598,-1.17333 c 0.34715,-0.32517 0.67015,-0.676 0.969,-1.0525 0.29881,-0.37643 0.51524,-0.68441 0.64929,-0.92395 0.13401,-0.23946 0.22923,-0.45772 0.28564,-0.65478 0.0564,-0.19699 0.0846,-0.38778 0.0846,-0.57239 -2e-5,-0.88473 -0.53615,-1.58053 -1.6084,-2.0874 -1.07228,-0.5068 -2.70265,-0.76022 -4.89111,-0.76025 -3.15382,3e-5 -7.15724,0.68924 -12.01026,2.06762 l 1.08106,-6.20508 c 0.11132,-0.61812 0.24939,-1.39851 0.41418,-2.34118 0.16479,-0.94258 0.36951,-2.26497 0.61414,-3.96717 5.49022,-0.79829 10.3535,-1.19746 14.58984,-1.1975 2.79197,4e-5 5.36863,0.2216 7.72998,0.66467 2.3613,0.44316 4.43186,1.20964 6.21167,2.29944 1.77975,1.08989 3.14938,2.39689 4.10889,3.92102 0.95944,1.52421 1.43917,3.163 1.43921,4.91638 -4e-5,0.7017 -0.0751,1.44034 -0.22522,2.21594 -0.15018,0.77567 -0.35746,1.50003 -0.62183,2.1731 -0.26444,0.67313 -0.65445,1.42276 -1.17004,2.2489 -0.51566,0.8262 -1.11991,1.65713 -1.81275,2.4928 -0.6929,0.83572 -1.24881,1.4634 -1.66772,1.88305 -0.41898,0.41971 -1.22354,1.19571 -2.4137,2.32801 -1.19021,1.13234 -2.09219,2.01674 -2.70593,2.65319 -0.61379,0.6365 -1.09353,1.20889 -1.43921,1.71717 -0.34573,0.50832 -0.61965,1.06422 -0.82177,1.66772 -0.20218,0.60353 -0.4241,1.71974 -0.66578,3.34863 -2.76857,-0.0688 -5.08376,-0.10325 -6.94555,-0.10327 -1.80617,2e-5 -4.28175,0.0235 -7.42676,0.0703 z m -1.58423,20.2884 0.34277,-4.89551 c 0.0476,-2.70301 0.43859,-5.39237 0.58228,-8.09253 2.94872,0.0454 5.58617,0.0681 7.91235,0.0681 2.41698,10e-6 5.01927,-0.0227 7.80689,-0.0681 -0.2388,3.13917 -0.39224,5.62428 -0.46033,7.45532 -0.0681,1.83106 -0.16226,3.6753 -0.28235,5.53272 -3.58742,-0.0454 -6.1487,-0.0681 -7.68384,-0.0681 -1.63185,0 -4.3711,0.0227 -8.21777,0.0681 z"
         style="font-size:72px;font-weight:bold;fill:#ff0000;stroke:#000000;stroke-width:2.95613742;stroke-miterlimit:4;stroke-opacity:1;stroke-dasharray:none;font-family:Eras Bold ITC;-inkscape-font-specification:Eras Bold ITC"
         id="path4049"
         inkscape:connector-curvature="0"
         sodipodi:nodetypes="ccsssscccccccccccccccccccccssscccccccccscscsc" />
    </g>
    <path
       style="fill:#000000;fill-opacity:1;fill-rule:evenodd;stroke:none;stroke-width:1;stroke-linecap:butt;stroke-linejoin:round;stroke-miterlimit:4;stroke-dasharray:none;stroke-dashoffset:0;stroke-opacity:1"
       d="m 526.29827,689.20815 c -0.29948,0 -0.54362,0.10417 -0.73242,0.3125 -0.18229,0.20182 -0.27344,0.54362 -0.27344,1.02539 v 1.80664 h -0.72265 c -0.48177,0 -0.82682,0.0944 -1.03516,0.2832 -0.20182,0.1823 -0.30273,0.41993 -0.30273,0.71289 0,0.29948 0.10091,0.54362 0.30273,0.73243 0.20834,0.18228 0.55339,0.27343 1.03516,0.27343 h 0.72265 v 4.4043 c 0,0.78125 0.30925,1.44206 0.92774,1.98242 0.625,0.53386 1.55925,0.80078 2.80273,0.80078 0.64454,0 1.43555,-0.12695 2.37305,-0.38086 0.94401,-0.26041 1.57552,-0.54362 1.89453,-0.84961 0.20834,-0.1888 0.3125,-0.41341 0.3125,-0.67382 0,-0.27995 -0.0976,-0.51758 -0.29297,-0.71289 -0.1888,-0.19532 -0.41341,-0.29297 -0.67382,-0.29297 -0.1888,0 -0.44922,0.0846 -0.78126,0.2539 -0.86588,0.4362 -1.80989,0.6543 -2.83203,0.6543 -0.70312,0 -1.19141,-0.10743 -1.46484,-0.32227 -0.17578,-0.13672 -0.26367,-0.41992 -0.26367,-0.8496 v -4.01368 h 3.70117 c 0.48177,0 0.82356,-0.0911 1.02539,-0.27343 0.20833,-0.18881 0.3125,-0.42969 0.3125,-0.72266 0,-0.29948 -0.10417,-0.54036 -0.3125,-0.72266 -0.20183,-0.1888 -0.54362,-0.2832 -1.02539,-0.2832 h -3.70117 v -1.80664 c 0,-0.48177 -0.0944,-0.82357 -0.2832,-1.02539 -0.1823,-0.20833 -0.41993,-0.3125 -0.7129,-0.3125 z m -43.92578,2.88086 c -0.37109,0 -0.73567,0.0716 -1.09375,0.21484 -0.35156,0.13672 -0.69987,0.34831 -1.04492,0.63477 -0.27344,-0.28646 -0.55338,-0.50131 -0.83984,-0.64453 -0.0428,-0.0214 -0.0859,-0.0306 -0.12891,-0.0488 -1.81277,0.60073 -3.56949,1.26167 -5.29492,1.95312 0.19181,0.10302 0.44327,0.15625 0.75586,0.15625 v 4.86328 c -0.42318,0 -0.73568,0.0944 -0.9375,0.28321 -0.20183,0.18229 -0.30274,0.41992 -0.30274,0.71289 0,0.29948 0.10417,0.54362 0.3125,0.73242 0.20183,0.18229 0.54363,0.27344 1.0254,0.27344 h 1.80664 c 0.48177,0 0.82357,-0.0911 1.02539,-0.27344 0.20833,-0.1888 0.3125,-0.42968 0.3125,-0.72266 0,-0.29296 -0.10417,-0.53385 -0.3125,-0.72265 -0.20182,-0.1888 -0.51107,-0.28321 -0.92774,-0.28321 v -4.0332 c 0.31901,-0.43619 0.59245,-0.72591 0.82031,-0.86914 0.22787,-0.14974 0.45899,-0.22461 0.69336,-0.22461 0.22787,0 0.39714,0.0618 0.50782,0.18555 0.11718,0.11718 0.17578,0.32552 0.17578,0.625 v 6.31836 h 1.90429 c 0.48178,0 0.82357,-0.0911 1.02539,-0.27344 0.20183,-0.1888 0.30274,-0.42968 0.30274,-0.72266 0,-0.29296 -0.10091,-0.53385 -0.30274,-0.72265 -0.20181,-0.1888 -0.51106,-0.28321 -0.92773,-0.28321 v -4.0332 c 0.34505,-0.44922 0.63803,-0.75521 0.87891,-0.91797 0.1888,-0.11718 0.39388,-0.17578 0.61523,-0.17578 0.22787,0 0.39714,0.0586 0.50781,0.17578 0.11068,0.11719 0.16602,0.32877 0.16602,0.63477 v 6.31836 h 1.9043 c 0.48177,0 0.82357,-0.0911 1.02539,-0.27344 0.20182,-0.1888 0.30273,-0.42968 0.30273,-0.72266 0,-0.29296 -0.10091,-0.53385 -0.30273,-0.72265 -0.20182,-0.1888 -0.51107,-0.28321 -0.92774,-0.28321 v -4.48242 c 0,-0.84635 -0.30599,-1.52995 -0.91797,-2.05078 -0.46224,-0.39713 -1.06445,-0.5957 -1.80664,-0.5957 z m 21.44532,0 c -0.90495,0 -1.77409,0.22135 -2.60743,0.66406 -0.82682,0.44271 -1.46158,1.05143 -1.90429,1.82617 -0.44271,0.76824 -0.66407,1.55274 -0.66407,2.35352 0,0.78776 0.2181,1.54297 0.6543,2.26562 0.4362,0.72266 1.07096,1.29558 1.9043,1.71875 0.83333,0.41667 1.70573,0.625 2.61719,0.625 0.91797,0 1.79687,-0.21159 2.63671,-0.63476 0.84636,-0.42969 1.48112,-1.00261 1.9043,-1.71875 0.42969,-0.72266 0.64453,-1.4681 0.64453,-2.23633 0,-0.80729 -0.21484,-1.5918 -0.64453,-2.35352 -0.42969,-0.76822 -1.06771,-1.37695 -1.91406,-1.82617 -0.83985,-0.45572 -1.71549,-0.68359 -2.62695,-0.68359 z m 7.60742,0.26367 c -0.48177,0 -0.82683,0.0944 -1.03516,0.2832 -0.20183,0.1823 -0.30273,0.41993 -0.30273,0.71289 0,0.29948 0.1009,0.54362 0.30273,0.73243 0.20833,0.18228 0.55339,0.27343 1.03516,0.27343 h 0.34179 v 4.30664 c 0,0.52735 0.10091,0.9668 0.30274,1.31836 0.27995,0.48829 0.66081,0.8724 1.14258,1.15235 0.48177,0.27343 1.05143,0.41015 1.70898,0.41015 0.46875,0 0.96354,-0.0651 1.48438,-0.19531 0.52083,-0.13021 1.0677,-0.32552 1.64062,-0.58594 v 0.45899 h 1.9043 c 0.48176,0 0.82356,-0.0911 1.02539,-0.27344 0.20833,-0.1888 0.3125,-0.42968 0.3125,-0.72266 0,-0.29296 -0.10091,-0.53385 -0.30274,-0.72265 -0.20182,-0.1888 -0.51432,-0.28321 -0.9375,-0.28321 v -6.86523 h -2.7246 c -0.48177,0 -0.82683,0.0944 -1.03516,0.2832 -0.20183,0.1823 -0.30274,0.41993 -0.30274,0.71289 0,0.29948 0.10091,0.54362 0.30274,0.73243 0.20833,0.18228 0.55339,0.27343 1.03516,0.27343 h 0.72265 v 4.08203 c -0.68359,0.41667 -1.25976,0.70639 -1.72851,0.86915 -0.46224,0.15624 -0.89519,0.23437 -1.29883,0.23437 -0.42318,0 -0.73893,-0.0977 -0.94727,-0.29297 -0.20182,-0.20182 -0.30273,-0.51432 -0.30273,-0.9375 v -5.95703 z m 34.18359,0.97461 c -1.4e-4,0.008 -0.004,0.0136 -0.004,0.0215 10e-6,0.29948 0.10091,0.54362 0.30274,0.73243 0.20833,0.18228 0.55339,0.27343 1.03516,0.27343 h 0.34179 v 9.04297 h -0.34179 c -0.47526,0 -0.81706,0.0911 -1.0254,0.27344 -0.20833,0.1888 -0.3125,0.43294 -0.3125,0.73242 10e-6,0.29297 0.10091,0.53061 0.30274,0.71289 0.20833,0.18881 0.55339,0.2832 1.03516,0.2832 h 3.54492 c 0.48177,0 0.82356,-0.0944 1.02539,-0.2832 0.20833,-0.18228 0.3125,-0.41992 0.3125,-0.71289 0,-0.29948 -0.10417,-0.54362 -0.3125,-0.73242 -0.20183,-0.18229 -0.54362,-0.27344 -1.02539,-0.27344 h -1.20117 v -3.28125 c 0.49479,0.29948 0.99284,0.52409 1.49414,0.67383 0.5013,0.14974 1.00911,0.22461 1.52343,0.22461 1.19141,0 2.26237,-0.35807 3.21289,-1.07422 0.65982,-0.49769 1.1227,-1.0758 1.40039,-1.72852 -0.60605,-0.31058 -1.20717,-0.62565 -1.82617,-0.92578 -0.13252,0.33456 -0.3619,0.66051 -0.71679,0.97461 -0.56641,0.50131 -1.27279,0.75196 -2.11914,0.75196 -0.83984,0 -1.54623,-0.25065 -2.11914,-0.75196 -0.56641,-0.5078 -0.84961,-1.02864 -0.84961,-1.5625 0,-0.47526 0.19856,-0.97005 0.5957,-1.48437 0.0534,-0.0682 0.11708,-0.11773 0.17383,-0.17969 -1.44977,-0.60073 -2.93491,-1.16675 -4.44727,-1.70703 z m -41.79101,0.76367 c 1.02864,0 1.85872,0.36458 2.49023,1.09375 0.46224,0.54037 0.69336,1.13281 0.69336,1.77734 0,0.63151 -0.30599,1.22071 -0.91797,1.76758 -0.61198,0.54037 -1.36718,0.81055 -2.26562,0.81055 -0.89193,0 -1.64388,-0.27018 -2.25586,-0.81055 -0.61198,-0.54687 -0.91797,-1.13281 -0.91797,-1.75781 0,-0.76172 0.30273,-1.43229 0.9082,-2.01172 0.60547,-0.57942 1.36068,-0.86914 2.26563,-0.86914 z m -31.47461,0.77344 c -0.60612,0.25646 -1.20598,0.51827 -1.80079,0.78515 0.0302,0.051 0.0632,0.0969 0.0918,0.1504 h -0.41601 c -1.41042,0.6395 -2.7871,1.30783 -4.13282,2.00195 h 6.76563 v -0.84961 c 0,-0.65104 -0.10417,-1.22396 -0.3125,-1.71875 -0.0576,-0.13354 -0.13197,-0.24367 -0.19531,-0.36914 z m -7.3711,3.51172 c -0.59525,0.3175 -1.17768,0.64333 -1.75976,0.9707 0.19597,0.29444 0.41836,0.57786 0.69336,0.83789 0.96354,0.90495 2.24609,1.35742 3.84765,1.35742 0.93099,0 1.90104,-0.10742 2.91016,-0.32226 1.00911,-0.22136 1.64388,-0.45248 1.9043,-0.69336 0.19531,-0.1823 0.29296,-0.40365 0.29296,-0.66406 0,-0.28646 -0.0911,-0.52409 -0.27343,-0.7129 -0.18229,-0.1888 -0.4069,-0.2832 -0.67383,-0.2832 -0.19531,0 -0.54688,0.0651 -1.05469,0.19531 -1.23047,0.31901 -2.21679,0.47852 -2.95898,0.47852 -0.90495,0 -1.62435,-0.15951 -2.15821,-0.47852 -0.31555,-0.19089 -0.5682,-0.42238 -0.76953,-0.68554 z m 26.86328,0.50976 c -0.46874,0 -0.83659,0.12696 -1.10351,0.38086 -0.26694,0.25391 -0.40039,0.56966 -0.40039,0.94727 0,0.3776 0.13345,0.69336 0.40039,0.94726 0.26692,0.25391 0.63477,0.38086 1.10351,0.38086 0.46876,0 0.83659,-0.12695 1.10352,-0.38086 0.26693,-0.2539 0.40039,-0.56966 0.40039,-0.94726 0,-0.37761 -0.13346,-0.69336 -0.40039,-0.94727 -0.26693,-0.2539 -0.63476,-0.38086 -1.10352,-0.38086 z m 47.96875,0 c -0.46874,0 -0.83659,0.12696 -1.10351,0.38086 -0.26694,0.25391 -0.40039,0.56966 -0.40039,0.94727 0,0.3776 0.13345,0.69336 0.40039,0.94726 0.26692,0.25391 0.63477,0.38086 1.10351,0.38086 0.46876,0 0.83659,-0.12695 1.10352,-0.38086 0.26693,-0.2539 0.40039,-0.56966 0.40039,-0.94726 0,-0.37761 -0.13346,-0.69336 -0.40039,-0.94727 -0.26693,-0.2539 -0.63476,-0.38086 -1.10352,-0.38086 z m 19.41993,0.54297 c -0.0354,0.0232 -0.0737,0.0452 -0.10352,0.0723 -0.20183,0.18229 -0.30273,0.41992 -0.30273,0.71289 0,0.29948 0.1009,0.54362 0.30273,0.73242 0.20833,0.18229 0.55339,0.27344 1.03516,0.27344 h 2.19726 c -1.02009,-0.61348 -2.06622,-1.20788 -3.1289,-1.79102 z m -30.41602,13.83203 -4.30664,1.11328 c -0.4362,0.11719 -0.72266,0.25391 -0.85938,0.41016 -0.13672,0.14974 -0.20507,0.35807 -0.20507,0.625 0,0.29297 0.0911,0.54036 0.27343,0.74219 0.1888,0.20182 0.41016,0.30273 0.66407,0.30273 0.14323,0 0.35807,-0.0391 0.64453,-0.11719 l 1.78711,-0.46874 v 8.3496 h -2.02149 c -0.48177,0 -0.82682,0.0944 -1.03515,0.28321 -0.20182,0.18229 -0.30274,0.41992 -0.30274,0.71289 0,0.29948 0.10092,0.54362 0.30274,0.73242 0.20833,0.18229 0.55338,0.27344 1.03515,0.27344 h 6.04492 c 0.48178,0 0.82358,-0.0911 1.02539,-0.27344 0.20834,-0.1888 0.3125,-0.42968 0.3125,-0.72266 0,-0.29947 -0.10416,-0.54036 -0.3125,-0.72265 -0.20181,-0.1888 -0.54361,-0.28321 -1.02539,-0.28321 h -2.02148 z m 46.93359,0 c -1.39974,0 -2.47395,0.59896 -3.22265,1.79688 -0.7487,1.1914 -1.12305,2.43489 -1.12305,3.73047 v 2.19726 c 0,1.06772 0.24739,2.08009 0.74219,3.03711 0.5013,0.95052 1.02864,1.60482 1.58203,1.96289 0.55989,0.35157 1.24349,0.52735 2.05078,0.52735 1.39974,0 2.47396,-0.59571 3.22266,-1.78711 0.75521,-1.19141 1.13281,-2.43815 1.13281,-3.74024 v -2.19726 c 0,-1.07422 -0.25391,-2.08659 -0.76172,-3.03711 -0.50131,-0.95704 -1.0319,-1.61133 -1.5918,-1.96289 -0.55338,-0.35157 -1.23047,-0.52735 -2.03125,-0.52735 z m -86.54296,0.29297 c -0.48177,0 -0.82683,0.0944 -1.03516,0.2832 -0.20183,0.18229 -0.30274,0.41992 -0.30274,0.7129 0,0.29948 0.10417,0.54362 0.3125,0.73242 0.20834,0.18229 0.55013,0.27344 1.0254,0.27344 h 1.61132 v 8.6621 h -2.40234 c -0.48177,0 -0.82682,0.0944 -1.03516,0.28321 -0.20182,0.18229 -0.30273,0.41992 -0.30273,0.71289 0,0.29948 0.10091,0.54362 0.30273,0.73242 0.20834,0.18229 0.55339,0.27344 1.03516,0.27344 h 6.80664 c 0.48177,0 0.82356,-0.0911 1.02539,-0.27344 0.20833,-0.1888 0.3125,-0.42968 0.3125,-0.72266 0,-0.29947 -0.10417,-0.54036 -0.3125,-0.72265 -0.20183,-0.1888 -0.54362,-0.28321 -1.02539,-0.28321 h -2.40234 v -10.66406 z m -45.98829,1.19531 c -0.63928,0.66624 -1.26141,1.33531 -1.86328,2.00782 v 0.5957 h -0.52539 c -0.45738,0.5218 -0.91098,1.04234 -1.3457,1.56641 0.0377,0.0539 0.063,0.11509 0.11328,0.16211 0.20833,0.18228 0.55339,0.27343 1.03516,0.27343 h 0.72265 v 4.4043 c 0,0.78125 0.30925,1.44206 0.92774,1.98242 0.625,0.53386 1.55924,0.80078 2.80273,0.80078 0.64453,0 1.43555,-0.12695 2.37305,-0.38086 0.944,-0.26041 1.57552,-0.54362 1.89453,-0.84961 0.20833,-0.1888 0.3125,-0.41341 0.3125,-0.67382 0,-0.27995 -0.0977,-0.51758 -0.29297,-0.71289 -0.18881,-0.19532 -0.41341,-0.29297 -0.67383,-0.29297 -0.1888,0 -0.44921,0.0846 -0.78125,0.2539 -0.86588,0.4362 -1.8099,0.6543 -2.83203,0.6543 -0.70313,0 -1.1914,-0.10743 -1.46484,-0.32227 -0.17578,-0.13672 -0.26367,-0.41992 -0.26367,-0.8496 v -4.01368 h 3.70117 c 0.48177,0 0.82356,-0.0911 1.02539,-0.27343 0.20833,-0.18881 0.3125,-0.42969 0.3125,-0.72266 0,-0.29948 -0.10417,-0.54036 -0.3125,-0.72266 -0.20183,-0.1888 -0.54362,-0.2832 -1.02539,-0.2832 h -3.70117 v -1.80664 c 0,-0.33457 -0.0476,-0.59732 -0.13868,-0.79688 z m 132.54102,0.51368 c 0.625,0 1.11003,0.2246 1.45508,0.67382 0.60547,0.8138 0.9082,1.76433 0.9082,2.85157 v 2.19726 c 0,1.10678 -0.28971,2.03451 -0.86914,2.78321 -0.38411,0.49478 -0.87565,0.74218 -1.47461,0.74218 -0.63151,0 -1.11654,-0.22461 -1.45508,-0.67383 -0.61198,-0.80729 -0.91797,-1.7578 -0.91797,-2.85156 v -2.19726 c 0,-1.10678 0.28972,-2.03451 0.86914,-2.78321 0.38412,-0.49478 0.87891,-0.74218 1.48438,-0.74218 z m -96.05469,1.82617 c -0.41666,0 -0.88216,0.0423 -1.39648,0.12695 -0.51432,0.0781 -1.01888,0.18555 -1.51367,0.32227 -0.3711,0.10416 -0.61524,0.19531 -0.73243,0.27343 -0.11716,0.0716 -0.2083,0.16928 -0.27343,0.29297 -0.0651,0.1237 -0.0977,0.27018 -0.0977,0.43946 0,0.29948 0.0912,0.54688 0.27344,0.74218 0.1888,0.18881 0.41666,0.28321 0.68359,0.28321 0.19531,0 0.46875,-0.0423 0.82031,-0.12696 0.94402,-0.23437 1.71224,-0.35156 2.30469,-0.35156 0.72265,0 1.21094,0.0944 1.46484,0.2832 0.26043,0.1888 0.39063,0.43295 0.39063,0.73243 v 0.47851 c -0.79427,-0.1302 -1.49414,-0.19531 -2.09961,-0.19531 -1.51042,0 -2.69531,0.36133 -3.55469,1.08398 -0.85286,0.71615 -1.27929,1.49414 -1.27929,2.33399 0,0.6901 0.33528,1.32162 1.00586,1.89453 0.67057,0.56641 1.54296,0.84961 2.61718,0.84961 0.4948,0 1.04493,-0.0684 1.65039,-0.20508 0.60547,-0.13021 1.15885,-0.32878 1.66016,-0.5957 v 0.46875 h 2.34375 c 0.48177,0 0.82356,-0.0911 1.02539,-0.27344 0.20833,-0.1888 0.3125,-0.42968 0.3125,-0.72266 0,-0.29947 -0.10417,-0.54036 -0.3125,-0.72265 -0.20183,-0.1888 -0.54362,-0.28321 -1.02539,-0.28321 h -0.3418 v -4.12109 c 0,-0.93099 -0.34505,-1.66341 -1.03515,-2.19727 -0.6836,-0.54036 -1.64714,-0.81054 -2.89063,-0.81054 z m 35.88867,0 c -1.35416,0 -2.55208,0.44271 -3.59375,1.32812 -1.03515,0.87891 -1.55273,2.02148 -1.55273,3.42774 0,1.32161 0.47852,2.43489 1.43555,3.33984 0.96354,0.90495 2.24609,1.35742 3.84765,1.35742 0.93099,0 1.90104,-0.10742 2.91016,-0.32226 1.00911,-0.22136 1.64388,-0.45248 1.9043,-0.69336 0.19531,-0.1823 0.29296,-0.40365 0.29296,-0.66406 0,-0.28646 -0.0911,-0.52409 -0.27343,-0.7129 -0.18229,-0.1888 -0.4069,-0.2832 -0.67383,-0.2832 -0.19531,0 -0.54688,0.0651 -1.05469,0.19531 -1.23047,0.31901 -2.21679,0.47852 -2.95898,0.47852 -0.90495,0 -1.62435,-0.15951 -2.15821,-0.47852 -0.52734,-0.31901 -0.89518,-0.73893 -1.10351,-1.25976 h 8.21289 v -0.84961 c 0,-0.65104 -0.10417,-1.22396 -0.3125,-1.71875 -0.30599,-0.70963 -0.69336,-1.30534 -1.16211,-1.78711 -0.33203,-0.33203 -0.83984,-0.64128 -1.52344,-0.92773 -0.67708,-0.28646 -1.42253,-0.42969 -2.23633,-0.42969 z m -52.42187,0.26367 c -0.48177,0 -0.82682,0.0944 -1.03516,0.2832 -0.20182,0.1823 -0.30273,0.41993 -0.30273,0.71289 0,0.29948 0.10091,0.54362 0.30273,0.73243 0.20834,0.18228 0.55339,0.27343 1.03516,0.27343 h 0.2832 l 3.34961,6.86524 h 2.08985 l 3.3496,-6.86524 h 0.33204 c 0.48177,0 0.82357,-0.0911 1.02539,-0.27343 0.20833,-0.18881 0.3125,-0.42969 0.3125,-0.72266 0,-0.29948 -0.10417,-0.54036 -0.3125,-0.72266 -0.20182,-0.1888 -0.54362,-0.2832 -1.02539,-0.2832 h -2.74414 c -0.48177,0 -0.82683,0.0944 -1.03516,0.2832 -0.20183,0.1823 -0.30274,0.41993 -0.30274,0.71289 0,0.37761 0.16277,0.66732 0.48829,0.86914 0.14974,0.0911 0.49153,0.13672 1.02539,0.13672 l -2.15821,4.4336 -2.17773,-4.4336 c 0.54036,0 0.88867,-0.0488 1.04492,-0.14648 0.3125,-0.19531 0.46875,-0.47852 0.46875,-0.84961 0,-0.29948 -0.10417,-0.54036 -0.3125,-0.72266 -0.20183,-0.1888 -0.54036,-0.2832 -1.01562,-0.2832 z m 36.26953,0 c -0.48177,0 -0.82682,0.0944 -1.03516,0.2832 -0.20182,0.1823 -0.30273,0.41993 -0.30273,0.71289 0,0.29948 0.10091,0.54362 0.30273,0.73243 0.20834,0.18228 0.55339,0.27343 1.03516,0.27343 h 0.3418 v 4.30664 c 0,0.52735 0.1009,0.9668 0.30273,1.31836 0.27995,0.48829 0.66081,0.8724 1.14258,1.15235 0.48177,0.27343 1.05143,0.41015 1.70898,0.41015 0.46876,0 0.96355,-0.0651 1.48438,-0.19531 0.52083,-0.13021 1.06771,-0.32552 1.64062,-0.58594 v 0.45899 h 1.9043 c 0.48177,0 0.82356,-0.0911 1.02539,-0.27344 0.20833,-0.1888 0.3125,-0.42968 0.3125,-0.72266 0,-0.29296 -0.10091,-0.53385 -0.30273,-0.72265 -0.20182,-0.1888 -0.51432,-0.28321 -0.9375,-0.28321 v -6.86523 h -2.72461 c -0.48177,0 -0.82683,0.0944 -1.03516,0.2832 -0.20183,0.1823 -0.30273,0.41993 -0.30273,0.71289 0,0.29948 0.1009,0.54362 0.30273,0.73243 0.20833,0.18228 0.55339,0.27343 1.03516,0.27343 h 0.72265 v 4.08203 c -0.68359,0.41667 -1.25977,0.70639 -1.72851,0.86915 -0.46224,0.15624 -0.89518,0.23437 -1.29883,0.23437 -0.42318,0 -0.73893,-0.0977 -0.94727,-0.29297 -0.20182,-0.20182 -0.30273,-0.51432 -0.30273,-0.9375 v -5.95703 z m 48.07617,0.2832 c -0.48177,0 -0.82682,0.0944 -1.03515,0.28321 -0.20182,0.18228 -0.30274,0.41991 -0.30274,0.71289 0,0.29948 0.10092,0.54362 0.30274,0.73242 0.20833,0.18229 0.55338,0.27344 1.03515,0.27344 h 8.55469 c 0.48177,0 0.82356,-0.0911 1.02539,-0.27344 0.20833,-0.1888 0.3125,-0.42968 0.3125,-0.72266 0,-0.29948 -0.10417,-0.54037 -0.3125,-0.72265 -0.20183,-0.18881 -0.54362,-0.28321 -1.02539,-0.28321 z m -31.875,1.45508 c 0.6836,0 1.27279,0.14323 1.76758,0.42969 0.49479,0.27995 0.89518,0.70638 1.20117,1.2793 h -5.9375 c 0.3125,-0.57292 0.71615,-0.99935 1.21094,-1.2793 0.49479,-0.28646 1.08073,-0.42969 1.75781,-0.42969 z m 31.875,2.31445 c -0.48177,0 -0.82682,0.0944 -1.03515,0.28321 -0.20182,0.18229 -0.30274,0.42318 -0.30274,0.72265 0,0.29948 0.10092,0.54037 0.30274,0.72266 0.20833,0.18229 0.55338,0.27344 1.03515,0.27344 h 8.55469 c 0.48177,0 0.82356,-0.0911 1.02539,-0.27344 0.20833,-0.18229 0.3125,-0.42318 0.3125,-0.72266 0,-0.29947 -0.10417,-0.54036 -0.3125,-0.72265 -0.20183,-0.1888 -0.54362,-0.28321 -1.02539,-0.28321 z m -68.10547,0.9961 c 0.67709,0 1.41602,0.0781 2.2168,0.23437 v 0.85938 c -0.47526,0.32552 -1.01888,0.58268 -1.63086,0.77148 -0.60547,0.18881 -1.14909,0.28321 -1.63086,0.28321 -0.56641,0 -1.01237,-0.10742 -1.33789,-0.32227 -0.17578,-0.11719 -0.26367,-0.27018 -0.26367,-0.45898 0,-0.26042 0.18229,-0.51758 0.54687,-0.77149 0.58594,-0.39713 1.28581,-0.5957 2.09961,-0.5957 z m -43.31054,0.91406 c -0.68505,0.97053 -1.31832,1.93823 -1.92383,2.90234 0.008,5e-5 0.0119,0.002 0.0195,0.002 h 1.80664 c 0.48177,0 0.82356,-0.0911 1.02539,-0.27344 0.20833,-0.1888 0.3125,-0.42968 0.3125,-0.72266 0,-0.29947 -0.10091,-0.54036 -0.30273,-0.72265 -0.20182,-0.1888 -0.51432,-0.28321 -0.9375,-0.28321 v -0.90234 z m 150.89648,0.30078 -1.22851,3.92188 c -0.0456,0.14322 -0.0684,0.25716 -0.0684,0.34179 0,0.11068 0.0553,0.21485 0.16601,0.3125 0.11719,0.0977 0.25716,0.14649 0.41992,0.14649 0.17578,0 0.35482,-0.15299 0.53711,-0.45899 l 1.47071,-2.38867 c -0.41597,-0.62597 -0.8513,-1.25058 -1.29688,-1.875 z m -34.19727,14.64453 -4.30664,1.11328 c -0.4362,0.11719 -0.72266,0.25391 -0.85937,0.41016 -0.13672,0.14974 -0.20508,0.35807 -0.20508,0.625 0,0.29297 0.0912,0.54036 0.27344,0.74219 0.1888,0.20182 0.41015,0.30273 0.66406,0.30273 0.14323,0 0.35807,-0.0391 0.64453,-0.11719 l 1.78711,-0.46874 v 8.3496 h -2.02148 c -0.48177,0 -0.82683,0.0944 -1.03516,0.28321 -0.20183,0.18229 -0.30273,0.41992 -0.30273,0.71289 0,0.29948 0.1009,0.54362 0.30273,0.73242 0.20833,0.18229 0.55339,0.27344 1.03516,0.27344 h 6.04492 c 0.48177,0 0.82356,-0.0911 1.02539,-0.27344 0.20833,-0.1888 0.3125,-0.42968 0.3125,-0.72266 0,-0.29947 -0.10417,-0.54036 -0.3125,-0.72265 -0.20183,-0.1888 -0.54362,-0.28321 -1.02539,-0.28321 h -2.02149 z m -70.21484,0.11719 c -0.2474,0 -0.47201,0.0879 -0.67383,0.26367 -0.20182,0.16928 -0.51432,0.63151 -0.9375,1.38672 -0.58594,1.05469 -1.01888,2.01171 -1.29883,2.87109 -0.3776,1.16536 -0.5664,2.31771 -0.5664,3.45704 0,1.10026 0.17903,2.2233 0.53711,3.36914 0.22786,0.74869 0.65104,1.69921 1.26953,2.85156 0.42969,0.79427 0.77474,1.30534 1.03516,1.5332 0.18229,0.15626 0.39387,0.23438 0.63476,0.23438 0.28646,0 0.52735,-0.0977 0.72266,-0.29297 0.19531,-0.19531 0.29297,-0.42969 0.29297,-0.70313 0,-0.1953 -0.0781,-0.41992 -0.23438,-0.67382 -0.70313,-1.15235 -1.21745,-2.23308 -1.54297,-3.24219 -0.31901,-1.00912 -0.47851,-2.03451 -0.47851,-3.07617 0,-1.03516 0.1595,-2.0573 0.47851,-3.06641 0.32552,-1.00911 0.83984,-2.08984 1.54297,-3.24219 0.15625,-0.26041 0.23438,-0.48503 0.23438,-0.67383 0,-0.27344 -0.0977,-0.50781 -0.29297,-0.70312 -0.19531,-0.19531 -0.4362,-0.29297 -0.72266,-0.29297 z m 102.54883,0 c -0.28646,0 -0.52734,0.0977 -0.72266,0.29297 -0.19531,0.19531 -0.29297,0.42968 -0.29297,0.70312 0,0.1888 0.0781,0.41342 0.23438,0.67383 0.70312,1.15235 1.21419,2.23308 1.5332,3.24219 0.32552,1.00911 0.48828,2.03125 0.48828,3.06641 0,1.04166 -0.16276,2.06705 -0.48828,3.07617 -0.31901,1.00911 -0.83008,2.08984 -1.5332,3.24219 -0.15625,0.2539 -0.23438,0.47852 -0.23438,0.67382 0,0.27344 0.0977,0.50782 0.29297,0.70313 0.19532,0.19531 0.4362,0.29297 0.72266,0.29297 0.24739,0 0.47201,-0.0879 0.67383,-0.26367 0.20182,-0.17579 0.51432,-0.64128 0.9375,-1.39649 0.58594,-1.04817 1.01888,-2.00195 1.29883,-2.86133 0.3776,-1.17187 0.5664,-2.32747 0.5664,-3.46679 0,-1.09376 -0.17903,-2.2168 -0.53711,-3.36914 -0.22786,-0.74219 -0.65104,-1.68945 -1.26953,-2.8418 -0.42969,-0.80078 -0.77473,-1.31185 -1.03515,-1.5332 -0.1823,-0.15626 -0.39389,-0.23438 -0.63477,-0.23438 z m -156.625,0.17578 c -0.30659,1.1021 -0.55145,2.17644 -0.71875,3.21094 v 7.45312 c -0.082,-10e-4 -0.13029,0.008 -0.20313,0.01 0.0356,0.66026 0.0822,1.32437 0.13868,1.99219 h 2.20312 c 0.48177,0 0.82357,-0.0911 1.02539,-0.27344 0.20834,-0.1888 0.3125,-0.42968 0.3125,-0.72266 0,-0.37109 -0.1595,-0.65755 -0.47851,-0.85937 -0.14974,-0.0977 -0.48178,-0.14649 -0.9961,-0.14649 v -3.75 c 0.57943,-0.57292 1.03842,-0.944 1.37696,-1.11328 0.34505,-0.17578 0.73893,-0.26367 1.18164,-0.26367 0.59896,0 1.05142,0.13998 1.35742,0.41992 0.23437,0.20834 0.35156,0.56966 0.35156,1.08399 v 3.62304 c -0.50131,-0.007 -0.83333,0.0423 -0.99609,0.14649 -0.3125,0.20182 -0.46875,0.48502 -0.46875,0.84961 0,0.29948 0.1009,0.54362 0.30273,0.73242 0.20833,0.18229 0.55013,0.27344 1.02539,0.27344 h 2.28516 c 0.48176,0 0.82356,-0.0911 1.02539,-0.27344 0.20182,-0.1888 0.30273,-0.42968 0.30273,-0.72266 0,-0.37109 -0.15625,-0.65755 -0.46875,-0.85937 -0.15624,-0.0977 -0.48828,-0.14649 -0.99609,-0.14649 v -3.75976 c 0,-0.76823 -0.17904,-1.40299 -0.53711,-1.9043 -0.35157,-0.50781 -0.79753,-0.87891 -1.33789,-1.11328 -0.54037,-0.23437 -1.1556,-0.35156 -1.8457,-0.35156 -0.4362,0 -0.86915,0.0619 -1.29883,0.18554 -0.42318,0.11719 -0.8431,0.29949 -1.25977,0.54688 v -4.26758 h -1.2832 z m 13.67578,0 v 2.11914 h 2.38281 v -2.11914 z m 11.04492,0 c -0.48177,0 -0.82682,0.0944 -1.03515,0.2832 -0.20182,0.18229 -0.30274,0.41992 -0.30274,0.7129 0,0.29948 0.10417,0.54362 0.3125,0.73242 0.20834,0.18229 0.55013,0.27344 1.02539,0.27344 h 1.61133 v 8.6621 h -2.40234 c -0.48177,0 -0.82683,0.0944 -1.03516,0.28321 -0.20183,0.18229 -0.30273,0.41992 -0.30273,0.71289 0,0.29948 0.1009,0.54362 0.30273,0.73242 0.20833,0.18229 0.55339,0.27344 1.03516,0.27344 h 6.80664 c 0.48177,0 0.82356,-0.0911 1.02539,-0.27344 0.20833,-0.1888 0.3125,-0.42968 0.3125,-0.72266 0,-0.29947 -0.10417,-0.54036 -0.3125,-0.72265 -0.20183,-0.1888 -0.54362,-0.28321 -1.02539,-0.28321 h -2.40235 v -10.66406 z m 59.96094,0 c -0.48177,0 -0.82682,0.0944 -1.03516,0.2832 -0.20182,0.18229 -0.30273,0.41992 -0.30273,0.7129 0,0.29948 0.10417,0.54362 0.3125,0.73242 0.20833,0.18229 0.55013,0.27344 1.02539,0.27344 h 1.61133 v 8.6621 h -2.40235 c -0.48176,0 -0.82682,0.0944 -1.03515,0.28321 -0.20183,0.18229 -0.30274,0.41992 -0.30274,0.71289 0,0.29948 0.10091,0.54362 0.30274,0.73242 0.20833,0.18229 0.55339,0.27344 1.03515,0.27344 h 6.80665 c 0.48177,0 0.82357,-0.0911 1.02539,-0.27344 0.20833,-0.1888 0.3125,-0.42968 0.3125,-0.72266 0,-0.29947 -0.10417,-0.54036 -0.3125,-0.72265 -0.20182,-0.1888 -0.54362,-0.28321 -1.02539,-0.28321 h -2.40235 v -10.66406 z m 54.76563,1.3086 c -0.16927,0 -0.42969,0.0944 -0.78126,0.2832 l -9.6582,5.37109 9.6582,5.3711 c 0.35157,0.19531 0.61524,0.29297 0.79102,0.29297 0.26693,-10e-6 0.50131,-0.10091 0.70313,-0.30274 0.20182,-0.20833 0.30273,-0.45247 0.30273,-0.73242 0,-0.22135 -0.0553,-0.40364 -0.16602,-0.54688 -0.10416,-0.14322 -0.31901,-0.30598 -0.64453,-0.48828 l -6.48437,-3.59375 6.48437,-3.59375 c 0.32552,-0.18228 0.54037,-0.34505 0.64453,-0.48828 0.11068,-0.14323 0.16602,-0.32552 0.16602,-0.54687 0,-0.27995 -0.10091,-0.52083 -0.30273,-0.72266 -0.20182,-0.20182 -0.43945,-0.30273 -0.71289,-0.30273 z m -100.33204,2.22656 c -1.35416,0 -2.55208,0.44271 -3.59375,1.32812 -1.03515,0.87891 -1.55273,2.02148 -1.55273,3.42774 0,1.32161 0.47852,2.43489 1.43555,3.33984 0.96354,0.90495 2.24609,1.35742 3.84765,1.35742 0.93099,0 1.90104,-0.10742 2.91016,-0.32226 1.00911,-0.22136 1.64388,-0.45248 1.9043,-0.69336 0.19531,-0.1823 0.29296,-0.40365 0.29296,-0.66406 0,-0.28646 -0.0911,-0.52409 -0.27343,-0.7129 -0.18229,-0.1888 -0.4069,-0.2832 -0.67383,-0.2832 -0.19531,0 -0.54688,0.0651 -1.05469,0.19531 -1.23047,0.31901 -2.21679,0.47852 -2.95898,0.47852 -0.90495,0 -1.62435,-0.15951 -2.15821,-0.47852 -0.52734,-0.31901 -0.89518,-0.73893 -1.10351,-1.25976 h 8.21289 v -0.84961 c 0,-0.65104 -0.10417,-1.22396 -0.3125,-1.71875 -0.30599,-0.70963 -0.69336,-1.30534 -1.16211,-1.78711 -0.33203,-0.33203 -0.83984,-0.64128 -1.52344,-0.92773 -0.67708,-0.28646 -1.42253,-0.42969 -2.23633,-0.42969 z m 36.06446,0 c -0.41667,0 -0.88217,0.0423 -1.39649,0.12695 -0.51432,0.0781 -1.01888,0.18555 -1.51367,0.32227 -0.37109,0.10416 -0.61523,0.19531 -0.73242,0.27343 -0.11723,0.0716 -0.20837,0.16928 -0.27344,0.29297 -0.0651,0.1237 -0.0977,0.27018 -0.0977,0.43946 10e-6,0.29948 0.0912,0.54688 0.27344,0.74218 0.1888,0.18881 0.41667,0.28321 0.6836,0.28321 0.19531,0 0.46874,-0.0423 0.82031,-0.12696 0.94401,-0.23437 1.71224,-0.35156 2.30469,-0.35156 0.72266,0 1.21093,0.0944 1.46484,0.2832 0.26041,0.1888 0.39062,0.43295 0.39062,0.73243 v 0.47851 c -0.79426,-0.1302 -1.49413,-0.19531 -2.0996,-0.19531 -1.51042,0 -2.69532,0.36133 -3.55469,1.08398 -0.85287,0.71615 -1.2793,1.49414 -1.2793,2.33399 0,0.6901 0.33529,1.32162 1.00586,1.89453 0.67057,0.56641 1.54297,0.84961 2.61719,0.84961 0.49478,0 1.04492,-0.0684 1.65039,-0.20508 0.60547,-0.13021 1.15886,-0.32878 1.66015,-0.5957 v 0.46875 h 2.34376 c 0.48177,0 0.82357,-0.0911 1.02539,-0.27344 0.20833,-0.1888 0.3125,-0.42968 0.3125,-0.72266 0,-0.29947 -0.10417,-0.54036 -0.3125,-0.72265 -0.20182,-0.1888 -0.54362,-0.28321 -1.02539,-0.28321 h -0.3418 v -4.12109 c 0,-0.93099 -0.34505,-1.66341 -1.03516,-2.19727 -0.68359,-0.54036 -1.64713,-0.81054 -2.89062,-0.81054 z m 35.88867,0 c -1.35417,0 -2.55208,0.44271 -3.59375,1.32812 -1.03516,0.87891 -1.55274,2.02148 -1.55274,3.42774 0,1.32161 0.47852,2.43489 1.43555,3.33984 0.96354,0.90495 2.2461,1.35742 3.84766,1.35742 0.93099,0 1.90104,-0.10742 2.91015,-0.32226 1.00912,-0.22136 1.64388,-0.45248 1.9043,-0.69336 0.19531,-0.1823 0.29297,-0.40365 0.29297,-0.66406 0,-0.28646 -0.0911,-0.52409 -0.27344,-0.7129 -0.18229,-0.1888 -0.4069,-0.2832 -0.67383,-0.2832 -0.19531,0 -0.54687,0.0651 -1.05468,0.19531 -1.23047,0.31901 -2.2168,0.47852 -2.95899,0.47852 -0.90494,0 -1.62435,-0.15951 -2.1582,-0.47852 -0.52735,-0.31901 -0.89518,-0.73893 -1.10352,-1.25976 h 8.21289 v -0.84961 c 0,-0.65104 -0.10416,-1.22396 -0.3125,-1.71875 -0.30598,-0.70963 -0.69335,-1.30534 -1.16211,-1.78711 -0.33203,-0.33203 -0.83984,-0.64128 -1.52343,-0.92773 -0.67708,-0.28646 -1.42253,-0.42969 -2.23633,-0.42969 z m -98.34961,0.26367 c -0.48177,0 -0.82682,0.0944 -1.03516,0.2832 -0.20182,0.1823 -0.30273,0.41993 -0.30273,0.71289 0,0.29948 0.10417,0.54362 0.3125,0.73243 0.20833,0.18228 0.55013,0.27343 1.02539,0.27343 h 1.61133 v 4.86328 h -2.40235 c -0.48177,0 -0.82682,0.0944 -1.03515,0.28321 -0.20182,0.18229 -0.30274,0.41992 -0.30274,0.71289 0,0.29948 0.10092,0.54362 0.30274,0.73242 0.20833,0.18229 0.55338,0.27344 1.03515,0.27344 h 6.80664 c 0.48178,0 0.82357,-0.0911 1.0254,-0.27344 0.20833,-0.1888 0.3125,-0.42968 0.3125,-0.72266 -10e-6,-0.29947 -0.10417,-0.54036 -0.3125,-0.72265 -0.20182,-0.1888 -0.54362,-0.28321 -1.0254,-0.28321 h -2.40234 v -6.86523 z m 45.92773,0 c -0.48177,0 -0.82682,0.0944 -1.03515,0.2832 -0.20182,0.1823 -0.30274,0.41993 -0.30274,0.71289 0,0.29948 0.10092,0.54362 0.30274,0.73243 0.20833,0.18228 0.55338,0.27343 1.03515,0.27343 h 0.28321 l 3.34961,6.86524 h 2.08984 l 3.34961,-6.86524 h 0.33203 c 0.48177,0 0.82356,-0.0911 1.02539,-0.27343 0.20833,-0.18881 0.3125,-0.42969 0.3125,-0.72266 0,-0.29948 -0.10417,-0.54036 -0.3125,-0.72266 -0.20183,-0.1888 -0.54362,-0.2832 -1.02539,-0.2832 h -2.74414 c -0.48177,0 -0.82682,0.0944 -1.03516,0.2832 -0.20182,0.1823 -0.30273,0.41993 -0.30273,0.71289 0,0.37761 0.16276,0.66732 0.48828,0.86914 0.14974,0.0911 0.49154,0.13672 1.02539,0.13672 l -2.1582,4.4336 -2.17774,-4.4336 c 0.54037,0 0.88868,-0.0488 1.04493,-0.14648 0.3125,-0.19531 0.46875,-0.47852 0.46875,-0.84961 0,-0.29948 -0.10417,-0.54036 -0.3125,-0.72266 -0.20182,-0.1888 -0.54037,-0.2832 -1.01563,-0.2832 z m 36.26953,0 c -0.48176,0 -0.82682,0.0944 -1.03515,0.2832 -0.20183,0.1823 -0.30274,0.41993 -0.30274,0.71289 0,0.29948 0.10091,0.54362 0.30274,0.73243 0.20833,0.18228 0.55339,0.27343 1.03515,0.27343 h 0.3418 v 4.30664 c 0,0.52735 0.10092,0.9668 0.30274,1.31836 0.27995,0.48829 0.66081,0.8724 1.14257,1.15235 0.48178,0.27343 1.05144,0.41015 1.70899,0.41015 0.46875,0 0.96354,-0.0651 1.48437,-0.19531 0.52084,-0.13021 1.06771,-0.32552 1.64063,-0.58594 v 0.45899 h 1.9043 c 0.48177,0 0.82357,-0.0911 1.02539,-0.27344 0.20833,-0.1888 0.3125,-0.42968 0.3125,-0.72266 0,-0.29296 -0.10092,-0.53385 -0.30274,-0.72265 -0.20182,-0.1888 -0.51432,-0.28321 -0.9375,-0.28321 v -6.86523 h -2.72461 c -0.48177,0 -0.82682,0.0944 -1.03515,0.2832 -0.20182,0.1823 -0.30274,0.41993 -0.30274,0.71289 0,0.29948 0.10092,0.54362 0.30274,0.73243 0.20833,0.18228 0.55338,0.27343 1.03515,0.27343 h 0.72266 v 4.08203 c -0.68359,0.41667 -1.25976,0.70639 -1.72852,0.86915 -0.46224,0.15624 -0.89518,0.23437 -1.29882,0.23437 -0.42318,0 -0.73894,-0.0977 -0.94727,-0.29297 -0.20183,-0.20182 -0.30273,-0.51432 -0.30273,-0.9375 v -5.95703 z m 48.07618,0.2832 c -0.48177,0 -0.82683,0.0944 -1.03516,0.28321 -0.20183,0.18228 -0.30273,0.41991 -0.30273,0.71289 0,0.29948 0.1009,0.54362 0.30273,0.73242 0.20833,0.18229 0.55339,0.27344 1.03516,0.27344 h 8.55468 c 0.48178,0 0.82358,-0.0911 1.0254,-0.27344 0.20833,-0.1888 0.3125,-0.42968 0.3125,-0.72266 0,-0.29948 -0.10417,-0.54037 -0.3125,-0.72265 -0.20182,-0.18881 -0.54362,-0.28321 -1.0254,-0.28321 z m -103.82813,1.45508 c 0.6836,0 1.27279,0.14323 1.76758,0.42969 0.49479,0.27995 0.89518,0.70638 1.20117,1.2793 h -5.9375 c 0.3125,-0.57292 0.71615,-0.99935 1.21094,-1.2793 0.49479,-0.28646 1.08073,-0.42969 1.75781,-0.42969 z m 71.95313,0 c 0.68359,0 1.27278,0.14323 1.76758,0.42969 0.49479,0.27995 0.89518,0.70638 1.20117,1.2793 h -5.9375 c 0.3125,-0.57292 0.71614,-0.99935 1.21093,-1.2793 0.4948,-0.28646 1.08074,-0.42969 1.75782,-0.42969 z m 31.875,2.31445 c -0.48177,0 -0.82683,0.0944 -1.03516,0.28321 -0.20183,0.18229 -0.30273,0.42318 -0.30273,0.72265 0,0.29948 0.1009,0.54037 0.30273,0.72266 0.20833,0.18229 0.55339,0.27344 1.03516,0.27344 h 8.55468 c 0.48178,0 0.82358,-0.0911 1.0254,-0.27344 0.20833,-0.18229 0.3125,-0.42318 0.3125,-0.72266 0,-0.29947 -0.10417,-0.54036 -0.3125,-0.72265 -0.20182,-0.1888 -0.54362,-0.28321 -1.0254,-0.28321 z m -68.10547,0.9961 c 0.67708,0 1.41601,0.0781 2.21679,0.23437 v 0.85938 c -0.47526,0.32552 -1.01887,0.58268 -1.63085,0.77148 -0.60547,0.18881 -1.14909,0.28321 -1.63086,0.28321 -0.56641,0 -1.01237,-0.10742 -1.33789,-0.32227 -0.17578,-0.11719 -0.26368,-0.27018 -0.26368,-0.45898 0,-0.26042 0.18229,-0.51758 0.54688,-0.77149 0.58593,-0.39713 1.2858,-0.5957 2.09961,-0.5957 z m -59.58008,16.67969 c -1.28255,0 -2.32422,0.36133 -3.125,1.08398 -0.80078,0.71615 -1.20117,1.55273 -1.20117,2.50977 0,0.60546 0.16276,1.16862 0.48828,1.68945 0.32552,0.52083 0.76823,0.92448 1.32812,1.21094 0.5599,0.28645 1.38673,0.53059 2.48047,0.73242 0.90495,0.16927 1.48763,0.30274 1.74805,0.40039 0.39713,0.14323 0.6836,0.32552 0.85938,0.54687 0.17577,0.21485 0.26367,0.44597 0.26367,0.69336 0,0.3711 -0.1823,0.6836 -0.54688,0.9375 -0.57292,0.41667 -1.30534,0.625 -2.19726,0.625 -0.57292,0 -1.10026,-0.10416 -1.58203,-0.3125 -0.48177,-0.20833 -0.81706,-0.41341 -1.00586,-0.61523 -0.0911,-0.10417 -0.17904,-0.29948 -0.26368,-0.58594 -0.0846,-0.29297 -0.20833,-0.5013 -0.37109,-0.625 -0.15625,-0.12369 -0.35156,-0.18555 -0.58594,-0.18555 -0.30598,0 -0.55338,0.10417 -0.74219,0.3125 -0.18229,0.20182 -0.27343,0.54362 -0.27343,1.02539 v 1.34766 c 0,0.47526 0.0911,0.81706 0.27343,1.02539 0.18881,0.20183 0.43621,0.30274 0.74219,0.30274 0.15625,0 0.28646,-0.0293 0.39063,-0.0879 0.11068,-0.0586 0.2539,-0.19206 0.42968,-0.4004 0.4948,0.26693 1.00261,0.4655 1.52344,0.59571 0.52735,0.13672 1.06772,0.20508 1.6211,0.20508 1.43229,0 2.61067,-0.39063 3.53515,-1.17188 0.69662,-0.59245 1.04492,-1.38347 1.04492,-2.37305 0,-0.70964 -0.18229,-1.32161 -0.54687,-1.83593 -0.36459,-0.51433 -0.82357,-0.89194 -1.37695,-1.13282 -0.54688,-0.24088 -1.33464,-0.46223 -2.36329,-0.66406 -1.02213,-0.20182 -1.64388,-0.3483 -1.86523,-0.43945 -0.33203,-0.13021 -0.58594,-0.30924 -0.76172,-0.53711 -0.16927,-0.23437 -0.2539,-0.47526 -0.2539,-0.72266 0,-0.36458 0.20833,-0.71289 0.625,-1.04492 0.42318,-0.33854 0.99609,-0.50781 1.71875,-0.50781 0.49479,0 0.93098,0.0846 1.30859,0.2539 0.3776,0.16927 0.6608,0.37761 0.84961,0.625 0.11067,0.14323 0.20182,0.38086 0.27344,0.7129 0.0716,0.33202 0.17904,0.55338 0.32226,0.66406 0.1823,0.14974 0.39714,0.22461 0.64453,0.22461 0.29297,0 0.5306,-0.10091 0.71289,-0.30274 0.1888,-0.20833 0.28321,-0.55339 0.28321,-1.03515 v -1.50391 c 0,-0.47526 -0.0944,-0.8138 -0.28321,-1.01562 -0.18229,-0.20834 -0.41992,-0.3125 -0.71289,-0.3125 -0.26041,0 -0.52083,0.12695 -0.78125,0.38085 -0.35807,-0.23438 -0.75846,-0.4069 -1.20117,-0.51757 -0.4362,-0.11719 -0.91146,-0.17578 -1.42578,-0.17578 z m 34.52148,0.12695 c -0.29948,0 -0.54362,0.10417 -0.73242,0.3125 -0.18229,0.20182 -0.27343,0.54362 -0.27343,1.02539 v 1.80664 h -0.72266 c -0.48177,0 -0.82682,0.0944 -1.03516,0.2832 -0.20182,0.1823 -0.30273,0.41993 -0.30273,0.71289 0,0.29948 0.10091,0.54362 0.30273,0.73243 0.20834,0.18228 0.55339,0.27343 1.03516,0.27343 h 0.72266 v 4.4043 c -10e-6,0.78125 0.30924,1.44206 0.92773,1.98242 0.625,0.53386 1.55925,0.80078 2.80273,0.80078 0.64454,0 1.43555,-0.12695 2.37305,-0.38086 0.94401,-0.26041 1.57552,-0.54362 1.89453,-0.84961 0.20834,-0.1888 0.3125,-0.41341 0.3125,-0.67382 0,-0.27995 -0.0976,-0.51758 -0.29297,-0.71289 -0.1888,-0.19532 -0.4134,-0.29297 -0.67383,-0.29297 -0.1888,0 -0.44921,0.0846 -0.78124,0.2539 -0.86589,0.4362 -1.8099,0.6543 -2.83204,0.6543 -0.70312,0 -1.19141,-0.10743 -1.46484,-0.32227 -0.17578,-0.13672 -0.26367,-0.41992 -0.26367,-0.8496 v -4.01368 h 3.70117 c 0.48177,0 0.82356,-0.0911 1.02539,-0.27343 0.20833,-0.18881 0.3125,-0.42969 0.3125,-0.72266 0,-0.29948 -0.10417,-0.54036 -0.3125,-0.72266 -0.20183,-0.1888 -0.54362,-0.2832 -1.02539,-0.2832 h -3.70117 v -1.80664 c 0,-0.48177 -0.0944,-0.82357 -0.28321,-1.02539 -0.18229,-0.20833 -0.41992,-0.3125 -0.71289,-0.3125 z m 71.95313,0 c -0.29948,0 -0.54362,0.10417 -0.73242,0.3125 -0.18229,0.20182 -0.27344,0.54362 -0.27344,1.02539 v 1.80664 h -0.72266 c -0.48177,0 -0.82682,0.0944 -1.03515,0.2832 -0.20182,0.1823 -0.30274,0.41993 -0.30274,0.71289 0,0.29948 0.10092,0.54362 0.30274,0.73243 0.20833,0.18228 0.55338,0.27343 1.03515,0.27343 h 0.72266 v 4.4043 c 0,0.78125 0.30925,1.44206 0.92773,1.98242 0.625,0.53386 1.55925,0.80078 2.80274,0.80078 0.64453,0 1.43555,-0.12695 2.37305,-0.38086 0.94401,-0.26041 1.57552,-0.54362 1.89453,-0.84961 0.20833,-0.1888 0.3125,-0.41341 0.3125,-0.67382 0,-0.27995 -0.0977,-0.51758 -0.29297,-0.71289 -0.18881,-0.19532 -0.41342,-0.29297 -0.67383,-0.29297 -0.18881,0 -0.44922,0.0846 -0.78125,0.2539 -0.86589,0.4362 -1.8099,0.6543 -2.83203,0.6543 -0.70313,0 -1.1914,-0.10743 -1.46485,-0.32227 -0.17577,-0.13672 -0.26367,-0.41992 -0.26367,-0.8496 v -4.01368 h 3.70117 c 0.48178,0 0.82358,-0.0911 1.0254,-0.27343 0.20833,-0.18881 0.3125,-0.42969 0.3125,-0.72266 0,-0.29948 -0.10417,-0.54036 -0.3125,-0.72266 -0.20182,-0.1888 -0.54362,-0.2832 -1.0254,-0.2832 h -3.70117 v -1.80664 c 0,-0.48177 -0.0944,-0.82357 -0.2832,-1.02539 -0.18229,-0.20833 -0.41992,-0.3125 -0.71289,-0.3125 z m -47.77344,2.87109 c -0.34505,0 -0.65104,0.0618 -0.91797,0.18555 -0.26041,0.11719 -0.55338,0.33528 -0.8789,0.6543 v -0.56641 h -1.9043 c -0.48177,0 -0.82357,0.0944 -1.02539,0.2832 -0.20833,0.1823 -0.3125,0.41993 -0.3125,0.71289 0,0.29298 0.10091,0.53386 0.30273,0.72266 0.20183,0.1888 0.51433,0.2832 0.9375,0.2832 v 4.86328 c -0.42317,0 -0.73567,0.0944 -0.9375,0.28321 -0.20182,0.18229 -0.30273,0.41992 -0.30273,0.71289 0,0.29948 0.10417,0.54362 0.3125,0.73242 0.20182,0.18229 0.54362,0.27344 1.02539,0.27344 h 1.80664 c 0.48177,0 0.82356,-0.0911 1.02539,-0.27344 0.20833,-0.1888 0.3125,-0.42968 0.3125,-0.72266 0,-0.29296 -0.10417,-0.53385 -0.3125,-0.72265 -0.20183,-0.1888 -0.51107,-0.28321 -0.92773,-0.28321 v -4.0332 c 0.31901,-0.43619 0.59244,-0.72591 0.82031,-0.86914 0.22786,-0.14974 0.45898,-0.22461 0.69336,-0.22461 0.22786,0 0.39713,0.0618 0.50781,0.18555 0.11719,0.11718 0.17578,0.32552 0.17578,0.625 v 6.31836 h 1.9043 c 0.48177,0 0.82356,-0.0911 1.02539,-0.27344 0.20182,-0.1888 0.30273,-0.42968 0.30273,-0.72266 0,-0.29296 -0.10091,-0.53385 -0.30273,-0.72265 -0.20183,-0.1888 -0.51107,-0.28321 -0.92773,-0.28321 v -4.0332 c 0.34505,-0.44922 0.63802,-0.75521 0.8789,-0.91797 0.1888,-0.11718 0.39388,-0.17578 0.61524,-0.17578 0.22786,0 0.39713,0.0586 0.50781,0.17578 0.11067,0.11719 0.16601,0.32877 0.16601,0.63477 v 6.31836 h 1.9043 c 0.48177,0 0.82357,-0.0911 1.02539,-0.27344 0.20182,-0.1888 0.30274,-0.42968 0.30274,-0.72266 0,-0.29296 -0.10092,-0.53385 -0.30274,-0.72265 -0.20182,-0.1888 -0.51107,-0.28321 -0.92773,-0.28321 v -4.48242 c 0,-0.84635 -0.306,-1.52995 -0.91797,-2.05078 -0.46224,-0.39713 -1.06446,-0.5957 -1.80664,-0.5957 -0.3711,0 -0.73569,0.0716 -1.09375,0.21484 -0.35157,0.13672 -0.69987,0.34831 -1.04492,0.63477 -0.27344,-0.28646 -0.55339,-0.50131 -0.83985,-0.64453 -0.28646,-0.14324 -0.57617,-0.21485 -0.86914,-0.21485 z m -34.6875,0.01 c -1.32812,0 -2.40234,0.32552 -3.22265,0.97656 -0.60547,0.47526 -0.90821,1.07096 -0.90821,1.78711 0,0.69661 0.27018,1.28255 0.81055,1.75781 0.54036,0.48178 1.61458,0.80729 3.22266,0.97656 1.08073,0.11719 1.79362,0.26043 2.13867,0.42969 0.34505,0.16928 0.51758,0.38412 0.51758,0.64453 0,0.15626 -0.12045,0.306 -0.36133,0.44922 -0.50781,0.28646 -1.2207,0.42969 -2.13867,0.42969 -0.5599,0 -1.05469,-0.0651 -1.48438,-0.19531 -0.42969,-0.13672 -0.79752,-0.33529 -1.10352,-0.59571 -0.0911,-0.32552 -0.21809,-0.55338 -0.38085,-0.68359 -0.16276,-0.13672 -0.36459,-0.20508 -0.60547,-0.20508 -0.29948,0 -0.54362,0.10417 -0.73242,0.3125 -0.1823,0.20183 -0.27344,0.54363 -0.27344,1.02539 v 0.67383 c 0,0.48177 0.0911,0.82682 0.27344,1.03516 0.1888,0.20182 0.43945,0.30273 0.75195,0.30273 0.11718,0 0.23112,-0.0228 0.34179,-0.0684 0.11068,-0.0456 0.21485,-0.11068 0.3125,-0.19531 0.41016,0.19531 0.85938,0.3418 1.34766,0.43945 0.49479,0.10417 1.0319,0.15625 1.61133,0.15625 1.44531,0 2.62044,-0.34831 3.52539,-1.04492 0.63151,-0.48177 0.94727,-1.08073 0.94727,-1.79687 0,-0.52735 -0.18555,-1.02865 -0.55665,-1.50391 -0.37109,-0.47526 -0.89843,-0.83333 -1.58203,-1.07422 -0.52083,-0.18229 -1.44531,-0.36459 -2.77343,-0.54687 -0.72266,-0.0977 -1.18815,-0.19857 -1.39649,-0.30274 -0.27344,-0.14322 -0.41015,-0.28971 -0.41015,-0.43945 0,-0.13021 0.1009,-0.25065 0.30273,-0.36133 0.45573,-0.25391 1.07096,-0.38086 1.8457,-0.38086 0.39063,0 0.76498,0.0521 1.12305,0.15625 0.35807,0.0977 0.69987,0.2474 1.02539,0.44922 0.0521,0.24739 0.16927,0.44596 0.35156,0.5957 0.1823,0.14974 0.39388,0.22461 0.63477,0.22461 0.35807,0 0.64127,-0.14974 0.84961,-0.44922 0.10416,-0.15624 0.15625,-0.45247 0.15625,-0.88867 v -0.48828 c 0,-0.48177 -0.0911,-0.82356 -0.27344,-1.02539 -0.18229,-0.20833 -0.41015,-0.3125 -0.68359,-0.3125 -0.0911,0 -0.19206,0.0228 -0.30274,0.0684 -0.10416,0.0456 -0.21809,0.11393 -0.34179,0.20508 -0.39062,-0.1823 -0.80078,-0.31576 -1.23047,-0.40039 -0.42318,-0.0912 -0.86589,-0.13672 -1.32813,-0.13672 z m 23.7793,0 c -1.35417,0 -2.55208,0.44271 -3.59375,1.32812 -1.03516,0.87891 -1.55274,2.02148 -1.55274,3.42774 0,1.32161 0.47852,2.43489 1.43555,3.33984 0.96354,0.90495 2.2461,1.35742 3.84766,1.35742 0.93099,0 1.90104,-0.10742 2.91015,-0.32226 1.00912,-0.22136 1.64388,-0.45248 1.9043,-0.69336 0.19531,-0.1823 0.29297,-0.40365 0.29297,-0.66406 0,-0.28646 -0.0911,-0.52409 -0.27344,-0.7129 -0.18229,-0.1888 -0.4069,-0.2832 -0.67383,-0.2832 -0.19531,0 -0.54687,0.0651 -1.05468,0.19531 -1.23047,0.31901 -2.2168,0.47852 -2.95899,0.47852 -0.90494,0 -1.62435,-0.15951 -2.1582,-0.47852 -0.52735,-0.31901 -0.89518,-0.73893 -1.10352,-1.25976 h 8.21289 v -0.84961 c 0,-0.65104 -0.10416,-1.22396 -0.3125,-1.71875 -0.30598,-0.70963 -0.69335,-1.30534 -1.16211,-1.78711 -0.33203,-0.33203 -0.83984,-0.64128 -1.52343,-0.92773 -0.67708,-0.28646 -1.42253,-0.42969 -2.23633,-0.42969 z m 36.20117,0 c -0.90495,0 -1.77409,0.22135 -2.60742,0.66406 -0.82683,0.44271 -1.46159,1.05143 -1.9043,1.82617 -0.4427,0.76824 -0.66406,1.55274 -0.66406,2.35352 0,0.78776 0.2181,1.54297 0.6543,2.26562 0.4362,0.72266 1.07096,1.29558 1.90429,1.71875 0.83334,0.41667 1.70573,0.625 2.61719,0.625 0.91797,0 1.79687,-0.21159 2.63672,-0.63476 0.84635,-0.42969 1.48112,-1.00261 1.9043,-1.71875 0.42968,-0.72266 0.64453,-1.4681 0.64453,-2.23633 0,-0.80729 -0.21485,-1.5918 -0.64453,-2.35352 -0.42969,-0.76822 -1.06771,-1.37695 -1.91407,-1.82617 -0.83984,-0.45572 -1.71549,-0.68359 -2.62695,-0.68359 z m 48.4668,0 c -0.52734,0 -1.04167,0.0781 -1.54297,0.23437 -0.50131,0.15626 -0.98633,0.39389 -1.45508,0.71289 v -0.68359 h -2.34375 c -0.48177,0 -0.82682,0.0944 -1.03516,0.2832 -0.20182,0.1823 -0.30273,0.41993 -0.30273,0.71289 0,0.29948 0.10091,0.54362 0.30273,0.73243 0.20834,0.18228 0.55339,0.27343 1.03516,0.27343 h 0.3418 v 9.04297 h -0.3418 c -0.47526,0 -0.81706,0.0911 -1.02539,0.27344 -0.20833,0.1888 -0.3125,0.43294 -0.3125,0.73242 0,0.29297 0.10091,0.53061 0.30273,0.71289 0.20834,0.18881 0.55339,0.2832 1.03516,0.2832 h 3.54492 c 0.48178,0 0.82357,-0.0944 1.02539,-0.2832 0.20834,-0.18228 0.3125,-0.41992 0.3125,-0.71289 0,-0.29948 -0.10416,-0.54362 -0.3125,-0.73242 -0.20182,-0.18229 -0.54361,-0.27344 -1.02539,-0.27344 h -1.20117 v -3.28125 c 0.49479,0.29948 0.99284,0.52409 1.49414,0.67383 0.5013,0.14974 1.00911,0.22461 1.52344,0.22461 1.19141,0 2.26237,-0.35807 3.21289,-1.07422 1.13932,-0.85937 1.70898,-1.94987 1.70898,-3.27148 0,-1.19792 -0.48177,-2.25912 -1.44531,-3.1836 -0.96354,-0.93098 -2.1289,-1.39648 -3.49609,-1.39648 z m 14.41406,0 c -0.42318,0 -0.87891,0.10091 -1.36719,0.30273 -0.48177,0.20183 -1.14258,0.60547 -1.98242,1.21094 v -1.25 h -2.72461 c -0.48177,0 -0.82682,0.0944 -1.03515,0.2832 -0.20183,0.1823 -0.30274,0.41993 -0.30274,0.71289 0,0.29948 0.10092,0.54362 0.30274,0.73243 0.20833,0.18228 0.55338,0.27343 1.03515,0.27343 h 0.72266 v 4.86328 h -1.19141 c -0.48177,0 -0.82682,0.0944 -1.03516,0.28321 -0.20182,0.18229 -0.30273,0.41992 -0.30273,0.71289 0,0.29948 0.10092,0.54362 0.30273,0.73242 0.20834,0.18229 0.55339,0.27344 1.03516,0.27344 h 4.06641 c 0.42579,-0.66662 0.848,-1.33296 1.24023,-2.00196 h -2.11328 v -3.01757 c 0.83333,-0.70313 1.52669,-1.23047 2.08008,-1.58203 0.55989,-0.35157 0.97982,-0.52735 1.25976,-0.52735 0.21485,0 0.45899,0.12369 0.73243,0.37109 0.13738,0.1243 0.27153,0.2155 0.40234,0.27735 0.29653,-0.62143 0.57686,-1.24015 0.8457,-1.85938 -0.0271,-0.0228 -0.0471,-0.0456 -0.0762,-0.0684 -0.61198,-0.48177 -1.24349,-0.72265 -1.89453,-0.72265 z m -139.0918,0.26367 c -0.48177,0 -0.82682,0.0944 -1.03515,0.2832 -0.20182,0.1823 -0.30274,0.42318 -0.30274,0.72266 0,0.26042 0.0846,0.48178 0.25391,0.66406 0.16927,0.18229 0.41667,0.29297 0.74219,0.33203 l 3.46679,6.79688 -1.13281,2.24609 h -1.99219 c -0.48177,0 -0.82682,0.0911 -1.03515,0.27344 -0.20182,0.1888 -0.30274,0.43294 -0.30274,0.73242 0,0.29297 0.10092,0.53061 0.30274,0.71289 0.20833,0.18881 0.55338,0.2832 1.03515,0.2832 h 4.36524 c 0.48177,1e-5 0.82356,-0.0944 1.02539,-0.2832 0.20833,-0.18228 0.3125,-0.41992 0.3125,-0.71289 0,-0.37109 -0.15625,-0.65755 -0.46875,-0.85937 -0.15626,-0.0977 -0.48503,-0.14649 -0.98633,-0.14649 l 4.58984,-9.04297 c 0.34506,-0.026 0.60547,-0.1302 0.78125,-0.3125 0.17578,-0.1888 0.26368,-0.41666 0.26368,-0.68359 0,-0.29948 -0.10417,-0.54036 -0.3125,-0.72266 -0.20182,-0.1888 -0.54037,-0.2832 -1.01563,-0.2832 h -1.88476 c -0.48177,0 -0.82683,0.0944 -1.03516,0.2832 -0.20183,0.1823 -0.30274,0.41993 -0.30274,0.71289 0,0.29948 0.10091,0.54362 0.30274,0.73243 0.20833,0.18228 0.52734,0.27343 0.95703,0.27343 l -2.34375,4.59961 -2.36328,-4.59961 c 0.44271,0 0.76498,-0.0911 0.9668,-0.27343 0.20833,-0.18881 0.3125,-0.42969 0.3125,-0.72266 0,-0.29948 -0.10417,-0.54036 -0.3125,-0.72266 -0.20182,-0.1888 -0.54362,-0.2832 -1.0254,-0.2832 z m 83.81836,0 c -0.48177,0 -0.82682,0.0944 -1.03515,0.2832 -0.20182,0.1823 -0.30274,0.41993 -0.30274,0.71289 0,0.29948 0.10092,0.54362 0.30274,0.73243 0.20833,0.18228 0.55338,0.27343 1.03515,0.27343 h 0.3418 v 4.30664 c 0,0.52735 0.10091,0.9668 0.30273,1.31836 0.27995,0.48829 0.66081,0.8724 1.14258,1.15235 0.48178,0.27343 1.05144,0.41015 1.70899,0.41015 0.46875,0 0.96354,-0.0651 1.48437,-0.19531 0.52083,-0.13021 1.06771,-0.32552 1.64063,-0.58594 v 0.45899 h 1.90429 c 0.48178,0 0.82357,-0.0911 1.02539,-0.27344 0.20834,-0.1888 0.3125,-0.42968 0.3125,-0.72266 0,-0.29296 -0.10091,-0.53385 -0.30273,-0.72265 -0.20183,-0.1888 -0.51433,-0.28321 -0.9375,-0.28321 v -6.86523 h -2.72461 c -0.48177,0 -0.82682,0.0944 -1.03516,0.2832 -0.20182,0.1823 -0.30273,0.41993 -0.30273,0.71289 0,0.29948 0.10091,0.54362 0.30273,0.73243 0.20834,0.18228 0.55339,0.27343 1.03516,0.27343 h 0.72266 v 4.08203 c -0.6836,0.41667 -1.25977,0.70639 -1.72852,0.86915 -0.46224,0.15624 -0.89518,0.23437 -1.29883,0.23437 -0.42318,0 -0.73893,-0.0977 -0.94726,-0.29297 -0.20182,-0.20182 -0.30274,-0.51432 -0.30274,-0.9375 v -5.95703 z m -43.75976,1.73828 c 0.68359,0 1.27278,0.14323 1.76757,0.42969 0.4948,0.27995 0.89519,0.70638 1.20118,1.2793 h -5.9375 c 0.3125,-0.57292 0.71614,-0.99935 1.21093,-1.2793 0.4948,-0.28646 1.08074,-0.42969 1.75782,-0.42969 z m 36.15234,0 c 1.02865,0 1.85873,0.36458 2.49023,1.09375 0.46224,0.54037 0.69336,1.13281 0.69336,1.77734 0,0.63151 -0.30598,1.22071 -0.91796,1.76758 -0.61198,0.54037 -1.3672,0.81055 -2.26563,0.81055 -0.89193,0 -1.64388,-0.27018 -2.25586,-0.81055 -0.61198,-0.54687 -0.91797,-1.13281 -0.91797,-1.75781 0,-0.76172 0.30274,-1.43229 0.90821,-2.01172 0.60547,-0.57942 1.36067,-0.86914 2.26562,-0.86914 z m 48.4375,0 c 0.61849,0 1.1556,0.14648 1.61133,0.43945 0.46224,0.28646 0.80404,0.64779 1.02539,1.08399 0.22135,0.42969 0.33203,0.78451 0.33203,1.06445 0,0.55339 -0.2832,1.08073 -0.84961,1.58203 -0.56641,0.50131 -1.27279,0.75196 -2.11914,0.75196 -0.83985,0 -1.54623,-0.25065 -2.11914,-0.75196 -0.56641,-0.5078 -0.84961,-1.02864 -0.84961,-1.5625 0,-0.47526 0.19857,-0.97005 0.5957,-1.48437 0.58594,-0.7487 1.37696,-1.12305 2.37305,-1.12305 z m -60.41992,4.79492 c -0.46875,0 -0.83659,0.12696 -1.10352,0.38086 -0.26692,0.25391 -0.40039,0.56966 -0.40039,0.94727 0,0.3776 0.13347,0.69336 0.40039,0.94726 0.26693,0.25391 0.63477,0.38086 1.10352,0.38086 0.46875,0 0.83659,-0.12695 1.10351,-0.38086 0.26693,-0.2539 0.4004,-0.56966 0.4004,-0.94726 0,-0.37761 -0.13347,-0.69336 -0.4004,-0.94727 -0.26692,-0.2539 -0.63476,-0.38086 -1.10351,-0.38086 z m 47.96875,0 c -0.46875,0 -0.83659,0.12696 -1.10352,0.38086 -0.26692,0.25391 -0.40039,0.56966 -0.40039,0.94727 0,0.3776 0.13347,0.69336 0.40039,0.94726 0.26693,0.25391 0.63477,0.38086 1.10352,0.38086 0.46875,0 0.83659,-0.12695 1.10351,-0.38086 0.26693,-0.2539 0.40039,-0.56966 0.40039,-0.94726 0,-0.37761 -0.13346,-0.69336 -0.40039,-0.94727 -0.26692,-0.2539 -0.63476,-0.38086 -1.10351,-0.38086 z m -0.0391,14.375 c -1.39974,0 -2.47397,0.59896 -3.22266,1.79688 -0.7487,1.1914 -1.12305,2.43489 -1.12305,3.73047 v 2.19726 c 0,1.06772 0.2474,2.08009 0.74219,3.03711 0.31976,0.60629 0.65124,1.07811 0.99219,1.44336 0.66859,-0.34949 1.31127,-0.7125 1.95898,-1.07422 -0.30828,-0.10785 -0.57046,-0.28536 -0.77343,-0.55469 -0.61199,-0.80729 -0.91797,-1.7578 -0.91797,-2.85156 v -2.19726 c 0,-1.10678 0.28971,-2.03451 0.86914,-2.78321 0.38412,-0.49478 0.87891,-0.74218 1.48437,-0.74218 0.625,0 1.11003,0.2246 1.45508,0.67382 0.60547,0.8138 0.9082,1.76433 0.9082,2.85157 v 2.19726 c 0,0.69293 -0.12639,1.30681 -0.35351,1.85938 0.79769,-0.48712 1.57414,-0.98721 2.33789,-1.49219 0.007,-0.12289 0.0273,-0.24329 0.0273,-0.36719 v -2.19726 c 0,-1.07422 -0.2539,-2.08659 -0.76172,-3.03711 -0.5013,-0.95704 -1.03189,-1.61133 -1.59179,-1.96289 -0.55338,-0.35157 -1.23047,-0.52735 -2.03125,-0.52735 z m -81.17188,0.11719 c -0.2474,0 -0.47201,0.0879 -0.67383,0.26367 -0.20182,0.16928 -0.51432,0.63151 -0.9375,1.38672 -0.58594,1.05469 -1.01888,2.01171 -1.29883,2.87109 -0.3776,1.16536 -0.5664,2.31771 -0.5664,3.45704 0,1.10026 0.17903,2.2233 0.53711,3.36914 0.22786,0.74869 0.65104,1.69921 1.26953,2.85156 0.42969,0.79427 0.77474,1.30534 1.03516,1.5332 0.18229,0.15626 0.39387,0.23438 0.63476,0.23438 0.28646,0 0.52735,-0.0977 0.72266,-0.29297 0.19531,-0.19531 0.29297,-0.42969 0.29297,-0.70313 0,-0.1953 -0.0781,-0.41992 -0.23438,-0.67382 -0.70313,-1.15235 -1.21745,-2.23308 -1.54297,-3.24219 -0.31901,-1.00912 -0.47851,-2.03451 -0.47851,-3.07617 0,-1.03516 0.1595,-2.0573 0.47851,-3.06641 0.32552,-1.00911 0.83984,-2.08984 1.54297,-3.24219 0.15625,-0.26041 0.23438,-0.48503 0.23438,-0.67383 0,-0.27344 -0.0977,-0.50781 -0.29297,-0.70312 -0.19531,-0.19531 -0.4362,-0.29297 -0.72266,-0.29297 z m 7.56836,0.17578 v 2.11914 h 2.38281 v -2.11914 z m 47.96875,0 v 2.11914 h 2.38281 v -2.11914 z m -91.33398,0.0664 c 0.70651,0.66139 1.44035,1.32147 2.19726,1.98242 0.008,-0.008 0.0178,-0.01 0.0254,-0.0176 0.1823,-0.19531 0.27344,-0.44596 0.27344,-0.75195 0,-0.28646 -0.10417,-0.52083 -0.3125,-0.70313 -0.20183,-0.18228 -0.66732,-0.32226 -1.39648,-0.41992 -0.27893,-0.0402 -0.5334,-0.0652 -0.78711,-0.0898 z m 67.52539,0.58789 c -0.29948,0 -0.54362,0.10417 -0.73242,0.3125 -0.1823,0.20182 -0.27344,0.54362 -0.27344,1.02539 v 1.80664 h -0.72266 c -0.48177,0 -0.82682,0.0944 -1.03516,0.2832 -0.20182,0.1823 -0.30273,0.41993 -0.30273,0.71289 0,0.29948 0.10092,0.54362 0.30273,0.73243 0.20834,0.18228 0.55339,0.27343 1.03516,0.27343 h 0.72266 v 4.4043 c 0,0.78125 0.30924,1.44206 0.92773,1.98242 0.625,0.53386 1.55925,0.80078 2.80274,0.80078 0.64453,0 1.43554,-0.12695 2.37304,-0.38086 0.94402,-0.26041 1.57553,-0.54362 1.89453,-0.84961 0.20834,-0.1888 0.3125,-0.41341 0.3125,-0.67382 0,-0.27995 -0.0976,-0.51758 -0.29296,-0.71289 -0.1888,-0.19532 -0.41341,-0.29297 -0.67383,-0.29297 -0.1888,0 -0.44922,0.0846 -0.78125,0.2539 -0.86588,0.4362 -1.80989,0.6543 -2.83203,0.6543 -0.70312,0 -1.19141,-0.10743 -1.46485,-0.32227 -0.17578,-0.13672 -0.26367,-0.41992 -0.26367,-0.8496 v -4.01368 h 3.70117 c 0.48178,0 0.82357,-0.0912 1.02539,-0.27343 0.20834,-0.18881 0.3125,-0.42969 0.3125,-0.72266 0,-0.29948 -0.10416,-0.54036 -0.3125,-0.72266 -0.20182,-0.1888 -0.54361,-0.2832 -1.02539,-0.2832 h -3.70117 v -1.80664 c 0,-0.48177 -0.0944,-0.82357 -0.2832,-1.02539 -0.18229,-0.20833 -0.41992,-0.3125 -0.71289,-0.3125 z m -58.45703,2.88086 c -0.90495,0 -1.77409,0.22135 -2.60743,0.66406 -0.34004,0.18207 -0.63898,0.39848 -0.91406,0.63672 0.53357,0.42385 1.07891,0.84811 1.63477,1.27148 0.53387,-0.37429 1.15939,-0.57031 1.88672,-0.57031 1.02864,0 1.85872,0.36458 2.49023,1.09375 0.46224,0.54037 0.69336,1.13281 0.69336,1.77734 0,0.38039 -0.12367,0.74408 -0.3457,1.09376 0.56094,0.3829 1.11079,0.76618 1.6914,1.14843 0.003,-0.006 0.008,-0.01 0.0117,-0.0156 0.42969,-0.72266 0.64453,-1.4681 0.64453,-2.23633 0,-0.80729 -0.21484,-1.5918 -0.64453,-2.35352 -0.42969,-0.76822 -1.06771,-1.37695 -1.91406,-1.82617 -0.83985,-0.45572 -1.71549,-0.68359 -2.62695,-0.68359 z m 14.91211,0 c -0.42318,0 -0.87891,0.10091 -1.36719,0.30273 -0.48177,0.20183 -1.14258,0.60547 -1.98242,1.21094 v -1.25 h -2.72461 c -0.48177,0 -0.82683,0.0944 -1.03516,0.2832 -0.20183,0.1823 -0.30273,0.41993 -0.30273,0.71289 0,0.29948 0.1009,0.54362 0.30273,0.73243 0.20833,0.18228 0.55339,0.27343 1.03516,0.27343 h 0.72265 v 4.86328 h -1.1914 c -0.48177,0 -0.82683,0.0944 -1.03516,0.28321 -0.20183,0.18229 -0.30273,0.41992 -0.30273,0.71289 0,0.29948 0.1009,0.54362 0.30273,0.73242 0.20833,0.18229 0.55339,0.27344 1.03516,0.27344 h 6.04492 c 0.48176,0 0.82356,-0.0911 1.02539,-0.27344 0.20833,-0.1888 0.3125,-0.42968 0.3125,-0.72266 0,-0.29947 -0.10417,-0.54036 -0.3125,-0.72265 -0.20183,-0.1888 -0.54363,-0.28321 -1.02539,-0.28321 h -2.85156 v -3.01757 c 0.83333,-0.70313 1.52669,-1.23047 2.08007,-1.58203 0.5599,-0.35157 0.97982,-0.52735 1.25977,-0.52735 0.21484,0 0.45898,0.1237 0.73242,0.37109 0.27343,0.2474 0.53385,0.3711 0.78125,0.3711 0.27995,0 0.51758,-0.0977 0.71289,-0.29297 0.20182,-0.20182 0.30274,-0.44596 0.30274,-0.73242 0,-0.33854 -0.20834,-0.67058 -0.625,-0.9961 -0.61198,-0.48177 -1.24349,-0.72265 -1.89453,-0.72265 z m 33.65234,0 c -0.51433,0 -0.99284,0.0781 -1.43555,0.23437 -0.4362,0.15626 -0.83659,0.39063 -1.20117,0.70313 v -0.67383 h -1.9043 c -0.48177,0 -0.82682,0.0944 -1.03515,0.2832 -0.20182,0.1823 -0.30274,0.41993 -0.30274,0.71289 0,0.29298 0.10092,0.53386 0.30274,0.72266 0.20182,0.1888 0.51432,0.2832 0.9375,0.2832 v 4.86328 c -0.51432,0 -0.84961,0.0488 -1.00586,0.14649 -0.3125,0.20182 -0.46875,0.48502 -0.46875,0.84961 0,0.29948 0.10091,0.54362 0.30273,0.73242 0.20834,0.18229 0.55338,0.27344 1.03516,0.27344 h 2.27539 c 0.48177,0 0.82356,-0.0911 1.02539,-0.27344 0.20833,-0.1888 0.3125,-0.42968 0.3125,-0.72266 0,-0.3776 -0.1595,-0.66406 -0.47852,-0.85937 -0.14974,-0.0976 -0.48177,-0.14649 -0.99609,-0.14649 v -3.7207 c 0.53385,-0.57943 0.97331,-0.95703 1.31836,-1.13281 0.35156,-0.18229 0.75846,-0.27344 1.2207,-0.27344 0.61198,0 1.07097,0.13021 1.37696,0.39063 0.23438,0.20182 0.35156,0.52083 0.35156,0.95703 v 3.77929 c -0.42318,0 -0.73568,0.0944 -0.9375,0.28321 -0.20183,0.18229 -0.30274,0.41992 -0.30274,0.71289 0,0.29948 0.10091,0.54362 0.30274,0.73242 0.20833,0.18229 0.55339,0.27344 1.03515,0.27344 h 1.80665 c 0.48177,0 0.82357,-0.0911 1.02539,-0.27344 0.20833,-0.1888 0.3125,-0.42968 0.3125,-0.72266 0,-0.29947 -0.10092,-0.54036 -0.30274,-0.72265 -0.20183,-0.1888 -0.51433,-0.28321 -0.9375,-0.28321 v -3.7207 c 0,-0.95052 -0.27344,-1.71875 -0.82031,-2.30469 -0.69011,-0.73567 -1.62761,-1.10351 -2.8125,-1.10351 z m -15.22461,0.26367 c -0.48177,0 -0.82682,0.0944 -1.03516,0.2832 -0.20182,0.1823 -0.30273,0.41993 -0.30273,0.71289 0,0.29948 0.10417,0.54362 0.3125,0.73243 0.20833,0.18228 0.55013,0.27343 1.02539,0.27343 h 1.61133 v 4.86328 h -2.40235 c -0.48177,0 -0.82682,0.0944 -1.03515,0.28321 -0.20182,0.18229 -0.30274,0.41992 -0.30274,0.71289 0,0.29948 0.10092,0.54362 0.30274,0.73242 0.20833,0.18229 0.55338,0.27344 1.03515,0.27344 h 6.80664 c 0.48178,0 0.82358,-0.0911 1.02539,-0.27344 0.20834,-0.1888 0.3125,-0.42968 0.3125,-0.72266 10e-6,-0.29947 -0.10416,-0.54036 -0.3125,-0.72265 -0.20181,-0.1888 -0.54361,-0.28321 -1.02539,-0.28321 h -2.40234 v -6.86523 z m 47.96875,0 c -0.48177,0 -0.82682,0.0944 -1.03516,0.2832 -0.20182,0.1823 -0.30273,0.41993 -0.30273,0.71289 0,0.29948 0.10417,0.54362 0.3125,0.73243 0.20833,0.18228 0.55013,0.27343 1.02539,0.27343 h 1.61133 v 4.86328 h -2.40235 c -0.48177,0 -0.82682,0.0944 -1.03515,0.28321 -0.20182,0.18229 -0.30274,0.41992 -0.30274,0.71289 0,0.29948 0.10092,0.54362 0.30274,0.73242 0.20833,0.18229 0.55338,0.27344 1.03515,0.27344 h 6.80664 c 0.48178,0 0.82358,-0.0911 1.0254,-0.27344 0.20833,-0.1888 0.3125,-0.42968 0.3125,-0.72266 0,-0.29947 -0.10417,-0.54036 -0.3125,-0.72265 -0.20182,-0.1888 -0.54362,-0.28321 -1.0254,-0.28321 h -2.40234 v -6.86523 z m 10.35156,0.2832 c -0.48177,0 -0.82682,0.0944 -1.03515,0.28321 -0.20182,0.18228 -0.30274,0.41991 -0.30274,0.71289 0,0.29948 0.10092,0.54362 0.30274,0.73242 0.20833,0.18229 0.55338,0.27344 1.03515,0.27344 h 8.55469 c 0.48177,0 0.82356,-0.0911 1.02539,-0.27344 0.20833,-0.1888 0.3125,-0.42968 0.3125,-0.72266 0,-0.29948 -0.10417,-0.54037 -0.3125,-0.72265 -0.20183,-0.18881 -0.54362,-0.28321 -1.02539,-0.28321 z m 0,3.76953 c -0.48177,0 -0.82682,0.0944 -1.03515,0.28321 -0.20182,0.18229 -0.30274,0.42318 -0.30274,0.72265 0,0.29948 0.10092,0.54037 0.30274,0.72266 0.20833,0.18229 0.55338,0.27344 1.03515,0.27344 h 8.55469 c 0.48177,0 0.82356,-0.0911 1.02539,-0.27344 0.20833,-0.18229 0.3125,-0.42318 0.3125,-0.72266 0,-0.29947 -0.10417,-0.54036 -0.3125,-0.72265 -0.20183,-0.1888 -0.54362,-0.28321 -1.02539,-0.28321 z"
       id="path4081-3"
       inkscape:connector-curvature="0" />
    <path
       style="fill:#ffffff;fill-opacity:1;stroke:#000000;stroke-width:5;stroke-linecap:round;stroke-linejoin:round;stroke-miterlimit:4;stroke-dasharray:none;stroke-dashoffset:0;stroke-opacity:0.94117647;paint-order:fill markers stroke"
       d="m 583.25567,345.89916 a 41.644237,39.989474 0 0 0 -36.62729,20.98073 41.644237,39.989474 0 0 0 -41.05451,39.96858 41.644237,39.989474 0 0 0 9.50397,25.38281 41.644237,39.989474 0 0 0 -0.67771,6.97715 41.644237,39.989474 0 0 0 41.64373,39.98969 41.644237,39.989474 0 0 0 27.4833,-10.01176 41.644237,39.989474 0 0 0 23.63022,7.06968 41.644237,39.989474 0 0 0 41.18824,-34.42224 41.644237,39.989474 0 0 0 16.26897,-31.67523 41.644237,39.989474 0 0 0 -41.64473,-39.98969 41.644237,39.989474 0 0 0 -1.44994,0.0492 41.644237,39.989474 0 0 0 -38.26425,-24.31899 z"
       id="path880"
       inkscape:connector-curvature="0" />
    <circle
       style="fill:#ffffff;fill-opacity:1;stroke:#000000;stroke-width:5;stroke-linecap:round;stroke-linejoin:round;stroke-miterlimit:4;stroke-dasharray:none;stroke-dashoffset:0;stroke-opacity:0.94117647;paint-order:fill markers stroke"
       id="path896"
       cx="459.28568"
       cy="370.37683"
       r="10" />
    <circle
       style="fill:#ffffff;fill-opacity:1;stroke:#000000;stroke-width:5;stroke-linecap:round;stroke-linejoin:round;stroke-miterlimit:4;stroke-dasharray:none;stroke-dashoffset:0;stroke-opacity:0.94117647;paint-order:fill markers stroke"
       id="path898"
       cx="495.00003"
       cy="362.09113"
       r="15.714286" />
    <g
       id="g4196"
       transform="translate(-250.41667,105.27136)">
      <g
         style="fill:#ffff00;fill-opacity:0.87980772;stroke:#000000;stroke-width:2.87327123;stroke-miterlimit:4;stroke-dasharray:none;stroke-opacity:1"
         transform="matrix(1.7401768,0,0,1.7401768,774.68541,255.69113)"
         id="g4689">
        <path
           sodipodi:nodetypes="csssccccccc"
           style="fill:#ffff00;fill-opacity:0.87980772;stroke:#000000;stroke-width:2.87327123;stroke-miterlimit:4;stroke-dasharray:none;stroke-opacity:1"
           inkscape:connector-curvature="0"
           d="m 44.204,31.789 c 1.789,-2.493 2.735,-5.405 2.735,-8.422 0,-8.078 -6.702,-14.649 -14.939,-14.649 -8.238,0 -14.939,6.572 -14.939,14.649 0,2.87 0.858,5.655 2.484,8.062 0.075,0.136 0.152,0.26 0.225,0.354 2.772,3.871 3.294335,5.914073 3.294335,5.914073 0,3.104072 0,-0.171418 0,3.574076 l 17.855329,-0.05432 c 0,-2.771299 0,-1.66274 -0.01966,-3.512831 0,0 0.255,-1.662 3.303996,-5.914998 z"
           id="path4693" />
      </g>
      <path
         sodipodi:nodetypes="czszc"
         inkscape:connector-curvature="0"
         id="path4714"
         d="m 814.82143,296.00685 c 0,0 0.0595,-9.98396 7.81995,-9.98396 7.76041,0 15.43898,13.98397 7.76041,13.98396 -7.76041,0 0,-13.98396 7.67857,-13.98396 7.67857,0 7.8125,9.98396 7.8125,9.98396"
         style="fill:none;stroke:#000000;stroke-width:3;stroke-linecap:butt;stroke-linejoin:miter;stroke-miterlimit:4;stroke-dasharray:none;stroke-opacity:1" />
      <path
         sodipodi:nodetypes="ssssccs"
         style="fill:#ffffff;fill-opacity:0.87980772;stroke:#000000;stroke-width:5.82977962;stroke-miterlimit:4;stroke-dasharray:none;stroke-opacity:1"
         inkscape:connector-curvature="0"
         d="m 815.25025,340.73587 c 0,5.48828 2.55455,9.93871 6.46701,9.93871 h 16.43096 c 3.91245,0 7.34367,-4.69985 7.34367,-10.18815 v -4.67161 l -30.24164,0.24943 z"
         id="path4691" />
      <path
         inkscape:connector-curvature="0"
         id="path4768"
         d="m 793.75,270.75503 7.5,7.14286"
         style="fill:none;stroke:#000000;stroke-width:5;stroke-linecap:round;stroke-linejoin:miter;stroke-miterlimit:4;stroke-dasharray:none;stroke-opacity:1" />
      <path
         inkscape:connector-curvature="0"
         id="path4768-7"
         d="m 783.50154,296.30988 10.35406,-0.25254"
         style="fill:none;stroke:#000000;stroke-width:5;stroke-linecap:round;stroke-linejoin:miter;stroke-miterlimit:4;stroke-dasharray:none;stroke-opacity:1" />
      <path
         style="fill:none;stroke:#000000;stroke-width:5;stroke-linecap:round;stroke-linejoin:miter;stroke-miterlimit:4;stroke-dasharray:none;stroke-opacity:1"
         d="m 867.25,270.75503 -7.5,7.14286"
         id="path4788"
         inkscape:connector-curvature="0" />
      <path
         style="fill:none;stroke:#000000;stroke-width:5;stroke-linecap:round;stroke-linejoin:miter;stroke-miterlimit:4;stroke-dasharray:none;stroke-opacity:1"
         d="m 867.50154,296.30988 10.35406,-0.25254"
         id="path4790"
         inkscape:connector-curvature="0" />
      <path
         style="fill:none;stroke:#000000;stroke-width:5;stroke-linecap:round;stroke-linejoin:miter;stroke-miterlimit:4;stroke-dasharray:none;stroke-opacity:1"
         d="m 793.75,321.89789 7.5,-7.14286"
         id="path4792"
         inkscape:connector-curvature="0" />
      <path
         inkscape:connector-curvature="0"
         id="path4794"
         d="m 867.25,321.89789 -7.5,-7.14286"
         style="fill:none;stroke:#000000;stroke-width:5;stroke-linecap:round;stroke-linejoin:miter;stroke-miterlimit:4;stroke-dasharray:none;stroke-opacity:1" />
    </g>
  </g>
</svg>
