<?xml version="1.0" encoding="UTF-8" standalone="no"?>
<!-- Created with Inkscape (http://www.inkscape.org/) -->

<svg
   xmlns:dc="http://purl.org/dc/elements/1.1/"
   xmlns:cc="http://creativecommons.org/ns#"
   xmlns:rdf="http://www.w3.org/1999/02/22-rdf-syntax-ns#"
   xmlns:svg="http://www.w3.org/2000/svg"
   xmlns="http://www.w3.org/2000/svg"
   xmlns:sodipodi="http://sodipodi.sourceforge.net/DTD/sodipodi-0.dtd"
   xmlns:inkscape="http://www.inkscape.org/namespaces/inkscape"
   width="723.836"
   height="442.02054"
   id="svg2"
   version="1.1"
   inkscape:version="0.92.1 r15371"
   sodipodi:docname="vaca.svg"
   inkscape:export-filename="C:\Users\Sebastián\Dropbox\Personal\Material para Clases\2015\Programacion 2\img\svg\vaca_c_fondo.png"
   inkscape:export-xdpi="61.028839"
   inkscape:export-ydpi="61.028839">
  <defs
     id="defs4" />
  <sodipodi:namedview
     id="base"
     pagecolor="#ffffff"
     bordercolor="#666666"
     borderopacity="1.0"
     inkscape:pageopacity="1"
     inkscape:pageshadow="2"
     inkscape:zoom="0.9899495"
     inkscape:cx="321.34312"
     inkscape:cy="187.34438"
     inkscape:document-units="px"
     inkscape:current-layer="layer1"
     showgrid="false"
     fit-margin-top="10"
     fit-margin-left="10"
     fit-margin-right="10"
     fit-margin-bottom="10"
     inkscape:window-width="1366"
     inkscape:window-height="745"
     inkscape:window-x="-8"
     inkscape:window-y="-8"
     inkscape:window-maximized="1" />
  <metadata
     id="metadata7">
    <rdf:RDF>
      <cc:Work
         rdf:about="">
        <dc:format>image/svg+xml</dc:format>
        <dc:type
           rdf:resource="http://purl.org/dc/dcmitype/StillImage" />
        <dc:title />
      </cc:Work>
    </rdf:RDF>
  </metadata>
  <g
     inkscape:label="Capa 1"
     inkscape:groupmode="layer"
     id="layer1"
     transform="translate(-51.859225,-226.44348)">
    <path
       style="fill:none;stroke:#000000;stroke-width:5.33333349;stroke-linecap:butt;stroke-linejoin:miter;stroke-miterlimit:4;stroke-dasharray:none;stroke-opacity:1"
       d="M 749.32545,293.41306 C 691.51054,435.57828 612.61406,248.44377 552.00787,415.62627 L 541.51732,403.02078 C 602.12351,235.83827 681.01999,422.97279 738.8349,280.80756 Z"
       id="path3910-8"
       inkscape:connector-curvature="0"
       sodipodi:nodetypes="ccccc" />
    <path
       style="fill:#ffffff;fill-opacity:1;fill-rule:evenodd;stroke:#000000;stroke-width:6.4000001;stroke-linecap:round;stroke-linejoin:round;stroke-miterlimit:4;stroke-dasharray:none;stroke-dashoffset:0;stroke-opacity:1"
       d="m 166.41753,347.26669 c 7.06999,10.96232 -4.39878,30.94199 -25.6162,44.62584 -21.2174,13.68384 -44.148877,15.89007 -51.218862,4.92774 -7.069985,-10.96233 4.398769,-30.94201 25.616182,-44.62585 21.21741,-13.68385 44.14889,-15.89007 51.21888,-4.92773 z"
       id="path3854"
       inkscape:connector-curvature="0" />
    <path
       style="fill:#ffffff;fill-opacity:1;fill-rule:evenodd;stroke:#000000;stroke-width:5.33333349;stroke-linecap:round;stroke-linejoin:round;stroke-miterlimit:4;stroke-dasharray:none;stroke-dashoffset:0;stroke-opacity:1"
       d="m 321.55238,479.44833 c -17.72566,-7.92445 -48.70636,-2.04244 -55.44268,16.16793 -9.18865,24.83977 -26.85287,46.92083 -32.40153,89.96056 -2.4826,19.25701 6.06132,29.23252 23.787,37.15696 17.72565,7.92443 30.74274,3.34607 44.77601,-10.07269 13.34019,-12.75604 28.20418,-52.68552 41.54437,-76.24628 9.56659,-16.89604 -4.5375,-49.04205 -22.26317,-56.96648 z"
       id="rect3794-4"
       inkscape:connector-curvature="0"
       sodipodi:nodetypes="sssssss" />
    <path
       style="fill:#ffffff;fill-opacity:1;fill-rule:evenodd;stroke:#000000;stroke-width:5.33333349;stroke-linecap:round;stroke-linejoin:round;stroke-miterlimit:4;stroke-dasharray:none;stroke-dashoffset:0;stroke-opacity:1"
       d="m 559.36948,577.75779 c 0,21.53277 -22.91363,38.98855 -51.17902,38.98855 -28.26538,0 -51.17901,-17.45578 -51.17901,-38.98855 0,-21.53278 22.91363,-38.98854 51.17901,-38.98854 28.26539,0 51.17902,17.45576 51.17902,38.98854 z"
       id="path3814"
       inkscape:connector-curvature="0" />
    <path
       style="fill:#ffffff;fill-opacity:1;fill-rule:evenodd;stroke:#000000;stroke-width:5.33333302;stroke-miterlimit:4;stroke-dasharray:none;stroke-opacity:1"
       d="m 636.94441,445.94822 c 0,84.15327 -93.12121,152.37299 -207.99204,152.37299 -114.87083,0 -207.99204,-68.21972 -207.99204,-152.37299 0,-84.15328 93.12121,-152.373 207.99204,-152.373 114.87083,0 207.99204,68.21972 207.99204,152.373 z"
       id="path2985"
       inkscape:connector-curvature="0" />
    <path
       style="fill:#000000;fill-opacity:1;stroke:#000000;stroke-width:1.06666672px;stroke-linecap:butt;stroke-linejoin:miter;stroke-opacity:1"
       d="m 236.51039,499.1882 c 167.50004,180.46987 356.83303,57.7534 397.05729,-29.63114 -34.6677,94.42751 -92.01003,106.23773 -144.38447,121.75705 -30.54533,5.88448 -198.32912,23.39915 -252.67282,-92.12591 z"
       id="path4062"
       inkscape:connector-curvature="0"
       sodipodi:nodetypes="cccc" />
    <ellipse
       style="fill:#000000;fill-opacity:1;fill-rule:evenodd;stroke:#000000;stroke-width:3.26767182;stroke-linecap:round;stroke-linejoin:round;stroke-miterlimit:4;stroke-dasharray:none;stroke-dashoffset:0;stroke-opacity:1"
       id="path3990-2-6"
       cx="545.21295"
       cy="476.56076"
       rx="70.00341"
       ry="59.767193" />
    <path
       style="fill:#ffffff;fill-opacity:1;fill-rule:evenodd;stroke:#000000;stroke-width:5.31801558;stroke-miterlimit:4;stroke-dasharray:none;stroke-opacity:1"
       d="m 232.78571,320.09234 c -41.69384,0.27468 -68.15834,12.62339 -82.05397,31.40228 -9.15157,12.36766 -7.80153,23.58555 6.66109,32.56904 -25.09082,18.94112 -67.964276,46.70725 -68.367259,66.53817 -1.514959,74.55167 94.907749,93.47815 163.180019,71.4052 56.56236,-18.28705 91.58302,-28.86095 96.91635,-88.55414 0.38095,-23.41833 -5.61521,-29.72556 -21.78256,-51.12269 1.24948,-3.61094 4.55896,-17.99196 2.67828,-21.70158 -13.85179,-27.32259 -34.26738,-37.71612 -83.77722,-40.23626 -4.64155,-0.23626 -9.14157,-0.32843 -13.45473,-0.30002 z"
       id="path2987"
       inkscape:connector-curvature="0"
       sodipodi:nodetypes="sscssccsss" />
    <path
       style="fill:#ffffff;fill-opacity:1;fill-rule:evenodd;stroke:#000000;stroke-width:4.50986671;stroke-linecap:round;stroke-linejoin:round;stroke-miterlimit:4;stroke-dasharray:none;stroke-dashoffset:0;stroke-opacity:1"
       d="m 233.05182,490.24989 c -5.01453,31.67361 -56.06959,57.53079 -90.2205,21.30455 -40.47065,27.61333 -82.657928,-14.66417 -77.643401,-46.33777 5.014525,-31.6736 51.176191,-58.41741 84.166481,-29.99856 54.19904,-17.70791 88.71194,23.35819 83.69742,55.03178 z"
       id="path3757"
       inkscape:connector-curvature="0"
       sodipodi:nodetypes="scscs" />
    <path
       style="fill:#000000;fill-opacity:1;fill-rule:evenodd;stroke:#000000;stroke-width:2.41266465;stroke-linecap:round;stroke-linejoin:round;stroke-miterlimit:4;stroke-dasharray:none;stroke-dashoffset:0;stroke-opacity:1"
       d="m 127.80046,467.90327 c -0.78376,4.95048 -9.5019,7.68397 -19.47253,6.10543 -9.970654,-1.57853 -17.418099,-6.87135 -16.634345,-11.82183 0.783753,-4.95046 9.501915,-7.68397 19.472555,-6.10543 9.97064,1.57854 17.41807,6.87136 16.63432,11.82183 z"
       id="path3774"
       inkscape:connector-curvature="0" />
    <path
       style="fill:#000000;fill-opacity:1;fill-rule:evenodd;stroke:#000000;stroke-width:2.41266465;stroke-linecap:round;stroke-linejoin:round;stroke-miterlimit:4;stroke-dasharray:none;stroke-dashoffset:0;stroke-opacity:1"
       d="m 199.03538,476.88763 c -0.78375,4.95048 -9.50192,7.68398 -19.47254,6.10545 -9.97064,-1.57855 -17.41808,-6.87136 -16.63433,-11.82185 0.78376,-4.95047 9.50191,-7.68397 19.47256,-6.10543 9.97062,1.57854 17.41807,6.87135 16.63431,11.82183 z"
       id="path3774-1"
       inkscape:connector-curvature="0" />
    <path
       style="fill:#ffffff;fill-opacity:1;fill-rule:evenodd;stroke:#000000;stroke-width:5.33333349;stroke-linecap:round;stroke-linejoin:round;stroke-miterlimit:4;stroke-dasharray:none;stroke-dashoffset:0;stroke-opacity:1"
       d="m 551.2857,472.13409 c 17.72566,-7.92444 55.43532,8.97868 63.06171,26.83461 7.63526,17.87665 22.30173,41.74003 26.3063,77.77007 2.14482,19.29755 -7.58513,30.75634 -25.3108,38.68078 -17.72566,7.92444 -20.91058,-4.84837 -40.20457,-7.02509 -10.29257,-1.16119 -31.25181,-36.4856 -41.54438,-70.15101 -5.67681,-18.56799 -0.0339,-58.18492 17.69174,-66.10936 z"
       id="rect3794-7"
       inkscape:connector-curvature="0"
       sodipodi:nodetypes="sssssss" />
    <path
       style="fill:#000000;fill-opacity:1;fill-rule:evenodd;stroke:#000000;stroke-width:2.93243194;stroke-linecap:round;stroke-linejoin:round;stroke-miterlimit:4;stroke-dasharray:none;stroke-dashoffset:0;stroke-opacity:1"
       d="m 210.68257,376.17372 c 0,16.07083 -11.98891,29.09883 -26.77795,29.09883 -14.78905,0 -26.77793,-13.028 -26.77793,-29.09883 0,-16.07084 11.98888,-29.09882 26.77793,-29.09882 14.78904,0 26.77795,13.02798 26.77795,29.09882 z"
       id="path3834"
       inkscape:connector-curvature="0" />
    <path
       style="fill:#000000;fill-opacity:1;fill-rule:evenodd;stroke:#000000;stroke-width:3.20000005;stroke-linecap:round;stroke-linejoin:round;stroke-miterlimit:4;stroke-dasharray:none;stroke-dashoffset:0;stroke-opacity:1"
       d="m 312.07289,386.19892 c 0,17.25932 -13.29348,31.25077 -29.69178,31.25077 -16.39832,0 -29.69178,-13.99145 -29.69178,-31.25077 0,-17.25931 13.29346,-31.25075 29.69178,-31.25075 16.3983,0 29.69178,13.99144 29.69178,31.25075 z"
       id="path3834-0"
       inkscape:connector-curvature="0" />
    <path
       style="fill:#ffffff;fill-opacity:1;fill-rule:evenodd;stroke:#000000;stroke-width:6.4000001;stroke-linecap:round;stroke-linejoin:round;stroke-miterlimit:4;stroke-dasharray:none;stroke-dashoffset:0;stroke-opacity:1"
       d="m 318.15389,337.36192 c -7.06999,10.96234 4.39877,30.94201 25.61619,44.62586 21.21742,13.68384 44.14889,15.89007 51.21887,4.92773 7.06998,-10.96233 -4.39877,-30.94201 -25.61618,-44.62585 -21.21742,-13.68385 -44.1489,-15.89007 -51.21888,-4.92774 z"
       id="path3854-9"
       inkscape:connector-curvature="0" />
    <ellipse
       style="fill:#ffffff;fill-opacity:1;fill-rule:evenodd;stroke:#000000;stroke-width:2.93243194;stroke-linecap:round;stroke-linejoin:round;stroke-miterlimit:4;stroke-dasharray:none;stroke-dashoffset:0;stroke-opacity:1"
       id="path3888"
       cx="172.65292"
       cy="368.7807"
       rx="10.307016"
       ry="10.641599" />
    <circle
       style="fill:#ffffff;fill-opacity:1;fill-rule:evenodd;stroke:#000000;stroke-width:3.20000005;stroke-linecap:round;stroke-linejoin:round;stroke-miterlimit:4;stroke-dasharray:none;stroke-dashoffset:0;stroke-opacity:1"
       id="path3888-4"
       cx="271.84763"
       cy="380.72919"
       r="11.428572" />
    <path
       style="fill:#000000;fill-opacity:1;fill-rule:evenodd;stroke:#000000;stroke-width:3.20000005;stroke-linecap:round;stroke-linejoin:round;stroke-miterlimit:4;stroke-dashoffset:0;stroke-opacity:1"
       d="m 763.42858,298.13872 c 0,15.14837 -13.30353,27.42857 -29.71429,27.42857 -16.41074,0 -31.08939,-12.34274 -29.71428,-27.42857 3.04762,-33.43411 40.73212,-18.28572 32.7619,-59.42858 19.45838,16.7619 26.66667,44.28019 26.66667,59.42858 z"
       id="path3930"
       inkscape:connector-curvature="0"
       sodipodi:nodetypes="ssscs" />
    <path
       style="fill:#ffffff;fill-opacity:1;stroke:#000000;stroke-width:5.33333349;stroke-linecap:butt;stroke-linejoin:miter;stroke-miterlimit:4;stroke-dasharray:none;stroke-opacity:1"
       d="m 147.71063,293.15847 c -8.5486,23.17122 -4.18389,39.57605 7.63387,52.07558 20.1076,11.10804 39.2433,-9.54811 36.07051,-18.47341 -17.03531,-9.12965 -30.05883,-14.8897 -43.70438,-33.60217 z"
       id="path3934"
       inkscape:connector-curvature="0"
       sodipodi:nodetypes="cccc" />
    <path
       style="fill:#ffffff;fill-opacity:1;stroke:#000000;stroke-width:5.33333349;stroke-linecap:butt;stroke-linejoin:miter;stroke-miterlimit:4;stroke-dasharray:none;stroke-opacity:1"
       d="m 319.22069,289.92862 c 8.54861,23.17121 4.1839,39.57604 -7.63386,52.07557 -20.1076,11.10804 -39.2433,-9.5481 -36.07051,-18.47341 17.03531,-9.12965 30.05883,-14.88969 43.70437,-33.60216 z"
       id="path3934-8"
       inkscape:connector-curvature="0"
       sodipodi:nodetypes="cccc" />
    <path
       style="fill:#000000;fill-opacity:1;fill-rule:evenodd;stroke:#000000;stroke-width:3.20000005;stroke-linecap:round;stroke-linejoin:round;stroke-miterlimit:4;stroke-dashoffset:0;stroke-opacity:1"
       d="m 230.57211,598.18329 c -3.07919,12.73929 2.22932,25.69877 12.55744,33.86637 4.26212,3.37055 14.21248,-2.60627 20.13372,-19.18858 -3.27294,14.4511 3.2427,27.81177 7.22188,27.51395 14.91175,-1.1161 27.74886,-10.8017 31.18248,-25.00739 4.34988,-17.99645 -8.03912,-36.43231 -27.6716,-41.17765 -19.63249,-4.74532 -39.07405,5.99685 -43.42392,23.9933 z"
       id="path3954-7"
       inkscape:connector-curvature="0"
       sodipodi:nodetypes="sscssss" />
    <path
       style="fill:#000000;fill-opacity:1;fill-rule:evenodd;stroke:#000000;stroke-width:3.20000005;stroke-linecap:round;stroke-linejoin:round;stroke-miterlimit:4;stroke-dashoffset:0;stroke-opacity:1"
       d="m 644.39801,590.57584 c 3.07918,12.7393 -2.22933,25.69877 -12.55744,33.86638 -4.26213,3.37055 -14.21248,-2.60627 -20.13373,-19.18859 3.27295,14.45111 -3.2427,27.81178 -7.22188,27.51395 -14.91174,-1.11609 -27.74885,-10.80169 -31.18247,-25.00739 -4.34989,-17.99645 8.03911,-36.43231 27.67159,-41.17764 19.63249,-4.74532 39.07405,5.99684 43.42393,23.99329 z"
       id="path3954-71"
       inkscape:connector-curvature="0"
       sodipodi:nodetypes="sscssss" />
    <ellipse
       style="fill:#000000;fill-opacity:1;fill-rule:evenodd;stroke:#000000;stroke-width:3.20000005;stroke-linecap:round;stroke-linejoin:round;stroke-miterlimit:4;stroke-dasharray:none;stroke-dashoffset:0;stroke-opacity:1"
       id="path3990"
       cx="470.86575"
       cy="361.80743"
       rx="68.959747"
       ry="58.184788" />
    <ellipse
       style="fill:#000000;fill-opacity:1;fill-rule:evenodd;stroke:#000000;stroke-width:2.28606367;stroke-linecap:round;stroke-linejoin:round;stroke-miterlimit:4;stroke-dasharray:none;stroke-dashoffset:0;stroke-opacity:1"
       id="path3990-2"
       cx="443.60349"
       cy="478.43845"
       rx="52.176781"
       ry="39.246826" />
    <path
       style="fill:#ffffff;fill-opacity:1;fill-rule:evenodd;stroke:#000000;stroke-width:5.33333349;stroke-linecap:round;stroke-linejoin:round;stroke-miterlimit:4;stroke-dasharray:none;stroke-dashoffset:0;stroke-opacity:1"
       d="m 373.30469,493.92451 c 17.72567,-7.92444 45.23896,1.97647 58.49031,16.16793 14.31238,15.32776 22.02025,34.70577 32.40152,89.96056 3.58522,19.08251 -9.10894,29.23253 -26.83461,37.15696 -17.72566,7.92444 -34.87542,8.67458 -46.29982,-7.02507 -15.5649,-21.38964 -39.53329,-66.64057 -40.02056,-85.38914 -0.48729,-18.74856 4.5375,-42.9468 22.26316,-50.87124 z"
       id="rect3794"
       inkscape:connector-curvature="0"
       sodipodi:nodetypes="ssssszs" />
    <path
       style="fill:#000000;fill-opacity:1;fill-rule:evenodd;stroke:#000000;stroke-width:3.20000005;stroke-linecap:round;stroke-linejoin:round;stroke-miterlimit:4;stroke-dashoffset:0;stroke-opacity:1"
       d="m 465.56873,614.0007 c 3.07918,12.7393 -2.22933,25.69878 -12.55744,33.86638 -4.26213,3.37055 -14.21248,-2.60627 -20.13373,-19.18858 3.27295,14.4511 -3.2427,27.81177 -7.22188,27.51395 -14.91174,-1.1161 -27.74885,-10.8017 -31.18247,-25.00739 -4.34989,-17.99645 8.03911,-36.43231 27.67159,-41.17765 19.63249,-4.74532 39.07405,5.99685 43.42393,23.99329 z"
       id="path3954"
       inkscape:connector-curvature="0"
       sodipodi:nodetypes="sscssss" />
    <path
       style="fill:#000000;fill-opacity:1;stroke:#000000;stroke-width:1.06666672px;stroke-linecap:butt;stroke-linejoin:miter;stroke-opacity:1"
       d="m 356.65119,514.81189 c -2.97346,25.26393 -8.46367,67.56989 59.26228,121.75705 -9.41132,7.88628 -20.6838,9.04376 -48.48732,-49.56481 -16.17363,-21.70496 -17.54262,-46.18578 -10.77496,-72.19224 z"
       id="path4046"
       inkscape:connector-curvature="0"
       sodipodi:nodetypes="cccc" />
    <path
       style="fill:#000000;fill-opacity:1;stroke:#000000;stroke-width:1.06666672px;stroke-linecap:butt;stroke-linejoin:miter;stroke-opacity:1"
       d="m 286.0752,591.85286 c 19.51295,-6.11015 24.26652,-16.58038 25.8599,-19.93368 l 10.77497,4.84873 -21.01118,35.55737 z"
       id="path4048"
       inkscape:connector-curvature="0"
       sodipodi:nodetypes="ccccc" />
    <path
       style="fill:#000000;fill-opacity:1;stroke:#000000;stroke-width:1.06666672px;stroke-linecap:butt;stroke-linejoin:miter;stroke-opacity:1"
       d="m 327.19043,385.12156 c 55.06187,105.95294 -95.11157,135.57805 -127.52878,143.8285 38.05234,-1.52061 107.27695,-20.17128 135.43962,-50.77304 8.68106,-7.94792 26.15789,-71.13748 -7.91084,-93.05546 z"
       id="path4050"
       inkscape:connector-curvature="0"
       sodipodi:nodetypes="cccc" />
    <path
       style="fill:#000000;fill-opacity:1;stroke:#000000;stroke-width:1.06666672px;stroke-linecap:butt;stroke-linejoin:miter;stroke-opacity:1"
       d="m 317.59196,341.87377 c 7.96504,38.08592 94.15926,60.31039 69.5391,20.49951 20.35332,23.59043 -2.47361,35.21866 -28.32487,27.44907 -24.78151,-11.27873 -38.90802,-33.3467 -41.21423,-47.94858 z"
       id="path4052"
       inkscape:connector-curvature="0"
       sodipodi:nodetypes="cccc" />
    <path
       style="fill:#000000;fill-opacity:1;stroke:#000000;stroke-width:1.06666672px;stroke-linecap:butt;stroke-linejoin:miter;stroke-opacity:1"
       d="m 143.57635,511.5794 c 30.83904,21.99896 63.98074,9.04686 73.44516,0.73883 9.46443,-8.30802 15.18069,-17.65235 14.90952,-37.64306 0.0962,9.92577 6.20508,25.38951 -27.47615,49.29543 -17.85007,6.99782 -36.64036,9.71233 -60.87853,-12.3912 z"
       id="path4054"
       inkscape:connector-curvature="0"
       sodipodi:nodetypes="czccc" />
    <path
       style="fill:#000000;fill-opacity:1;stroke:#000000;stroke-width:1.06666672px;stroke-linecap:butt;stroke-linejoin:miter;stroke-opacity:1"
       d="m 68.420999,456.89647 c -5.860387,29.7436 18.527171,72.86112 73.539101,52.79731 -7.20153,17.99145 -43.247412,16.07656 -67.612872,-10.77495 -7.639702,-15.93048 -12.50921,-28.93642 -5.926229,-42.02236 z"
       id="path4056"
       inkscape:connector-curvature="0"
       sodipodi:nodetypes="cccc" />
    <path
       style="fill:#000000;fill-opacity:1;stroke:#000000;stroke-width:1.06666672px;stroke-linecap:butt;stroke-linejoin:miter;stroke-opacity:1"
       d="m 317.90476,290.51966 c 3.79373,26.61763 -1.69794,42.21027 -14.09523,53.14286 l 9.71428,-3.42858 c 9.45504,-13.89612 10.15844,-30.23291 4.38095,-49.71428 z"
       id="path4058"
       inkscape:connector-curvature="0"
       sodipodi:nodetypes="cccc" />
    <path
       style="fill:#000000;fill-opacity:1;stroke:#000000;stroke-width:1.06666672px;stroke-linecap:butt;stroke-linejoin:miter;stroke-opacity:1"
       d="m 148.95238,292.6149 c -6.04186,20.81125 -7.99625,40.65961 6.66667,52.38095 l 12.76191,2.85714 c -14.02645,-6.9357 -27.02373,-29.47697 -19.42858,-55.23809 z"
       id="path4060"
       inkscape:connector-curvature="0"
       sodipodi:nodetypes="cccc" />
  </g>
</svg>
