<?xml version="1.0" encoding="UTF-8" standalone="no"?>
<!-- Created with Inkscape (http://www.inkscape.org/) -->

<svg
   xmlns:dc="http://purl.org/dc/elements/1.1/"
   xmlns:cc="http://creativecommons.org/ns#"
   xmlns:rdf="http://www.w3.org/1999/02/22-rdf-syntax-ns#"
   xmlns:svg="http://www.w3.org/2000/svg"
   xmlns="http://www.w3.org/2000/svg"
   xmlns:sodipodi="http://sodipodi.sourceforge.net/DTD/sodipodi-0.dtd"
   xmlns:inkscape="http://www.inkscape.org/namespaces/inkscape"
   width="210mm"
   height="297mm"
   id="svg3112"
   version="1.1"
   inkscape:version="0.48.4 r9939"
   sodipodi:docname="Documento nuevo 2">
  <defs
     id="defs3114" />
  <sodipodi:namedview
     id="base"
     pagecolor="#ffffff"
     bordercolor="#666666"
     borderopacity="1.0"
     inkscape:pageopacity="0.0"
     inkscape:pageshadow="2"
     inkscape:zoom="1.4"
     inkscape:cx="348.58803"
     inkscape:cy="671.99247"
     inkscape:document-units="px"
     inkscape:current-layer="layer1"
     showgrid="false"
     inkscape:window-width="1366"
     inkscape:window-height="745"
     inkscape:window-x="-8"
     inkscape:window-y="-8"
     inkscape:window-maximized="1" />
  <metadata
     id="metadata3117">
    <rdf:RDF>
      <cc:Work
         rdf:about="">
        <dc:format>image/svg+xml</dc:format>
        <dc:type
           rdf:resource="http://purl.org/dc/dcmitype/StillImage" />
        <dc:title></dc:title>
      </cc:Work>
    </rdf:RDF>
  </metadata>
  <g
     inkscape:label="Capa 1"
     inkscape:groupmode="layer"
     id="layer1">
    <g
       id="g3205"
       transform="matrix(0.38472527,0,0,0.38472527,47.611076,307.66718)">
      <g
         transform="matrix(0.89090869,0.45418246,-0.45418246,0.89090869,239.37436,-174.01565)"
         id="g3036">
        <path
           style="fill:#ffffff;fill-opacity:1;fill-rule:evenodd;stroke:#000000;stroke-width:5;stroke-linecap:round;stroke-linejoin:round;stroke-miterlimit:4;stroke-opacity:1;stroke-dasharray:none;stroke-dashoffset:0"
           d="m 301.45536,449.48281 c -16.61781,-7.42917 -45.66222,-1.91479 -51.97752,15.15743 -8.61436,23.28729 -25.17456,43.98828 -30.37643,84.33803 -2.32744,18.05345 5.68249,27.40549 22.30031,34.83465 16.6178,7.42915 28.82132,3.13694 41.97751,-9.44315 12.50643,-11.95879 26.44142,-49.39267 38.94785,-71.48089 8.96868,-15.84003 -4.25391,-45.97692 -20.87172,-53.40607 z"
           id="rect3794-4"
           inkscape:connector-curvature="0"
           sodipodi:nodetypes="sssssss" />
        <path
           style="fill:#000000;fill-opacity:1;fill-rule:evenodd;stroke:#000000;stroke-width:3;stroke-linecap:round;stroke-linejoin:round;stroke-miterlimit:4;stroke-opacity:1;stroke-dashoffset:0"
           d="m 216.16135,560.79683 c -2.88674,11.94309 2.08999,24.0926 11.7726,31.74973 3.99574,3.15989 13.3242,-2.44338 18.87537,-17.9893 -3.06839,13.54791 3.04003,26.07354 6.77051,25.79433 13.97976,-1.04634 26.01455,-10.12659 29.23357,-23.44443 4.07802,-16.87167 -7.53667,-34.15529 -25.94212,-38.60404 -18.40546,-4.44874 -36.63192,5.62204 -40.70993,22.49371 z"
           id="path3954-7"
           inkscape:connector-curvature="0"
           sodipodi:nodetypes="sscssss" />
        <path
           style="fill:#000000;fill-opacity:1;stroke:#000000;stroke-width:1px;stroke-linecap:butt;stroke-linejoin:miter;stroke-opacity:1"
           d="m 268.1955,554.86206 c 18.29339,-5.72827 48.72508,-44.66003 50.21888,-47.80375 l -15.87369,33.66161 -19.69798,33.33503 z"
           id="path4048"
           inkscape:connector-curvature="0"
           sodipodi:nodetypes="ccccc" />
      </g>
      <g
         id="g3049"
         transform="translate(16.83246,-91.900575)">
        <path
           style="fill:none;stroke:#000000;stroke-width:5;stroke-linecap:butt;stroke-linejoin:miter;stroke-miterlimit:4;stroke-opacity:1;stroke-dasharray:none"
           d="M 702.49261,275.07474 C 648.29113,408.35464 574.32568,232.91603 517.50738,389.64963 l -9.83489,-11.81765 c 56.8183,-156.7336 130.78375,18.70501 184.98523,-114.57489 z"
           id="path3910-8"
           inkscape:connector-curvature="0"
           sodipodi:nodetypes="ccccc" />
        <path
           style="fill:#000000;fill-opacity:1;fill-rule:evenodd;stroke:#000000;stroke-width:3;stroke-linecap:round;stroke-linejoin:round;stroke-miterlimit:4;stroke-opacity:1;stroke-dashoffset:0"
           d="m 715.71429,279.50505 c 0,14.2016 -12.47206,25.71428 -27.85714,25.71428 -15.38507,0 -29.14631,-11.57131 -27.85714,-25.71428 2.85714,-31.34448 38.18636,-17.14286 30.71428,-55.71429 18.24223,15.71428 25,41.51267 25,55.71429 z"
           id="path3930"
           inkscape:connector-curvature="0"
           sodipodi:nodetypes="ssscs" />
      </g>
      <g
         id="g3041"
         transform="translate(16.83246,-91.900575)">
        <path
           style="fill:#ffffff;fill-opacity:1;fill-rule:evenodd;stroke:#000000;stroke-width:5;stroke-linecap:round;stroke-linejoin:round;stroke-miterlimit:4;stroke-opacity:1;stroke-dasharray:none;stroke-dashoffset:0"
           d="m 516.40889,531.64793 c 0,20.18697 -21.48153,36.55176 -47.98033,36.55176 -26.4988,0 -47.98033,-16.36479 -47.98033,-36.55176 0,-20.18698 21.48153,-36.55176 47.98033,-36.55176 26.4988,0 47.98033,16.36478 47.98033,36.55176 z"
           id="path3814"
           inkscape:connector-curvature="0" />
        <path
           style="fill:#ffffff;fill-opacity:1;fill-rule:evenodd;stroke:#000000;stroke-width:4.9264183;stroke-miterlimit:4;stroke-opacity:1;stroke-dasharray:none"
           d="m 594.28572,423.79074 c 0,78.89782 -84.7461,142.85715 -189.28572,142.85715 -104.53962,0 -189.28572,-63.95933 -189.28572,-142.85715 0,-78.89782 84.7461,-142.85715 189.28572,-142.85715 104.53962,0 189.28572,63.95933 189.28572,142.85715 z"
           id="path2985"
           inkscape:connector-curvature="0"
           transform="matrix(1.0301492,0,0,0.99994772,-15.067579,-5.6921314)" />
        <path
           style="fill:#000000;fill-opacity:1;stroke:#000000;stroke-width:1px;stroke-linecap:butt;stroke-linejoin:miter;stroke-opacity:1"
           d="m 221.72849,467.98894 c 157.03129,169.1905 334.53097,54.14381 372.24121,-27.7792 -32.50097,88.52579 -86.2594,99.59788 -135.36044,114.14724 -28.63625,5.5167 -185.93355,21.9367 -236.88077,-86.36804 z"
           id="path4062"
           inkscape:connector-curvature="0"
           sodipodi:nodetypes="cccc" />
        <path
           sodipodi:type="arc"
           style="fill:#000000;fill-opacity:1;fill-rule:evenodd;stroke:#000000;stroke-width:3;stroke-linecap:round;stroke-linejoin:round;stroke-miterlimit:4;stroke-opacity:1;stroke-dasharray:none;stroke-dashoffset:0"
           id="path3990-2-6"
           sodipodi:cx="479.82245"
           sodipodi:cy="332.12341"
           sodipodi:rx="64.649765"
           sodipodi:ry="54.548237"
           d="m 544.47221,332.12341 c 0,30.12616 -28.94468,54.54824 -64.64976,54.54824 -35.70508,0 -64.64977,-24.42208 -64.64977,-54.54824 0,-30.12616 28.94469,-54.54823 64.64977,-54.54823 35.70508,0 64.64976,24.42207 64.64976,54.54823 z"
           transform="matrix(1.0151343,0,0,1.0271962,24.052942,105.61981)" />
        <path
           sodipodi:type="arc"
           style="fill:#000000;fill-opacity:1;fill-rule:evenodd;stroke:#000000;stroke-width:3;stroke-linecap:round;stroke-linejoin:round;stroke-miterlimit:4;stroke-opacity:1;stroke-dasharray:none;stroke-dashoffset:0"
           id="path3990"
           sodipodi:cx="479.82245"
           sodipodi:cy="332.12341"
           sodipodi:rx="64.649765"
           sodipodi:ry="54.548237"
           d="m 544.47221,332.12341 c 0,30.12616 -28.94468,54.54824 -64.64976,54.54824 -35.70508,0 -64.64977,-24.42208 -64.64977,-54.54824 0,-30.12616 28.94469,-54.54823 64.64977,-54.54823 35.70508,0 64.64976,24.42207 64.64976,54.54823 z"
           transform="translate(-38.385797,7.0710678)" />
        <path
           sodipodi:type="arc"
           style="fill:#000000;fill-opacity:1;fill-rule:evenodd;stroke:#000000;stroke-width:3;stroke-linecap:round;stroke-linejoin:round;stroke-miterlimit:4;stroke-opacity:1;stroke-dasharray:none;stroke-dashoffset:0"
           id="path3990-2"
           sodipodi:cx="479.82245"
           sodipodi:cy="332.12341"
           sodipodi:rx="64.649765"
           sodipodi:ry="54.548237"
           d="m 544.47221,332.12341 c 0,30.12616 -28.94468,54.54824 -64.64976,54.54824 -35.70508,0 -64.64977,-24.42208 -64.64977,-54.54824 0,-30.12616 28.94469,-54.54823 64.64977,-54.54823 35.70508,0 64.64976,24.42207 64.64976,54.54823 z"
           transform="matrix(0.7566266,0,0,0.6745204,52.831844,224.51204)" />
      </g>
      <g
         transform="matrix(0.39240299,0.9197934,-0.9197934,0.39240299,693.04509,-134.59642)"
         id="g3057">
        <path
           style="fill:#ffffff;fill-opacity:1;fill-rule:evenodd;stroke:#000000;stroke-width:5;stroke-linecap:round;stroke-linejoin:round;stroke-miterlimit:4;stroke-opacity:1;stroke-dasharray:none;stroke-dashoffset:0"
           d="m 349.97315,463.05423 c 16.61781,-7.42916 42.41152,1.85294 54.83466,15.15743 13.41786,14.36978 20.64399,32.53666 30.37643,84.33803 3.36114,17.88985 -8.53963,27.40549 -25.15745,34.83465 -16.61781,7.42916 -32.69571,8.13242 -43.40608,-6.58601 -14.59209,-20.05278 -37.06246,-62.47553 -37.51928,-80.05231 -0.45683,-17.57678 4.25391,-40.26263 20.87172,-47.69179 z"
           id="rect3794"
           inkscape:connector-curvature="0"
           sodipodi:nodetypes="ssssszs" />
        <path
           style="fill:#000000;fill-opacity:1;fill-rule:evenodd;stroke:#000000;stroke-width:3;stroke-linecap:round;stroke-linejoin:round;stroke-miterlimit:4;stroke-opacity:1;stroke-dashoffset:0"
           d="m 436.47068,575.62566 c 2.88674,11.94309 -2.08999,24.0926 -11.7726,31.74973 -3.99574,3.15989 -13.3242,-2.44338 -18.87537,-17.9893 3.06839,13.54791 -3.04003,26.07354 -6.77051,25.79433 -13.97976,-1.04634 -26.01455,-10.12659 -29.23357,-23.44443 -4.07802,-16.87167 7.53667,-34.15529 25.94212,-38.60404 18.40546,-4.44874 36.63192,5.62204 40.70993,22.49371 z"
           id="path3954"
           inkscape:connector-curvature="0"
           sodipodi:nodetypes="sscssss" />
        <path
           style="fill:#000000;fill-opacity:1;stroke:#000000;stroke-width:1px;stroke-linecap:butt;stroke-linejoin:miter;stroke-opacity:1"
           d="m 334.36049,482.63615 c -2.78762,23.68493 -7.93469,63.34677 55.55839,114.14723 -8.82311,7.39339 -19.39106,8.47853 -45.45686,-46.46701 -15.16278,-20.3484 -16.44621,-43.29917 -10.10153,-67.68022 z"
           id="path4046"
           inkscape:connector-curvature="0"
           sodipodi:nodetypes="cccc" />
      </g>
      <g
         transform="matrix(0.9776009,0.21046728,-0.21046728,0.9776009,113.75837,-163.28858)"
         id="g3016">
        <path
           style="fill:#ffffff;fill-opacity:1;fill-rule:evenodd;stroke:#000000;stroke-width:6;stroke-linecap:round;stroke-linejoin:round;stroke-miterlimit:4;stroke-opacity:1;stroke-dasharray:none;stroke-dashoffset:0"
           d="m 156.01643,325.56252 c 6.62812,10.27718 -4.12385,29.00812 -24.01518,41.83673 -19.89132,12.8286 -41.389575,14.89694 -48.017686,4.61975 -6.628111,-10.27718 4.123846,-29.00813 24.015166,-41.83673 19.89133,-12.82861 41.38959,-14.89694 48.0177,-4.61975 z"
           id="path3854"
           inkscape:connector-curvature="0" />
        <path
           style="fill:#ffffff;fill-opacity:1;fill-rule:evenodd;stroke:#000000;stroke-width:4.98563957;stroke-miterlimit:4;stroke-opacity:1;stroke-dasharray:none"
           d="m 218.2366,300.08657 c -39.08797,0.25751 -63.89844,11.83443 -76.92559,29.43964 -8.5796,11.59468 -7.31394,22.11145 6.24477,30.53347 -23.52265,17.7573 -63.716511,43.78805 -64.094307,62.37954 -1.420274,69.89219 88.976017,87.63576 152.981267,66.94237 53.02721,-17.14411 85.85908,-27.05714 90.85908,-83.01951 0.35714,-21.95468 -5.26426,-27.86771 -20.42115,-47.92752 1.17139,-3.38525 4.27402,-16.86746 2.51089,-20.34523 -12.98606,-25.61493 -32.12567,-35.35886 -78.54115,-37.72149 -4.35145,-0.2215 -8.57022,-0.30791 -12.61381,-0.28127 z"
           id="path2987"
           inkscape:connector-curvature="0"
           sodipodi:nodetypes="sscssccsss" />
        <path
           style="fill:#ffffff;fill-opacity:1;fill-rule:evenodd;stroke:#000000;stroke-width:4.22781372;stroke-linecap:round;stroke-linejoin:round;stroke-miterlimit:4;stroke-opacity:1;stroke-dasharray:none;stroke-dashoffset:0"
           d="m 218.48608,459.60927 c -4.70112,29.69401 -52.56524,53.93512 -84.58172,19.97302 -37.94123,25.88749 -77.491805,-13.74766 -72.790686,-43.44166 4.701117,-29.694 47.977676,-54.76632 78.906076,-28.12365 50.8116,-16.60117 83.16744,21.8983 78.46633,51.59229 z"
           id="path3757"
           inkscape:connector-curvature="0"
           sodipodi:nodetypes="scscs" />
        <path
           style="fill:#000000;fill-opacity:1;fill-rule:evenodd;stroke:#000000;stroke-width:2.26187301;stroke-linecap:round;stroke-linejoin:round;stroke-miterlimit:4;stroke-opacity:1;stroke-dasharray:none;stroke-dashoffset:0"
           d="m 119.81293,438.65932 c -0.73477,4.64107 -8.90803,7.20372 -18.2555,5.72384 -9.347484,-1.47988 -16.329463,-6.44189 -15.594694,-11.08297 0.734768,-4.64106 8.908044,-7.20372 18.255524,-5.72384 9.34747,1.47988 16.32944,6.4419 15.59467,11.08297 z"
           id="path3774"
           inkscape:connector-curvature="0" />
        <path
           style="fill:#000000;fill-opacity:1;fill-rule:evenodd;stroke:#000000;stroke-width:2.26187301;stroke-linecap:round;stroke-linejoin:round;stroke-miterlimit:4;stroke-opacity:1;stroke-dasharray:none;stroke-dashoffset:0"
           d="m 186.59567,447.08215 c -0.73477,4.64108 -8.90805,7.20373 -18.25551,5.72386 -9.34747,-1.47989 -16.32945,-6.4419 -15.59468,-11.08298 0.73477,-4.64107 8.90804,-7.20372 18.25552,-5.72384 9.34746,1.47988 16.32944,6.44189 15.59467,11.08296 z"
           id="path3774-1"
           inkscape:connector-curvature="0" />
        <path
           style="fill:#000000;fill-opacity:1;fill-rule:evenodd;stroke:#000000;stroke-width:2.74915504;stroke-linecap:round;stroke-linejoin:round;stroke-miterlimit:4;stroke-opacity:1;stroke-dasharray:none;stroke-dashoffset:0"
           d="m 197.51491,352.66286 c 0,15.06641 -11.2396,27.28016 -25.10433,27.28016 -13.86473,0 -25.10431,-12.21375 -25.10431,-27.28016 0,-15.06641 11.23958,-27.28014 25.10431,-27.28014 13.86473,0 25.10433,12.21373 25.10433,27.28014 z"
           id="path3834"
           inkscape:connector-curvature="0" />
        <path
           style="fill:#000000;fill-opacity:1;fill-rule:evenodd;stroke:#000000;stroke-width:3;stroke-linecap:round;stroke-linejoin:round;stroke-miterlimit:4;stroke-opacity:1;stroke-dasharray:none;stroke-dashoffset:0"
           d="m 292.56833,362.06149 c 0,16.18061 -12.46263,29.29759 -27.83604,29.29759 -15.37342,0 -27.83604,-13.11698 -27.83604,-29.29759 0,-16.18061 12.46262,-29.29758 27.83604,-29.29758 15.37341,0 27.83604,13.11697 27.83604,29.29758 z"
           id="path3834-0"
           inkscape:connector-curvature="0" />
        <path
           style="fill:#ffffff;fill-opacity:1;fill-rule:evenodd;stroke:#000000;stroke-width:6;stroke-linecap:round;stroke-linejoin:round;stroke-miterlimit:4;stroke-opacity:1;stroke-dasharray:none;stroke-dashoffset:0"
           d="m 298.26927,316.2768 c -6.62811,10.27719 4.12385,29.00813 24.01518,41.83674 19.89133,12.8286 41.38958,14.89694 48.01769,4.61975 6.62811,-10.27718 -4.12385,-29.00813 -24.01517,-41.83673 -19.89133,-12.82861 -41.38959,-14.89694 -48.0177,-4.61976 z"
           id="path3854-9"
           inkscape:connector-curvature="0" />
        <path
           sodipodi:type="arc"
           style="fill:#ffffff;fill-opacity:1;fill-rule:evenodd;stroke:#000000;stroke-width:3;stroke-linecap:round;stroke-linejoin:round;stroke-miterlimit:4;stroke-opacity:1;stroke-dasharray:none;stroke-dashoffset:0"
           id="path3888"
           sodipodi:cx="86.428574"
           sodipodi:cy="263.07648"
           sodipodi:rx="10.714286"
           sodipodi:ry="10.714286"
           d="m 97.142859,263.07648 c 0,5.91733 -4.796949,10.71428 -10.714285,10.71428 -5.917337,0 -10.714286,-4.79695 -10.714286,-10.71428 0,-5.91734 4.796949,-10.71429 10.714286,-10.71429 5.917336,0 10.714285,4.79695 10.714285,10.71429 z"
           transform="matrix(0.9018639,0,0,0.9311399,83.915306,100.77089)" />
        <path
           sodipodi:type="arc"
           style="fill:#ffffff;fill-opacity:1;fill-rule:evenodd;stroke:#000000;stroke-width:3;stroke-linecap:round;stroke-linejoin:round;stroke-miterlimit:4;stroke-opacity:1;stroke-dasharray:none;stroke-dashoffset:0"
           id="path3888-4"
           sodipodi:cx="86.428574"
           sodipodi:cy="263.07648"
           sodipodi:rx="10.714286"
           sodipodi:ry="10.714286"
           d="m 97.142859,263.07648 c 0,5.91733 -4.796949,10.71428 -10.714285,10.71428 -5.917337,0 -10.714286,-4.79695 -10.714286,-10.71428 0,-5.91734 4.796949,-10.71429 10.714286,-10.71429 5.917336,0 10.714285,4.79695 10.714285,10.71429 z"
           transform="translate(168.42857,93.857134)" />
        <path
           style="fill:#ffffff;fill-opacity:1;stroke:#000000;stroke-width:5;stroke-linecap:butt;stroke-linejoin:miter;stroke-miterlimit:4;stroke-opacity:1;stroke-dasharray:none"
           d="m 138.47872,274.83607 c -8.01432,21.72301 -3.9224,37.10254 7.15675,48.82085 18.85087,10.41379 36.79059,-8.95135 33.8161,-17.31882 -15.9706,-8.55905 -28.18015,-13.95909 -40.97285,-31.50203 z"
           id="path3934"
           inkscape:connector-curvature="0"
           sodipodi:nodetypes="cccc" />
        <path
           style="fill:#ffffff;fill-opacity:1;stroke:#000000;stroke-width:5;stroke-linecap:butt;stroke-linejoin:miter;stroke-miterlimit:4;stroke-opacity:1;stroke-dasharray:none"
           d="m 299.2694,271.80808 c 8.01432,21.72301 3.9224,37.10254 -7.15675,48.82085 -18.85087,10.41379 -36.79059,-8.95135 -33.8161,-17.31882 15.9706,-8.55905 28.18015,-13.95909 40.97285,-31.50203 z"
           id="path3934-8"
           inkscape:connector-curvature="0"
           sodipodi:nodetypes="cccc" />
        <path
           style="fill:#000000;fill-opacity:1;stroke:#000000;stroke-width:1px;stroke-linecap:butt;stroke-linejoin:miter;stroke-opacity:1"
           d="m 306.74103,361.05146 c 51.6205,99.33088 -89.1671,127.10442 -119.55823,134.83922 35.67407,-1.42557 100.57214,-18.91057 126.97464,-47.59972 8.13849,-7.45118 24.52302,-66.69139 -7.41641,-87.2395 z"
           id="path4050"
           inkscape:connector-curvature="0"
           sodipodi:nodetypes="cccc" />
        <path
           style="fill:#000000;fill-opacity:1;stroke:#000000;stroke-width:1px;stroke-linecap:butt;stroke-linejoin:miter;stroke-opacity:1"
           d="m 297.74246,320.50666 c 7.46723,35.70555 88.27431,56.54099 65.19291,19.21829 19.08124,22.11603 -2.31901,33.01749 -26.55457,25.7335 -23.23266,-10.57381 -36.47627,-31.26253 -38.63834,-44.95179 z"
           id="path4052"
           inkscape:connector-curvature="0"
           sodipodi:nodetypes="cccc" />
        <path
           style="fill:#000000;fill-opacity:1;stroke:#000000;stroke-width:1px;stroke-linecap:butt;stroke-linejoin:miter;stroke-opacity:1"
           d="m 134.60283,479.60569 c 28.9116,20.62402 59.98194,8.48143 68.85484,0.69265 8.8729,-7.78877 14.23189,-16.54908 13.97767,-35.29037 0.0902,9.30541 5.81726,23.80267 -25.75889,46.21447 -16.73444,6.56045 -34.35034,9.10531 -57.07362,-11.61675 z"
           id="path4054"
           inkscape:connector-curvature="0"
           sodipodi:nodetypes="czccc" />
        <path
           style="fill:#000000;fill-opacity:1;stroke:#000000;stroke-width:1px;stroke-linecap:butt;stroke-linejoin:miter;stroke-opacity:1"
           d="m 64.144687,428.34044 c -5.494113,27.88463 17.369222,68.3073 68.942903,49.49748 -6.75143,16.86698 -40.544445,15.07177 -63.387064,-10.10152 -7.16222,-14.93482 -11.727384,-27.12789 -5.555839,-39.39596 z"
           id="path4056"
           inkscape:connector-curvature="0"
           sodipodi:nodetypes="cccc" />
        <path
           style="fill:#000000;fill-opacity:1;stroke:#000000;stroke-width:1px;stroke-linecap:butt;stroke-linejoin:miter;stroke-opacity:1"
           d="m 298.03571,272.36218 c 3.55662,24.95403 -1.59182,39.57213 -13.21428,49.82143 l 9.10714,-3.21429 c 8.8641,-13.02761 9.52354,-28.34335 4.10714,-46.60714 z"
           id="path4058"
           inkscape:connector-curvature="0"
           sodipodi:nodetypes="cccc" />
        <path
           style="fill:#000000;fill-opacity:1;stroke:#000000;stroke-width:1px;stroke-linecap:butt;stroke-linejoin:miter;stroke-opacity:1"
           d="m 139.64286,274.32647 c -5.66425,19.51055 -7.49649,38.11838 6.25,49.10714 l 11.96429,2.67857 c -13.1498,-6.50222 -25.33475,-27.63466 -18.21429,-51.78571 z"
           id="path4060"
           inkscape:connector-curvature="0"
           sodipodi:nodetypes="cccc" />
      </g>
      <g
         transform="matrix(0.83420766,-0.55145044,0.55145044,0.83420766,-152.05778,276.27737)"
         inkscape:transform-center-y="30.001349"
         inkscape:transform-center-x="-48.220226"
         id="g3053">
        <path
           style="fill:#ffffff;fill-opacity:1;fill-rule:evenodd;stroke:#000000;stroke-width:5;stroke-linecap:round;stroke-linejoin:round;stroke-miterlimit:4;stroke-opacity:1;stroke-dasharray:none;stroke-dashoffset:0"
           d="m 516.83034,442.62571 c 16.61781,-7.42916 51.97062,8.41751 59.12036,25.15745 7.15805,16.75936 20.90787,39.13127 24.66215,72.90944 2.01077,18.09145 -7.11106,28.83407 -23.72887,36.26323 -16.61781,7.42916 -19.60367,-4.54535 -37.69179,-6.58602 -9.64928,-1.08862 -29.29857,-34.20525 -38.94785,-65.76658 -5.32201,-17.40749 -0.0318,-54.54836 16.586,-61.97752 z"
           id="rect3794-7"
           inkscape:connector-curvature="0"
           sodipodi:nodetypes="sssssss" />
        <path
           style="fill:#000000;fill-opacity:1;fill-rule:evenodd;stroke:#000000;stroke-width:3;stroke-linecap:round;stroke-linejoin:round;stroke-miterlimit:4;stroke-opacity:1;stroke-dashoffset:0"
           d="m 604.12313,553.66485 c 2.88674,11.94309 -2.08999,24.0926 -11.7726,31.74973 -3.99574,3.15989 -13.3242,-2.44338 -18.87537,-17.9893 3.06839,13.54791 -3.04003,26.07354 -6.77051,25.79433 -13.97976,-1.04634 -26.01455,-10.12659 -29.23357,-23.44443 -4.07802,-16.87167 7.53667,-34.15529 25.94212,-38.60404 18.40546,-4.44874 36.63192,5.62204 40.70993,22.49371 z"
           id="path3954-71"
           inkscape:connector-curvature="0"
           sodipodi:nodetypes="sscssss" />
      </g>
    </g>
    <rect
       style="fill:none;stroke:#000000;stroke-width:1;stroke-linecap:butt;stroke-linejoin:round;stroke-miterlimit:4;stroke-opacity:1;stroke-dasharray:none;stroke-dashoffset:0"
       id="rect4601"
       width="512.1347"
       height="297.995"
       x="45.075508"
       y="273.36469"
       inkscape:export-filename="C:\Users\Sebastián\Dropbox\Personal\Diseños\vaca-corre.png"
       inkscape:export-xdpi="720"
       inkscape:export-ydpi="720" />
    <path
       style="fill:none;stroke:#000000;stroke-width:1;stroke-linecap:butt;stroke-linejoin:miter;stroke-miterlimit:4;stroke-opacity:1;stroke-dasharray:6, 6;stroke-dashoffset:0.4"
       d="m 301.33184,454.79132 c 9.57676,1.70501 20.33032,13.18022 23.51886,21.84699 29.53935,-39.49058 62.70711,-37.61167 89.90358,0 29.1367,-33.52992 60.11993,-42.43956 94.95434,0"
       id="path3448"
       inkscape:connector-curvature="0"
       sodipodi:nodetypes="cccc" />
  </g>
</svg>
